G04 #@! TF.GenerationSoftware,KiCad,Pcbnew,5.0.2-bee76a0~70~ubuntu18.04.1*
G04 #@! TF.CreationDate,2019-08-21T23:32:46+02:00*
G04 #@! TF.ProjectId,nodemcu_shield,6e6f6465-6d63-4755-9f73-6869656c642e,rev?*
G04 #@! TF.SameCoordinates,Original*
G04 #@! TF.FileFunction,Copper,L1,Top*
G04 #@! TF.FilePolarity,Positive*
%FSLAX46Y46*%
G04 Gerber Fmt 4.6, Leading zero omitted, Abs format (unit mm)*
G04 Created by KiCad (PCBNEW 5.0.2-bee76a0~70~ubuntu18.04.1) date Mi 21 Aug 2019 23:32:46 CEST*
%MOMM*%
%LPD*%
G01*
G04 APERTURE LIST*
G04 #@! TA.AperFunction,ComponentPad*
%ADD10C,1.800000*%
G04 #@! TD*
G04 #@! TA.AperFunction,ComponentPad*
%ADD11R,1.800000X1.800000*%
G04 #@! TD*
G04 #@! TA.AperFunction,ComponentPad*
%ADD12R,1.700000X1.700000*%
G04 #@! TD*
G04 #@! TA.AperFunction,ComponentPad*
%ADD13O,1.700000X1.700000*%
G04 #@! TD*
G04 #@! TA.AperFunction,Conductor*
%ADD14C,0.100000*%
G04 #@! TD*
G04 #@! TA.AperFunction,SMDPad,CuDef*
%ADD15C,0.590000*%
G04 #@! TD*
G04 #@! TA.AperFunction,SMDPad,CuDef*
%ADD16R,2.000000X3.500000*%
G04 #@! TD*
G04 #@! TA.AperFunction,SMDPad,CuDef*
%ADD17R,2.000000X6.000000*%
G04 #@! TD*
G04 #@! TA.AperFunction,Conductor*
%ADD18C,0.800000*%
G04 #@! TD*
G04 #@! TA.AperFunction,Conductor*
%ADD19C,2.000000*%
G04 #@! TD*
G04 APERTURE END LIST*
D10*
G04 #@! TO.P,J1,6*
G04 #@! TO.N,/S3*
X36260000Y-30450000D03*
G04 #@! TO.P,J1,5*
G04 #@! TO.N,/A0*
X38800000Y-31720000D03*
D11*
G04 #@! TO.P,J1,1*
G04 #@! TO.N,/D7*
X38800000Y-36800000D03*
D10*
G04 #@! TO.P,J1,2*
G04 #@! TO.N,/D6*
X36260000Y-35530000D03*
G04 #@! TO.P,J1,3*
G04 #@! TO.N,GND*
X38800000Y-34260000D03*
G04 #@! TO.P,J1,4*
G04 #@! TO.N,/CLK*
X36260000Y-32990000D03*
G04 #@! TD*
D12*
G04 #@! TO.P,J2,1*
G04 #@! TO.N,/A0*
X7700000Y-13500000D03*
D13*
G04 #@! TO.P,J2,2*
G04 #@! TO.N,GND*
X7700000Y-16040000D03*
G04 #@! TO.P,J2,3*
G04 #@! TO.N,Net-(J2-Pad3)*
X7700000Y-18580000D03*
G04 #@! TO.P,J2,4*
G04 #@! TO.N,/S3*
X7700000Y-21120000D03*
G04 #@! TO.P,J2,5*
G04 #@! TO.N,/S2*
X7700000Y-23660000D03*
G04 #@! TO.P,J2,6*
G04 #@! TO.N,Net-(J2-Pad6)*
X7700000Y-26200000D03*
G04 #@! TO.P,J2,7*
G04 #@! TO.N,Net-(J2-Pad7)*
X7700000Y-28740000D03*
G04 #@! TO.P,J2,8*
G04 #@! TO.N,Net-(J2-Pad8)*
X7700000Y-31280000D03*
G04 #@! TO.P,J2,9*
G04 #@! TO.N,Net-(J2-Pad9)*
X7700000Y-33820000D03*
G04 #@! TO.P,J2,10*
G04 #@! TO.N,GND*
X7700000Y-36360000D03*
G04 #@! TO.P,J2,11*
G04 #@! TO.N,+3V3*
X7700000Y-38900000D03*
G04 #@! TO.P,J2,12*
G04 #@! TO.N,/EN*
X7700000Y-41440000D03*
G04 #@! TO.P,J2,13*
G04 #@! TO.N,/RST*
X7700000Y-43980000D03*
G04 #@! TO.P,J2,14*
G04 #@! TO.N,GND*
X7700000Y-46520000D03*
G04 #@! TO.P,J2,15*
G04 #@! TO.N,+5V*
X7700000Y-49060000D03*
G04 #@! TD*
G04 #@! TO.P,J3,15*
G04 #@! TO.N,+3V3*
X30200000Y-49060000D03*
G04 #@! TO.P,J3,14*
G04 #@! TO.N,GND*
X30200000Y-46520000D03*
G04 #@! TO.P,J3,13*
G04 #@! TO.N,/TX*
X30200000Y-43980000D03*
G04 #@! TO.P,J3,12*
G04 #@! TO.N,/RX*
X30200000Y-41440000D03*
G04 #@! TO.P,J3,11*
G04 #@! TO.N,/CS*
X30200000Y-38900000D03*
G04 #@! TO.P,J3,10*
G04 #@! TO.N,/D7*
X30200000Y-36360000D03*
G04 #@! TO.P,J3,9*
G04 #@! TO.N,/D6*
X30200000Y-33820000D03*
G04 #@! TO.P,J3,8*
G04 #@! TO.N,/CLK*
X30200000Y-31280000D03*
G04 #@! TO.P,J3,7*
G04 #@! TO.N,GND*
X30200000Y-28740000D03*
G04 #@! TO.P,J3,6*
G04 #@! TO.N,+3V3*
X30200000Y-26200000D03*
G04 #@! TO.P,J3,5*
G04 #@! TO.N,/D4*
X30200000Y-23660000D03*
G04 #@! TO.P,J3,4*
G04 #@! TO.N,/D3*
X30200000Y-21120000D03*
G04 #@! TO.P,J3,3*
G04 #@! TO.N,/D2*
X30200000Y-18580000D03*
G04 #@! TO.P,J3,2*
G04 #@! TO.N,/D1*
X30200000Y-16040000D03*
D12*
G04 #@! TO.P,J3,1*
G04 #@! TO.N,/D0*
X30200000Y-13500000D03*
G04 #@! TD*
D11*
G04 #@! TO.P,J5,1*
G04 #@! TO.N,/D1*
X36130000Y-15595000D03*
D10*
G04 #@! TO.P,J5,2*
G04 #@! TO.N,+5V*
X38670000Y-16865000D03*
G04 #@! TO.P,J5,3*
G04 #@! TO.N,/D2*
X36130000Y-18135000D03*
G04 #@! TO.P,J5,4*
G04 #@! TO.N,GND*
X38670000Y-19405000D03*
G04 #@! TD*
D14*
G04 #@! TO.N,/D1*
G04 #@! TO.C,R1*
G36*
X24086958Y-8290710D02*
X24101276Y-8292834D01*
X24115317Y-8296351D01*
X24128946Y-8301228D01*
X24142031Y-8307417D01*
X24154447Y-8314858D01*
X24166073Y-8323481D01*
X24176798Y-8333202D01*
X24186519Y-8343927D01*
X24195142Y-8355553D01*
X24202583Y-8367969D01*
X24208772Y-8381054D01*
X24213649Y-8394683D01*
X24217166Y-8408724D01*
X24219290Y-8423042D01*
X24220000Y-8437500D01*
X24220000Y-8732500D01*
X24219290Y-8746958D01*
X24217166Y-8761276D01*
X24213649Y-8775317D01*
X24208772Y-8788946D01*
X24202583Y-8802031D01*
X24195142Y-8814447D01*
X24186519Y-8826073D01*
X24176798Y-8836798D01*
X24166073Y-8846519D01*
X24154447Y-8855142D01*
X24142031Y-8862583D01*
X24128946Y-8868772D01*
X24115317Y-8873649D01*
X24101276Y-8877166D01*
X24086958Y-8879290D01*
X24072500Y-8880000D01*
X23727500Y-8880000D01*
X23713042Y-8879290D01*
X23698724Y-8877166D01*
X23684683Y-8873649D01*
X23671054Y-8868772D01*
X23657969Y-8862583D01*
X23645553Y-8855142D01*
X23633927Y-8846519D01*
X23623202Y-8836798D01*
X23613481Y-8826073D01*
X23604858Y-8814447D01*
X23597417Y-8802031D01*
X23591228Y-8788946D01*
X23586351Y-8775317D01*
X23582834Y-8761276D01*
X23580710Y-8746958D01*
X23580000Y-8732500D01*
X23580000Y-8437500D01*
X23580710Y-8423042D01*
X23582834Y-8408724D01*
X23586351Y-8394683D01*
X23591228Y-8381054D01*
X23597417Y-8367969D01*
X23604858Y-8355553D01*
X23613481Y-8343927D01*
X23623202Y-8333202D01*
X23633927Y-8323481D01*
X23645553Y-8314858D01*
X23657969Y-8307417D01*
X23671054Y-8301228D01*
X23684683Y-8296351D01*
X23698724Y-8292834D01*
X23713042Y-8290710D01*
X23727500Y-8290000D01*
X24072500Y-8290000D01*
X24086958Y-8290710D01*
X24086958Y-8290710D01*
G37*
D15*
G04 #@! TD*
G04 #@! TO.P,R1,2*
G04 #@! TO.N,/D1*
X23900000Y-8585000D03*
D14*
G04 #@! TO.N,+3V3*
G04 #@! TO.C,R1*
G36*
X24086958Y-7320710D02*
X24101276Y-7322834D01*
X24115317Y-7326351D01*
X24128946Y-7331228D01*
X24142031Y-7337417D01*
X24154447Y-7344858D01*
X24166073Y-7353481D01*
X24176798Y-7363202D01*
X24186519Y-7373927D01*
X24195142Y-7385553D01*
X24202583Y-7397969D01*
X24208772Y-7411054D01*
X24213649Y-7424683D01*
X24217166Y-7438724D01*
X24219290Y-7453042D01*
X24220000Y-7467500D01*
X24220000Y-7762500D01*
X24219290Y-7776958D01*
X24217166Y-7791276D01*
X24213649Y-7805317D01*
X24208772Y-7818946D01*
X24202583Y-7832031D01*
X24195142Y-7844447D01*
X24186519Y-7856073D01*
X24176798Y-7866798D01*
X24166073Y-7876519D01*
X24154447Y-7885142D01*
X24142031Y-7892583D01*
X24128946Y-7898772D01*
X24115317Y-7903649D01*
X24101276Y-7907166D01*
X24086958Y-7909290D01*
X24072500Y-7910000D01*
X23727500Y-7910000D01*
X23713042Y-7909290D01*
X23698724Y-7907166D01*
X23684683Y-7903649D01*
X23671054Y-7898772D01*
X23657969Y-7892583D01*
X23645553Y-7885142D01*
X23633927Y-7876519D01*
X23623202Y-7866798D01*
X23613481Y-7856073D01*
X23604858Y-7844447D01*
X23597417Y-7832031D01*
X23591228Y-7818946D01*
X23586351Y-7805317D01*
X23582834Y-7791276D01*
X23580710Y-7776958D01*
X23580000Y-7762500D01*
X23580000Y-7467500D01*
X23580710Y-7453042D01*
X23582834Y-7438724D01*
X23586351Y-7424683D01*
X23591228Y-7411054D01*
X23597417Y-7397969D01*
X23604858Y-7385553D01*
X23613481Y-7373927D01*
X23623202Y-7363202D01*
X23633927Y-7353481D01*
X23645553Y-7344858D01*
X23657969Y-7337417D01*
X23671054Y-7331228D01*
X23684683Y-7326351D01*
X23698724Y-7322834D01*
X23713042Y-7320710D01*
X23727500Y-7320000D01*
X24072500Y-7320000D01*
X24086958Y-7320710D01*
X24086958Y-7320710D01*
G37*
D15*
G04 #@! TD*
G04 #@! TO.P,R1,1*
G04 #@! TO.N,+3V3*
X23900000Y-7615000D03*
D14*
G04 #@! TO.N,+3V3*
G04 #@! TO.C,R2*
G36*
X20286958Y-7320710D02*
X20301276Y-7322834D01*
X20315317Y-7326351D01*
X20328946Y-7331228D01*
X20342031Y-7337417D01*
X20354447Y-7344858D01*
X20366073Y-7353481D01*
X20376798Y-7363202D01*
X20386519Y-7373927D01*
X20395142Y-7385553D01*
X20402583Y-7397969D01*
X20408772Y-7411054D01*
X20413649Y-7424683D01*
X20417166Y-7438724D01*
X20419290Y-7453042D01*
X20420000Y-7467500D01*
X20420000Y-7762500D01*
X20419290Y-7776958D01*
X20417166Y-7791276D01*
X20413649Y-7805317D01*
X20408772Y-7818946D01*
X20402583Y-7832031D01*
X20395142Y-7844447D01*
X20386519Y-7856073D01*
X20376798Y-7866798D01*
X20366073Y-7876519D01*
X20354447Y-7885142D01*
X20342031Y-7892583D01*
X20328946Y-7898772D01*
X20315317Y-7903649D01*
X20301276Y-7907166D01*
X20286958Y-7909290D01*
X20272500Y-7910000D01*
X19927500Y-7910000D01*
X19913042Y-7909290D01*
X19898724Y-7907166D01*
X19884683Y-7903649D01*
X19871054Y-7898772D01*
X19857969Y-7892583D01*
X19845553Y-7885142D01*
X19833927Y-7876519D01*
X19823202Y-7866798D01*
X19813481Y-7856073D01*
X19804858Y-7844447D01*
X19797417Y-7832031D01*
X19791228Y-7818946D01*
X19786351Y-7805317D01*
X19782834Y-7791276D01*
X19780710Y-7776958D01*
X19780000Y-7762500D01*
X19780000Y-7467500D01*
X19780710Y-7453042D01*
X19782834Y-7438724D01*
X19786351Y-7424683D01*
X19791228Y-7411054D01*
X19797417Y-7397969D01*
X19804858Y-7385553D01*
X19813481Y-7373927D01*
X19823202Y-7363202D01*
X19833927Y-7353481D01*
X19845553Y-7344858D01*
X19857969Y-7337417D01*
X19871054Y-7331228D01*
X19884683Y-7326351D01*
X19898724Y-7322834D01*
X19913042Y-7320710D01*
X19927500Y-7320000D01*
X20272500Y-7320000D01*
X20286958Y-7320710D01*
X20286958Y-7320710D01*
G37*
D15*
G04 #@! TD*
G04 #@! TO.P,R2,2*
G04 #@! TO.N,+3V3*
X20100000Y-7615000D03*
D14*
G04 #@! TO.N,/D2*
G04 #@! TO.C,R2*
G36*
X20286958Y-8290710D02*
X20301276Y-8292834D01*
X20315317Y-8296351D01*
X20328946Y-8301228D01*
X20342031Y-8307417D01*
X20354447Y-8314858D01*
X20366073Y-8323481D01*
X20376798Y-8333202D01*
X20386519Y-8343927D01*
X20395142Y-8355553D01*
X20402583Y-8367969D01*
X20408772Y-8381054D01*
X20413649Y-8394683D01*
X20417166Y-8408724D01*
X20419290Y-8423042D01*
X20420000Y-8437500D01*
X20420000Y-8732500D01*
X20419290Y-8746958D01*
X20417166Y-8761276D01*
X20413649Y-8775317D01*
X20408772Y-8788946D01*
X20402583Y-8802031D01*
X20395142Y-8814447D01*
X20386519Y-8826073D01*
X20376798Y-8836798D01*
X20366073Y-8846519D01*
X20354447Y-8855142D01*
X20342031Y-8862583D01*
X20328946Y-8868772D01*
X20315317Y-8873649D01*
X20301276Y-8877166D01*
X20286958Y-8879290D01*
X20272500Y-8880000D01*
X19927500Y-8880000D01*
X19913042Y-8879290D01*
X19898724Y-8877166D01*
X19884683Y-8873649D01*
X19871054Y-8868772D01*
X19857969Y-8862583D01*
X19845553Y-8855142D01*
X19833927Y-8846519D01*
X19823202Y-8836798D01*
X19813481Y-8826073D01*
X19804858Y-8814447D01*
X19797417Y-8802031D01*
X19791228Y-8788946D01*
X19786351Y-8775317D01*
X19782834Y-8761276D01*
X19780710Y-8746958D01*
X19780000Y-8732500D01*
X19780000Y-8437500D01*
X19780710Y-8423042D01*
X19782834Y-8408724D01*
X19786351Y-8394683D01*
X19791228Y-8381054D01*
X19797417Y-8367969D01*
X19804858Y-8355553D01*
X19813481Y-8343927D01*
X19823202Y-8333202D01*
X19833927Y-8323481D01*
X19845553Y-8314858D01*
X19857969Y-8307417D01*
X19871054Y-8301228D01*
X19884683Y-8296351D01*
X19898724Y-8292834D01*
X19913042Y-8290710D01*
X19927500Y-8290000D01*
X20272500Y-8290000D01*
X20286958Y-8290710D01*
X20286958Y-8290710D01*
G37*
D15*
G04 #@! TD*
G04 #@! TO.P,R2,1*
G04 #@! TO.N,/D2*
X20100000Y-8585000D03*
D16*
G04 #@! TO.P,J6,2*
G04 #@! TO.N,GND*
X12000000Y-69750000D03*
D17*
X12000000Y-60500000D03*
G04 #@! TO.P,J6,1*
G04 #@! TO.N,+5V*
X8000000Y-60500000D03*
D16*
X8000000Y-69750000D03*
G04 #@! TD*
D12*
G04 #@! TO.P,J7,1*
G04 #@! TO.N,GND*
X21200000Y-38600000D03*
D13*
G04 #@! TO.P,J7,2*
G04 #@! TO.N,/RX*
X18660000Y-38600000D03*
G04 #@! TO.P,J7,3*
G04 #@! TO.N,/TX*
X16120000Y-38600000D03*
G04 #@! TD*
D12*
G04 #@! TO.P,J4,1*
G04 #@! TO.N,/S2*
X5700000Y-5000000D03*
D13*
G04 #@! TO.P,J4,2*
G04 #@! TO.N,+5V*
X8240000Y-5000000D03*
G04 #@! TO.P,J4,3*
G04 #@! TO.N,+3V3*
X10780000Y-5000000D03*
G04 #@! TO.P,J4,4*
G04 #@! TO.N,/D4*
X13320000Y-5000000D03*
G04 #@! TO.P,J4,5*
G04 #@! TO.N,/D3*
X15860000Y-5000000D03*
G04 #@! TO.P,J4,6*
G04 #@! TO.N,+3V3*
X18400000Y-5000000D03*
G04 #@! TO.P,J4,7*
G04 #@! TO.N,GND*
X20940000Y-5000000D03*
G04 #@! TO.P,J4,8*
G04 #@! TO.N,+5V*
X23480000Y-5000000D03*
G04 #@! TO.P,J4,9*
G04 #@! TO.N,/D0*
X26020000Y-5000000D03*
G04 #@! TD*
D18*
G04 #@! TO.N,/S3*
X10100000Y-18720000D02*
X7700000Y-21120000D01*
X9300000Y-10400000D02*
X10100000Y-11200000D01*
X4500000Y-10400000D02*
X9300000Y-10400000D01*
X3900000Y-11000000D02*
X4500000Y-10400000D01*
X3900000Y-52000000D02*
X3900000Y-11000000D01*
X5100000Y-53200000D02*
X3900000Y-52000000D01*
X43850001Y-29550001D02*
X46000000Y-31700000D01*
X46000000Y-31700000D02*
X46000000Y-46700000D01*
X10100000Y-11200000D02*
X10100000Y-18720000D01*
X46000000Y-46700000D02*
X39500000Y-53200000D01*
X37159999Y-29550001D02*
X43850001Y-29550001D01*
X39500000Y-53200000D02*
X5100000Y-53200000D01*
D19*
X36260000Y-30450000D02*
X37159999Y-29550001D01*
D18*
G04 #@! TO.N,/A0*
X44100000Y-34700000D02*
X41120000Y-31720000D01*
X5900000Y-51200000D02*
X37800000Y-51200000D01*
X37800000Y-51200000D02*
X44100000Y-44900000D01*
X7700000Y-13500000D02*
X6050000Y-13500000D01*
X5200000Y-15200000D02*
X5200000Y-50500000D01*
X44100000Y-44900000D02*
X44100000Y-34700000D01*
X6050000Y-13500000D02*
X5350000Y-14200000D01*
X5350000Y-14200000D02*
X5350000Y-15050000D01*
X5350000Y-15050000D02*
X5200000Y-15200000D01*
X5200000Y-50500000D02*
X5900000Y-51200000D01*
D19*
X38800000Y-31720000D02*
X40100000Y-31720000D01*
D18*
X41120000Y-31720000D02*
X40100000Y-31720000D01*
G04 #@! TO.N,/D6*
X32920000Y-33820000D02*
X30200000Y-33820000D01*
X34630000Y-35530000D02*
X32920000Y-33820000D01*
D19*
X28997919Y-33820000D02*
X28900000Y-33722081D01*
X30200000Y-33820000D02*
X28997919Y-33820000D01*
X36260000Y-35530000D02*
X34630000Y-35530000D01*
D18*
G04 #@! TO.N,/D7*
X38800000Y-38500000D02*
X38800000Y-36800000D01*
X37749949Y-39550051D02*
X38800000Y-38500000D01*
X34592132Y-39550051D02*
X37749949Y-39550051D01*
X31402081Y-36360000D02*
X34592132Y-39550051D01*
X30200000Y-36360000D02*
X31402081Y-36360000D01*
D19*
X28997919Y-36360000D02*
X28900000Y-36457919D01*
X30200000Y-36360000D02*
X28997919Y-36360000D01*
D18*
G04 #@! TO.N,/CLK*
X34550000Y-31280000D02*
X36260000Y-32990000D01*
X30200000Y-31280000D02*
X34550000Y-31280000D01*
D19*
X30200000Y-31280000D02*
X29120000Y-31280000D01*
X34987208Y-32990000D02*
X34900000Y-32902792D01*
X36260000Y-32990000D02*
X34987208Y-32990000D01*
D18*
G04 #@! TO.N,GND*
X40072792Y-34260000D02*
X40112792Y-34300000D01*
X40112792Y-34300000D02*
X41700000Y-34300000D01*
X41700000Y-34300000D02*
X42100000Y-34700000D01*
X42100000Y-34700000D02*
X42100000Y-43100000D01*
X42100000Y-43100000D02*
X38680000Y-46520000D01*
X31049999Y-27890001D02*
X30200000Y-28740000D01*
X37770001Y-21169999D02*
X31049999Y-27890001D01*
X18720000Y-46520000D02*
X13600000Y-41400000D01*
X13600000Y-38973998D02*
X16373998Y-36200000D01*
X13600000Y-41400000D02*
X13600000Y-38973998D01*
X20450000Y-36200000D02*
X21200000Y-36950000D01*
X16373998Y-36200000D02*
X20450000Y-36200000D01*
D19*
X31402081Y-28740000D02*
X31442081Y-28700000D01*
X30200000Y-28740000D02*
X31402081Y-28740000D01*
X30200000Y-46520000D02*
X29200000Y-46520000D01*
D18*
X29200000Y-46520000D02*
X18720000Y-46520000D01*
D19*
X30200000Y-46520000D02*
X31400000Y-46520000D01*
D18*
X38680000Y-46520000D02*
X31400000Y-46520000D01*
X20940000Y-5000000D02*
X24340000Y-1600000D01*
X39314226Y-1600000D02*
X48900000Y-11185774D01*
X24340000Y-1600000D02*
X39314226Y-1600000D01*
X48900000Y-11185774D02*
X48900000Y-55900000D01*
X35050000Y-69750000D02*
X12000000Y-69750000D01*
X48900000Y-55900000D02*
X35050000Y-69750000D01*
D19*
X7700000Y-46520000D02*
X8680000Y-46520000D01*
X7700000Y-36360000D02*
X9140000Y-36360000D01*
X20940000Y-3797919D02*
X21000000Y-3737919D01*
X20940000Y-5000000D02*
X20940000Y-3797919D01*
X37770001Y-20304999D02*
X37770001Y-20700000D01*
X38670000Y-19405000D02*
X37770001Y-20304999D01*
D18*
X37770001Y-20700000D02*
X37770001Y-21169999D01*
D19*
X38800000Y-34260000D02*
X40072792Y-34260000D01*
X21200000Y-38600000D02*
X21200000Y-36950000D01*
X12000000Y-60500000D02*
X12000000Y-69750000D01*
D18*
G04 #@! TO.N,/S2*
X8549999Y-22810001D02*
X7700000Y-23660000D01*
X12300000Y-19060000D02*
X8549999Y-22810001D01*
X5700000Y-6650000D02*
X7950000Y-8900000D01*
X7950000Y-8900000D02*
X9800000Y-8900000D01*
X9800000Y-8900000D02*
X12400000Y-11500000D01*
X12400000Y-11500000D02*
X12300000Y-11600000D01*
X5700000Y-5000000D02*
X5700000Y-6650000D01*
X12300000Y-11600000D02*
X12300000Y-19060000D01*
D19*
X5700000Y-5000000D02*
X5700000Y-4300000D01*
G04 #@! TO.N,Net-(J2-Pad6)*
X7700000Y-26200000D02*
X8902081Y-26200000D01*
G04 #@! TO.N,Net-(J2-Pad7)*
X8902081Y-28740000D02*
X8942081Y-28700000D01*
X7700000Y-28740000D02*
X8902081Y-28740000D01*
G04 #@! TO.N,Net-(J2-Pad8)*
X7700000Y-31280000D02*
X9280000Y-31280000D01*
G04 #@! TO.N,Net-(J2-Pad9)*
X7700000Y-33820000D02*
X9180000Y-33820000D01*
D18*
G04 #@! TO.N,+3V3*
X20100000Y-7615000D02*
X23900000Y-7615000D01*
X29350001Y-25350001D02*
X30200000Y-26200000D01*
X28749999Y-24749999D02*
X29350001Y-25350001D01*
X28749999Y-23915773D02*
X28749999Y-24749999D01*
X11509999Y-6675773D02*
X28749999Y-23915773D01*
X11509999Y-5549999D02*
X11509999Y-6675773D01*
X10660000Y-4700000D02*
X11509999Y-5549999D01*
X18280000Y-5795000D02*
X20100000Y-7615000D01*
X18280000Y-4700000D02*
X18280000Y-5795000D01*
D19*
X28997919Y-26200000D02*
X28900000Y-26102081D01*
X30200000Y-26200000D02*
X28997919Y-26200000D01*
X30200000Y-49060000D02*
X29360000Y-49060000D01*
X8902081Y-38900000D02*
X9100000Y-39097919D01*
X7700000Y-38900000D02*
X8902081Y-38900000D01*
X10780000Y-3797919D02*
X11000000Y-3577919D01*
X10780000Y-5000000D02*
X10780000Y-3797919D01*
X18400000Y-3797919D02*
X18302081Y-3700000D01*
X18400000Y-5000000D02*
X18400000Y-3797919D01*
G04 #@! TO.N,/EN*
X7700000Y-41440000D02*
X9140000Y-41440000D01*
G04 #@! TO.N,/RST*
X7700000Y-43980000D02*
X8620000Y-43980000D01*
D18*
G04 #@! TO.N,+5V*
X8000000Y-49360000D02*
X7700000Y-49060000D01*
X24950001Y-3149999D02*
X39449999Y-3149999D01*
X39449999Y-3149999D02*
X40300000Y-4000000D01*
X40300000Y-15235000D02*
X38670000Y-16865000D01*
X40300000Y-4000000D02*
X40300000Y-15235000D01*
X8000000Y-58500000D02*
X8000000Y-60500000D01*
X10900000Y-55600000D02*
X8000000Y-58500000D01*
X38670000Y-16865000D02*
X39569999Y-17764999D01*
X39569999Y-17764999D02*
X39664999Y-17764999D01*
X39664999Y-17764999D02*
X47500000Y-25600000D01*
X47500000Y-25600000D02*
X47500000Y-49300000D01*
X47500000Y-49300000D02*
X41200000Y-55600000D01*
X41200000Y-55600000D02*
X10900000Y-55600000D01*
D19*
X8902081Y-49060000D02*
X8962081Y-49000000D01*
X7700000Y-49060000D02*
X8902081Y-49060000D01*
D18*
X10915783Y-7675783D02*
X10915783Y-8115783D01*
X14200000Y-32900000D02*
X11800000Y-35300000D01*
X8240000Y-5000000D02*
X10915783Y-7675783D01*
X11800000Y-46162081D02*
X8902081Y-49060000D01*
X14200000Y-11400000D02*
X14200000Y-32900000D01*
X10915783Y-8115783D02*
X14200000Y-11400000D01*
X11800000Y-35300000D02*
X11800000Y-46162081D01*
X6200000Y-60500000D02*
X2400000Y-56700000D01*
X8000000Y-60500000D02*
X6200000Y-60500000D01*
X2400000Y-56700000D02*
X2400000Y-4700000D01*
X2400000Y-4700000D02*
X4600000Y-2500000D01*
X6942081Y-2500000D02*
X8240000Y-3797919D01*
X4600000Y-2500000D02*
X6942081Y-2500000D01*
D19*
X8240000Y-5000000D02*
X8240000Y-3797919D01*
X8240000Y-5000000D02*
X8240000Y-5840000D01*
X23480000Y-4722754D02*
X23951377Y-4251377D01*
X23480000Y-5000000D02*
X23480000Y-4722754D01*
D18*
X23500000Y-4600000D02*
X23951377Y-4251377D01*
X23951377Y-4251377D02*
X24950001Y-3149999D01*
D19*
X38670000Y-16865000D02*
X39965000Y-16865000D01*
X8000000Y-60500000D02*
X8000000Y-69750000D01*
D18*
G04 #@! TO.N,/TX*
X20297919Y-43980000D02*
X20277919Y-44000000D01*
X20277919Y-44000000D02*
X18800000Y-44000000D01*
X18800000Y-44000000D02*
X16120000Y-41320000D01*
D19*
X30200000Y-43980000D02*
X28900000Y-43980000D01*
D18*
X28900000Y-43980000D02*
X20297919Y-43980000D01*
D19*
X16120000Y-41320000D02*
X16120000Y-39600000D01*
D18*
X16120000Y-39600000D02*
X16120000Y-38600000D01*
G04 #@! TO.N,/RX*
X19340000Y-41440000D02*
X18660000Y-40760000D01*
D19*
X30200000Y-41440000D02*
X28900000Y-41440000D01*
D18*
X28900000Y-41440000D02*
X19340000Y-41440000D01*
D19*
X18660000Y-38600000D02*
X18660000Y-40300000D01*
D18*
X18660000Y-40760000D02*
X18660000Y-40300000D01*
G04 #@! TO.N,/D4*
X13340000Y-6800000D02*
X13340000Y-4600000D01*
X30200000Y-23660000D02*
X13340000Y-6800000D01*
D19*
X13320000Y-5000000D02*
X13320000Y-4280000D01*
D18*
G04 #@! TO.N,/D3*
X15880000Y-6800000D02*
X15880000Y-4600000D01*
X30200000Y-21120000D02*
X15880000Y-6800000D01*
D19*
X30200000Y-21120000D02*
X31280000Y-21120000D01*
X15860000Y-3797919D02*
X15800000Y-3737919D01*
X15860000Y-5000000D02*
X15860000Y-3797919D01*
D18*
G04 #@! TO.N,/D2*
X20235010Y-8615010D02*
X20100000Y-8615010D01*
X30200000Y-18580000D02*
X20235010Y-8615010D01*
D19*
X30200000Y-18580000D02*
X31000000Y-18580000D01*
X35345000Y-18135000D02*
X34900000Y-18580000D01*
X36130000Y-18135000D02*
X35345000Y-18135000D01*
D18*
X31000000Y-18580000D02*
X34900000Y-18580000D01*
G04 #@! TO.N,/D1*
X35685000Y-16040000D02*
X36130000Y-15595000D01*
X23900000Y-10264226D02*
X23900000Y-8615010D01*
X28825775Y-15190001D02*
X23900000Y-10264226D01*
X29350001Y-15190001D02*
X28825775Y-15190001D01*
X30200000Y-16040000D02*
X29350001Y-15190001D01*
D19*
X30200000Y-16040000D02*
X31000000Y-16040000D01*
D18*
X31000000Y-16040000D02*
X35685000Y-16040000D01*
D19*
X36130000Y-15595000D02*
X35695000Y-15595000D01*
D18*
G04 #@! TO.N,/D0*
X28550000Y-13500000D02*
X30200000Y-13500000D01*
X26040000Y-10990000D02*
X28550000Y-13500000D01*
D19*
X30200000Y-13500000D02*
X30500000Y-13500000D01*
X30500000Y-13500000D02*
X31000000Y-13000000D01*
X26151385Y-5162651D02*
X26151385Y-5000000D01*
X26040000Y-5274036D02*
X26151385Y-5162651D01*
X26040000Y-7900000D02*
X26040000Y-5274036D01*
D18*
X26040000Y-7900000D02*
X26040000Y-10990000D01*
X26040000Y-4600000D02*
X26040000Y-7900000D01*
G04 #@! TD*
M02*
