M48
;DRILL file {KiCad 5.0.2-bee76a0~70~ubuntu18.04.1} date Mi 21 Aug 2019 23:32:55 CEST
;FORMAT={-:-/ absolute / inch / decimal}
FMAT,2
INCH,TZ
T1C0.0315
T2C0.0394
%
G90
G05
T1
X1.4224Y-0.614
X1.4224Y-0.714
X1.5224Y-0.664
X1.5224Y-0.764
X1.4276Y-1.1988
X1.4276Y-1.2988
X1.4276Y-1.3988
X1.5276Y-1.2488
X1.5276Y-1.3488
X1.5276Y-1.4488
T2
X0.3031Y-0.5315
X0.3031Y-0.6315
X0.3031Y-0.7315
X0.3031Y-0.8315
X0.3031Y-0.9315
X0.3031Y-1.0315
X0.3031Y-1.1315
X0.3031Y-1.2315
X0.3031Y-1.3315
X0.3031Y-1.4315
X0.3031Y-1.5315
X0.3031Y-1.6315
X0.3031Y-1.7315
X0.3031Y-1.8315
X0.3031Y-1.9315
X1.189Y-0.5315
X1.189Y-0.6315
X1.189Y-0.7315
X1.189Y-0.8315
X1.189Y-0.9315
X1.189Y-1.0315
X1.189Y-1.1315
X1.189Y-1.2315
X1.189Y-1.3315
X1.189Y-1.4315
X1.189Y-1.5315
X1.189Y-1.6315
X1.189Y-1.7315
X1.189Y-1.8315
X1.189Y-1.9315
X0.2244Y-0.1969
X0.3244Y-0.1969
X0.4244Y-0.1969
X0.5244Y-0.1969
X0.6244Y-0.1969
X0.7244Y-0.1969
X0.8244Y-0.1969
X0.9244Y-0.1969
X1.0244Y-0.1969
X0.6346Y-1.5197
X0.7346Y-1.5197
X0.8346Y-1.5197
T0
M30
