<?xml version="1.0" standalone="no"?>
<!DOCTYPE svg PUBLIC "-//W3C//DTD SVG 1.1//EN"
"http://www.w3.org/Graphics/SVG/1.1/DTD/svg11.dtd">
<svg width="204.661" height="299.15" viewBox="0 0 4263.78 6232.28" version="1.1"
xmlns="http://www.w3.org/2000/svg"
xmlns:xlink="http://www.w3.org/1999/xlink">
<circle cx="3008.19" cy="1391.39" r="31.5" style=""/>
<circle cx="3208.19" cy="1491.39" r="31.5" style=""/>
<circle cx="3008.19" cy="1591.39" r="31.5" style=""/>
<circle cx="3208.19" cy="1691.39" r="31.5" style=""/>
<circle cx="3018.59" cy="2560.99" r="31.5" style=""/>
<circle cx="3018.59" cy="2760.99" r="31.5" style=""/>
<circle cx="3018.59" cy="2960.99" r="31.5" style=""/>
<circle cx="3218.59" cy="3060.99" r="31.5" style=""/>
<circle cx="3218.59" cy="2860.99" r="31.5" style=""/>
<circle cx="3218.59" cy="2660.99" r="31.5" style=""/>
<circle cx="612.186" cy="557.186" r="39.4" style=""/>
<circle cx="812.186" cy="557.186" r="39.4" style=""/>
<circle cx="1012.19" cy="557.186" r="39.4" style=""/>
<circle cx="1212.19" cy="557.186" r="39.4" style=""/>
<circle cx="1412.19" cy="557.186" r="39.4" style=""/>
<circle cx="1612.19" cy="557.186" r="39.4" style=""/>
<circle cx="1812.19" cy="557.186" r="39.4" style=""/>
<circle cx="2012.19" cy="557.186" r="39.4" style=""/>
<circle cx="2212.19" cy="557.186" r="39.4" style=""/>
<circle cx="2541.39" cy="1226.39" r="39.4" style=""/>
<circle cx="2541.39" cy="1426.39" r="39.4" style=""/>
<circle cx="2541.39" cy="1626.39" r="39.4" style=""/>
<circle cx="2541.39" cy="1826.39" r="39.4" style=""/>
<circle cx="2541.39" cy="2026.39" r="39.4" style=""/>
<circle cx="2541.39" cy="2226.39" r="39.4" style=""/>
<circle cx="2541.39" cy="2426.39" r="39.4" style=""/>
<circle cx="2541.39" cy="2626.39" r="39.4" style=""/>
<circle cx="2541.39" cy="2826.39" r="39.4" style=""/>
<circle cx="2541.39" cy="3026.39" r="39.4" style=""/>
<circle cx="2541.39" cy="3226.39" r="39.4" style=""/>
<circle cx="2541.39" cy="3426.39" r="39.4" style=""/>
<circle cx="2541.39" cy="3626.39" r="39.4" style=""/>
<circle cx="2541.39" cy="3826.39" r="39.4" style=""/>
<circle cx="2541.39" cy="4026.39" r="39.4" style=""/>
<circle cx="1832.59" cy="3202.79" r="39.4" style=""/>
<circle cx="1632.59" cy="3202.79" r="39.4" style=""/>
<circle cx="1432.59" cy="3202.79" r="39.4" style=""/>
<circle cx="769.586" cy="4026.39" r="39.4" style=""/>
<circle cx="769.586" cy="3826.39" r="39.4" style=""/>
<circle cx="769.586" cy="3626.39" r="39.4" style=""/>
<circle cx="769.586" cy="3426.39" r="39.4" style=""/>
<circle cx="769.586" cy="3226.39" r="39.4" style=""/>
<circle cx="769.586" cy="3026.39" r="39.4" style=""/>
<circle cx="769.586" cy="2826.39" r="39.4" style=""/>
<circle cx="769.586" cy="2626.39" r="39.4" style=""/>
<circle cx="769.586" cy="2426.39" r="39.4" style=""/>
<circle cx="769.586" cy="2226.39" r="39.4" style=""/>
<circle cx="769.586" cy="2026.39" r="39.4" style=""/>
<circle cx="769.586" cy="1826.39" r="39.4" style=""/>
<circle cx="769.586" cy="1626.39" r="39.4" style=""/>
<circle cx="769.586" cy="1426.39" r="39.4" style=""/>
<circle cx="769.586" cy="1226.39" r="39.4" style=""/>
</svg>
