<?xml version="1.0" standalone="no"?>
<!DOCTYPE svg PUBLIC "-//W3C//DTD SVG 1.1//EN"
"http://www.w3.org/Graphics/SVG/1.1/DTD/svg11.dtd">
<svg width="204.661" height="299.15" viewBox="0 0 4263.78 6232.28" version="1.1"
xmlns="http://www.w3.org/2000/svg"
xmlns:xlink="http://www.w3.org/1999/xlink">
<g fill-rule="evenodd"><path d="M 836.614,1426.38 L 835.152,1440.29 L 830.828,1453.6 L 823.832,1465.72 L 814.469,1476.12 L 803.15,1484.34 L 790.367,1490.03 L 776.681,1492.94 L 762.689,1492.94 L 749.003,1490.03 L 736.22,1484.34 L 724.901,1476.12 L 715.538,1465.72 L 708.542,1453.6 L 704.218,1440.29 L 702.756,1426.38 L 704.218,1412.46 L 708.542,1399.16 L 715.538,1387.04 L 724.901,1376.64 L 736.22,1368.42 L 749.003,1362.72 L 762.689,1359.82 L 776.681,1359.82 L 790.367,1362.72 L 803.15,1368.42 L 814.469,1376.64 L 823.832,1387.04 L 830.828,1399.16 L 835.152,1412.46 L 836.614,1426.38 z " style="fill-opacity:1.000000;fill:rgb(103,198,105);stroke:rgb(0,0,0);stroke-width:2"/></g>
<g fill-rule="evenodd"><path d="M 836.614,1626.38 L 835.152,1640.29 L 830.828,1653.6 L 823.832,1665.72 L 814.469,1676.12 L 803.15,1684.34 L 790.367,1690.03 L 776.681,1692.94 L 762.689,1692.94 L 749.003,1690.03 L 736.22,1684.34 L 724.901,1676.12 L 715.538,1665.72 L 708.542,1653.6 L 704.218,1640.29 L 702.756,1626.38 L 704.218,1612.46 L 708.542,1599.16 L 715.538,1587.04 L 724.901,1576.64 L 736.22,1568.42 L 749.003,1562.72 L 762.689,1559.82 L 776.681,1559.82 L 790.367,1562.72 L 803.15,1568.42 L 814.469,1576.64 L 823.832,1587.04 L 830.828,1599.16 L 835.152,1612.46 L 836.614,1626.38 z " style="fill-opacity:1.000000;fill:rgb(115,81,255);stroke:rgb(0,0,0);stroke-width:2"/></g>
<g fill-rule="evenodd"><path d="M 2608.27,3226.38 L 2606.81,3240.29 L 2602.48,3253.6 L 2595.49,3265.72 L 2586.12,3276.12 L 2574.8,3284.34 L 2562.02,3290.03 L 2548.33,3292.94 L 2534.34,3292.94 L 2520.66,3290.03 L 2507.87,3284.34 L 2496.55,3276.12 L 2487.19,3265.72 L 2480.2,3253.6 L 2475.87,3240.29 L 2474.41,3226.38 L 2475.87,3212.46 L 2480.2,3199.16 L 2487.19,3187.04 L 2496.55,3176.64 L 2507.87,3168.42 L 2520.66,3162.72 L 2534.34,3159.82 L 2548.33,3159.82 L 2562.02,3162.72 L 2574.8,3168.42 L 2586.12,3176.64 L 2595.49,3187.04 L 2602.48,3199.16 L 2606.81,3212.46 L 2608.27,3226.38 z " style="fill-opacity:1.000000;fill:rgb(74,236,41);stroke:rgb(0,0,0);stroke-width:2"/></g>
<g fill-rule="evenodd"><path d="M 769.685,3747.64 L 846.85,3747.64 L 863.221,3749.36 L 878.877,3754.45 L 893.133,3762.68 L 905.366,3773.69 L 915.041,3787.01 L 921.737,3802.05 L 925.159,3818.15 L 925.159,3834.61 L 921.737,3850.71 L 915.041,3865.75 L 905.366,3879.07 L 893.133,3890.08 L 878.877,3898.31 L 863.221,3903.4 L 846.85,3905.12 L 769.685,3905.12 L 753.314,3903.4 L 737.659,3898.31 L 723.403,3890.08 L 711.17,3879.07 L 701.494,3865.75 L 694.799,3850.71 L 691.376,3834.61 L 691.376,3818.15 L 694.799,3802.05 L 701.494,3787.01 L 711.17,3773.69 L 723.403,3762.68 L 737.659,3754.45 L 753.314,3749.36 L 769.685,3747.64 z " style="fill-opacity:1.000000;fill:rgb(205,186,171);stroke:rgb(0,0,0);stroke-width:2"/></g>
<g fill-rule="evenodd"><path d="M 769.685,3547.64 L 842.126,3547.64 L 858.497,3549.36 L 874.152,3554.45 L 888.408,3562.68 L 900.641,3573.69 L 910.317,3587.01 L 917.012,3602.05 L 920.435,3618.15 L 920.435,3634.61 L 917.012,3650.71 L 910.317,3665.75 L 900.641,3679.07 L 888.408,3690.08 L 874.152,3698.31 L 858.497,3703.4 L 842.126,3705.12 L 769.685,3705.12 L 753.314,3703.4 L 737.659,3698.31 L 723.403,3690.08 L 711.17,3679.07 L 701.494,3665.75 L 694.799,3650.71 L 691.376,3634.61 L 691.376,3618.15 L 694.799,3602.05 L 701.494,3587.01 L 711.17,3573.69 L 723.403,3562.68 L 737.659,3554.45 L 753.314,3549.36 L 769.685,3547.64 z " style="fill-opacity:1.000000;fill:rgb(242,251,227);stroke:rgb(0,0,0);stroke-width:2"/></g>
<g fill-rule="evenodd"><path d="M 769.685,3347.64 L 883.071,3347.64 L 899.442,3349.36 L 915.097,3354.45 L 929.353,3362.68 L 941.586,3373.69 L 951.262,3387.01 L 957.957,3402.05 L 961.38,3418.15 L 961.38,3434.61 L 957.957,3450.71 L 951.262,3465.75 L 941.586,3479.07 L 929.353,3490.08 L 915.097,3498.31 L 899.442,3503.4 L 883.071,3505.12 L 769.685,3505.12 L 753.314,3503.4 L 737.659,3498.31 L 723.403,3490.08 L 711.17,3479.07 L 701.494,3465.75 L 694.799,3450.71 L 691.376,3434.61 L 691.376,3418.15 L 694.799,3402.05 L 701.494,3387.01 L 711.17,3373.69 L 723.403,3362.68 L 737.659,3354.45 L 753.314,3349.36 L 769.685,3347.64 z " style="fill-opacity:1.000000;fill:rgb(70,124,194);stroke:rgb(0,0,0);stroke-width:2"/></g>
<g fill-rule="evenodd"><path d="M 769.685,2947.64 L 883.071,2947.64 L 899.442,2949.36 L 915.097,2954.45 L 929.353,2962.68 L 941.586,2973.69 L 951.262,2987.01 L 957.957,3002.05 L 961.38,3018.15 L 961.38,3034.61 L 957.957,3050.71 L 951.262,3065.75 L 941.586,3079.07 L 929.353,3090.08 L 915.097,3098.31 L 899.442,3103.4 L 883.071,3105.12 L 769.685,3105.12 L 753.314,3103.4 L 737.659,3098.31 L 723.403,3090.08 L 711.17,3079.07 L 701.494,3065.75 L 694.799,3050.71 L 691.376,3034.61 L 691.376,3018.15 L 694.799,3002.05 L 701.494,2987.01 L 711.17,2973.69 L 723.403,2962.68 L 737.659,2954.45 L 753.314,2949.36 L 769.685,2947.64 z " style="fill-opacity:1.000000;fill:rgb(84,248,27);stroke:rgb(0,0,0);stroke-width:2"/></g>
<g fill-rule="evenodd"><path d="M 769.685,2747.64 L 886.22,2747.64 L 902.591,2749.36 L 918.247,2754.45 L 932.503,2762.68 L 944.736,2773.69 L 954.411,2787.01 L 961.107,2802.05 L 964.529,2818.15 L 964.529,2834.61 L 961.107,2850.71 L 954.411,2865.75 L 944.736,2879.07 L 932.503,2890.08 L 918.247,2898.31 L 902.591,2903.4 L 886.22,2905.12 L 769.685,2905.12 L 753.314,2903.4 L 737.659,2898.31 L 723.403,2890.08 L 711.17,2879.07 L 701.494,2865.75 L 694.799,2850.71 L 691.376,2834.61 L 691.376,2818.15 L 694.799,2802.05 L 701.494,2787.01 L 711.17,2773.69 L 723.403,2762.68 L 737.659,2754.45 L 753.314,2749.36 L 769.685,2747.64 z " style="fill-opacity:1.000000;fill:rgb(232,231,141);stroke:rgb(0,0,0);stroke-width:2"/></g>
<g fill-rule="evenodd"><path d="M 769.685,2547.64 L 894.094,2547.64 L 910.465,2549.36 L 926.121,2554.45 L 940.377,2562.68 L 952.61,2573.69 L 962.285,2587.01 L 968.981,2602.05 L 972.403,2618.15 L 972.403,2634.61 L 968.981,2650.71 L 962.285,2665.75 L 952.61,2679.07 L 940.377,2690.08 L 926.121,2698.31 L 910.465,2703.4 L 894.094,2705.12 L 769.685,2705.12 L 753.314,2703.4 L 737.659,2698.31 L 723.403,2690.08 L 711.17,2679.07 L 701.494,2665.75 L 694.799,2650.71 L 691.376,2634.61 L 691.376,2618.15 L 694.799,2602.05 L 701.494,2587.01 L 711.17,2573.69 L 723.403,2562.68 L 737.659,2554.45 L 753.314,2549.36 L 769.685,2547.64 z " style="fill-opacity:1.000000;fill:rgb(118,90,46);stroke:rgb(0,0,0);stroke-width:2"/></g>
<g fill-rule="evenodd"><path d="M 769.685,2147.64 L 864.337,2147.64 L 880.708,2149.36 L 896.364,2154.45 L 910.619,2162.68 L 922.852,2173.69 L 932.528,2187.01 L 939.223,2202.05 L 942.646,2218.15 L 942.646,2234.61 L 939.223,2250.71 L 932.528,2265.75 L 922.852,2279.07 L 910.619,2290.08 L 896.364,2298.31 L 880.708,2303.4 L 864.337,2305.12 L 769.685,2305.12 L 753.314,2303.4 L 737.659,2298.31 L 723.403,2290.08 L 711.17,2279.07 L 701.494,2265.75 L 694.799,2250.71 L 691.376,2234.61 L 691.376,2218.15 L 694.799,2202.05 L 701.494,2187.01 L 711.17,2173.69 L 723.403,2162.68 L 737.659,2154.45 L 753.314,2149.36 L 769.685,2147.64 z " style="fill-opacity:1.000000;fill:rgb(99,51,159);stroke:rgb(0,0,0);stroke-width:2"/></g>
<g fill-rule="evenodd"><path d="M 2475.2,3947.64 L 2541.34,3947.64 L 2557.71,3949.36 L 2573.37,3954.45 L 2587.62,3962.68 L 2599.85,3973.69 L 2609.53,3987.01 L 2616.22,4002.05 L 2619.65,4018.15 L 2619.65,4034.61 L 2616.22,4050.71 L 2609.53,4065.75 L 2599.85,4079.07 L 2587.62,4090.08 L 2573.37,4098.31 L 2557.71,4103.4 L 2541.34,4105.12 L 2475.2,4105.12 L 2458.83,4103.4 L 2443.17,4098.31 L 2428.91,4090.08 L 2416.68,4079.07 L 2407.01,4065.75 L 2400.31,4050.71 L 2396.89,4034.61 L 2396.89,4018.15 L 2400.31,4002.05 L 2407.01,3987.01 L 2416.68,3973.69 L 2428.91,3962.68 L 2443.17,3954.45 L 2458.83,3949.36 L 2475.2,3947.64 z " style="fill-opacity:1.000000;fill:rgb(201,154,102);stroke:rgb(0,0,0);stroke-width:2"/></g>
<g fill-rule="evenodd"><path d="M 833.479,3305.12 L 769.685,3305.12 L 753.314,3303.4 L 737.659,3298.31 L 723.403,3290.08 L 711.17,3279.07 L 701.494,3265.75 L 694.799,3250.71 L 691.376,3234.61 L 691.376,3218.15 L 694.799,3202.05 L 701.494,3187.01 L 711.17,3173.69 L 723.403,3162.68 L 737.659,3154.45 L 753.314,3149.36 L 769.685,3147.64 L 864.337,3147.64 L 879.699,3149.15 L 894.47,3153.63 L 908.083,3160.91 L 920.015,3170.7 L 935.599,3186.28 L 945.958,3199.08 L 953.432,3213.74 L 957.692,3229.64 L 958.554,3246.08 L 955.978,3262.34 L 950.079,3277.71 L 941.114,3291.51 L 929.474,3303.15 L 915.669,3312.12 L 900.301,3318.02 L 884.042,3320.59 L 867.604,3319.73 L 851.703,3315.47 L 837.036,3308 L 833.479,3305.12 z " style="fill-opacity:1.000000;fill:rgb(50,13,183);stroke:rgb(0,0,0);stroke-width:2"/></g>
<g fill-rule="evenodd"><path d="M 847.034,2347.64 L 855.169,2345.46 L 871.608,2344.6 L 887.866,2347.17 L 903.234,2353.07 L 917.039,2362.04 L 928.679,2373.68 L 937.645,2387.48 L 943.544,2402.85 L 946.119,2419.11 L 945.257,2435.55 L 940.997,2451.45 L 933.524,2466.11 L 923.164,2478.91 L 920.015,2482.06 L 908.083,2491.85 L 894.47,2499.12 L 879.699,2503.61 L 864.337,2505.12 L 769.685,2505.12 L 753.314,2503.4 L 737.659,2498.31 L 723.403,2490.08 L 711.17,2479.07 L 701.494,2465.75 L 694.799,2450.71 L 691.376,2434.61 L 691.376,2418.15 L 694.799,2402.05 L 701.494,2387.01 L 711.17,2373.69 L 723.403,2362.68 L 737.659,2354.45 L 753.314,2349.36 L 769.685,2347.64 L 847.034,2347.64 z " style="fill-opacity:1.000000;fill:rgb(49,88,163);stroke:rgb(0,0,0);stroke-width:2"/></g>
<g fill-rule="evenodd"><path d="M 2367.28,3394.88 L 2370.79,3387.01 L 2380.46,3373.69 L 2392.69,3362.68 L 2406.95,3354.45 L 2422.61,3349.36 L 2438.98,3347.64 L 2541.34,3347.64 L 2557.71,3349.36 L 2573.37,3354.45 L 2587.62,3362.68 L 2599.85,3373.69 L 2609.53,3387.01 L 2616.22,3402.05 L 2619.65,3418.15 L 2619.65,3434.61 L 2616.22,3450.71 L 2609.53,3465.75 L 2599.85,3479.07 L 2587.62,3490.08 L 2573.37,3498.31 L 2557.71,3503.4 L 2541.34,3505.12 L 2438.98,3505.12 L 2422.61,3503.4 L 2406.95,3498.31 L 2392.69,3490.08 L 2380.46,3479.07 L 2370.79,3465.75 L 2367.28,3457.87 L 1686.22,3457.87 L 1680.08,3457.27 L 1674.17,3455.48 L 1668.72,3452.57 L 1663.95,3448.65 L 1630.22,3414.92 L 1624.45,3414.92 L 1608.35,3411.5 L 1593.31,3404.81 L 1579.99,3395.13 L 1568.98,3382.9 L 1560.74,3368.64 L 1555.66,3352.99 L 1553.94,3336.61 L 1553.94,3202.76 L 1555.66,3186.38 L 1560.74,3170.73 L 1568.98,3156.47 L 1579.99,3144.24 L 1593.31,3134.56 L 1608.35,3127.87 L 1624.45,3124.45 L 1640.91,3124.45 L 1657.01,3127.87 L 1672.05,3134.56 L 1685.36,3144.24 L 1696.38,3156.47 L 1704.61,3170.73 L 1709.7,3186.38 L 1711.42,3202.76 L 1711.42,3336.61 L 1709.7,3352.99 L 1704.61,3368.64 L 1696.38,3382.9 L 1692.07,3387.68 L 1699.27,3394.88 L 2367.28,3394.88 z " style="fill-opacity:1.000000;fill:rgb(90,37,93);stroke:rgb(0,0,0);stroke-width:2"/></g>
<g fill-rule="evenodd"><path d="M 2512.81,1753.31 L 2524.97,1749.36 L 2541.34,1747.64 L 2626.38,1747.64 L 2642.75,1749.36 L 2658.4,1754.45 L 2672.66,1762.68 L 2684.89,1773.69 L 2694.57,1787.01 L 2701.26,1802.05 L 2704.69,1818.15 L 2704.69,1834.61 L 2701.26,1850.71 L 2694.57,1865.75 L 2684.89,1879.07 L 2672.66,1890.08 L 2658.4,1898.31 L 2642.75,1903.4 L 2626.38,1905.12 L 2541.34,1905.12 L 2524.97,1903.4 L 2509.31,1898.31 L 2495.06,1890.08 L 2482.82,1879.07 L 2473.15,1865.75 L 2466.45,1850.71 L 2463.03,1834.61 L 2463.03,1818.15 L 2466.45,1802.05 L 2468.3,1797.89 L 1391.51,721.09 L 1387.59,716.317 L 1384.68,710.872 L 1382.89,704.963 L 1382.28,698.819 L 1382.28,629.484 L 1372.83,625.278 L 1359.52,615.602 L 1348.5,603.369 L 1340.27,589.113 L 1335.19,573.458 L 1333.46,557.087 L 1333.46,484.041 L 1329.71,470.028 L 1328.85,453.589 L 1331.42,437.331 L 1337.32,421.963 L 1346.29,408.157 L 1357.93,396.518 L 1371.73,387.552 L 1387.1,381.653 L 1403.36,379.078 L 1419.8,379.939 L 1435.7,384.2 L 1450.37,391.673 L 1463.16,402.032 L 1467.88,406.757 L 1477.67,418.689 L 1484.95,432.302 L 1489.43,447.073 L 1490.94,462.435 L 1490.94,557.087 L 1489.22,573.458 L 1484.14,589.113 L 1475.91,603.369 L 1464.89,615.602 L 1451.57,625.278 L 1445.28,628.082 L 1445.28,685.773 L 2512.81,1753.31 z " style="fill-opacity:1.000000;fill:rgb(5,23,88);stroke:rgb(0,0,0);stroke-width:2"/></g>
<g fill-rule="evenodd"><path d="M 2512.81,1553.31 L 2524.97,1549.36 L 2541.34,1547.64 L 2604.33,1547.64 L 2620.7,1549.36 L 2636.36,1554.45 L 2650.61,1562.68 L 2662.85,1573.69 L 2672.52,1587.01 L 2676.03,1594.88 L 2839.58,1594.88 L 2845.38,1583.49 L 2855.74,1570.7 L 2890.78,1535.66 L 2902.71,1525.87 L 2916.32,1518.59 L 2931.1,1514.11 L 2946.46,1512.6 L 3008.27,1512.6 L 3024.64,1514.32 L 3040.29,1519.41 L 3054.55,1527.64 L 3066.78,1538.65 L 3076.46,1551.97 L 3083.15,1567.01 L 3086.58,1583.11 L 3086.58,1599.57 L 3083.15,1615.67 L 3076.46,1630.71 L 3066.78,1644.03 L 3054.55,1655.04 L 3040.29,1663.27 L 3024.64,1668.36 L 3008.27,1670.08 L 2979.07,1670.08 L 2967.1,1682.06 L 2954.3,1692.42 L 2939.64,1699.89 L 2923.73,1704.15 L 2907.3,1705.01 L 2891.04,1702.44 L 2875.67,1696.54 L 2861.86,1687.57 L 2850.22,1675.93 L 2841.26,1662.13 L 2839.63,1657.87 L 2676.03,1657.87 L 2672.52,1665.75 L 2662.85,1679.07 L 2650.61,1690.08 L 2636.36,1698.31 L 2620.7,1703.4 L 2604.33,1705.12 L 2541.34,1705.12 L 2524.97,1703.4 L 2509.31,1698.31 L 2495.06,1690.08 L 2482.82,1679.07 L 2473.15,1665.75 L 2466.45,1650.71 L 2463.03,1634.61 L 2463.03,1618.15 L 2466.45,1602.05 L 2468.3,1597.89 L 1743.36,872.945 L 1739.51,872.541 L 1733.25,870.506 L 1727.55,867.214 L 1722.66,862.808 L 1718.79,857.481 L 1716.11,851.466 L 1714.74,845.025 L 1714.74,838.441 L 1716.11,832 L 1718.79,825.985 L 1722.66,820.658 L 1727.55,816.252 L 1733.25,812.96 L 1739.51,810.925 L 1746.06,810.237 L 1756.69,810.237 L 1762.84,810.842 L 1768.75,812.635 L 1774.19,815.545 L 1778.96,819.462 L 2512.81,1553.31 z " style="fill-opacity:1.000000;fill:rgb(233,94,212);stroke:rgb(0,0,0);stroke-width:2"/></g>
<g fill-rule="evenodd"><path d="M 1088.75,574.917 L 1091.96,578.123 L 1095.87,582.895 L 1098.78,588.341 L 1100.58,594.249 L 1101.18,600.394 L 1101.18,675.991 L 2449.44,2024.25 L 2453.35,2029.02 L 2456.26,2034.46 L 2458.06,2040.37 L 2458.66,2046.52 L 2458.66,2099.16 L 2507.14,2147.64 L 2541.34,2147.64 L 2557.71,2149.36 L 2573.37,2154.45 L 2587.62,2162.68 L 2599.85,2173.69 L 2609.53,2187.01 L 2616.22,2202.05 L 2619.65,2218.15 L 2619.65,2234.61 L 2616.22,2250.71 L 2609.53,2265.75 L 2599.85,2279.07 L 2587.62,2290.08 L 2573.37,2298.31 L 2557.71,2303.4 L 2541.34,2305.12 L 2446.69,2305.12 L 2431.33,2303.61 L 2416.55,2299.12 L 2402.94,2291.85 L 2391.01,2282.06 L 2383.3,2274.35 L 2372.94,2261.55 L 2365.47,2246.89 L 2361.21,2230.99 L 2360.34,2214.55 L 2362.92,2198.29 L 2368.82,2182.92 L 2377.78,2169.12 L 2389.42,2157.48 L 2403.23,2148.51 L 2414.57,2144.16 L 2404.89,2134.48 L 2400.98,2129.7 L 2398.07,2124.26 L 2396.27,2118.35 L 2395.67,2112.2 L 2395.67,2059.56 L 1047.41,711.308 L 1043.5,706.536 L 1040.59,701.09 L 1038.79,695.182 L 1038.19,689.037 L 1038.19,631.237 L 1036.54,631.973 L 1020.44,635.395 L 1003.97,635.395 L 987.873,631.973 L 972.835,625.278 L 959.517,615.602 L 948.503,603.369 L 940.272,589.113 L 935.185,573.458 L 933.465,557.087 L 933.465,462.435 L 934.978,447.073 L 939.458,432.302 L 946.735,418.689 L 956.527,406.757 L 973.85,389.434 L 986.643,379.075 L 1001.31,371.601 L 1017.21,367.341 L 1033.65,366.479 L 1049.91,369.055 L 1065.27,374.954 L 1079.08,383.919 L 1090.72,395.559 L 1099.69,409.364 L 1105.58,424.732 L 1108.16,440.991 L 1107.3,457.429 L 1103.04,473.33 L 1095.56,487.997 L 1090.94,493.702 L 1090.94,557.087 L 1089.22,573.458 L 1088.75,574.917 z " style="fill-opacity:1.000000;fill:rgb(171,178,205);stroke:rgb(0,0,0);stroke-width:2"/></g>
<g fill-rule="evenodd"><path d="M 1652.34,624.723 L 1759.11,731.496 L 2045.28,731.496 L 2051.82,732.184 L 2058.09,734.219 L 2063.79,737.511 L 2068.68,741.917 L 2072.55,747.244 L 2075.23,753.259 L 2076.6,759.7 L 2076.6,766.284 L 2075.23,772.725 L 2072.55,778.74 L 2068.68,784.067 L 2063.79,788.473 L 2058.09,791.765 L 2051.82,793.8 L 2045.28,794.488 L 1746.06,794.488 L 1739.92,793.883 L 1734.01,792.091 L 1728.56,789.18 L 1723.79,785.263 L 1580.48,641.956 L 1576.57,637.183 L 1573.66,631.738 L 1571.87,625.83 L 1571.73,624.477 L 1559.52,615.602 L 1548.5,603.369 L 1540.27,589.113 L 1535.19,573.458 L 1533.46,557.087 L 1533.46,487.81 L 1530.98,482.942 L 1526.72,467.042 L 1525.86,450.603 L 1528.44,434.345 L 1534.34,418.977 L 1543.3,405.172 L 1554.94,393.532 L 1568.75,384.566 L 1584.12,378.667 L 1600.37,376.092 L 1616.81,376.954 L 1632.71,381.214 L 1647.38,388.687 L 1660.17,399.047 L 1667.88,406.757 L 1677.67,418.689 L 1684.95,432.302 L 1689.43,447.073 L 1690.94,462.435 L 1690.94,557.087 L 1689.22,573.458 L 1684.14,589.113 L 1675.91,603.369 L 1664.89,615.602 L 1652.34,624.723 z " style="fill-opacity:1.000000;fill:rgb(198,155,180);stroke:rgb(0,0,0);stroke-width:2"/></g>
<g fill-rule="evenodd"><path d="M 2663.54,2348.72 L 2674.89,2353.07 L 2688.69,2362.04 L 2700.33,2373.68 L 2709.3,2387.48 L 2715.2,2402.85 L 2717.77,2419.11 L 2716.91,2435.55 L 2712.65,2451.45 L 2705.18,2466.11 L 2694.82,2478.91 L 2691.67,2482.06 L 2679.74,2491.85 L 2666.12,2499.12 L 2651.35,2503.61 L 2635.99,2505.12 L 2541.34,2505.12 L 2524.97,2503.4 L 2509.31,2498.31 L 2495.06,2490.08 L 2482.82,2479.07 L 2473.15,2465.75 L 2466.45,2450.71 L 2463.03,2434.61 L 2463.03,2418.15 L 2466.45,2402.05 L 2473.15,2387.01 L 2482.82,2373.69 L 2495.06,2362.68 L 2509.31,2354.45 L 2524.97,2349.36 L 2541.34,2347.64 L 2575.54,2347.64 L 3078.38,1844.79 L 3073.7,1839.59 L 3065.47,1825.33 L 3060.38,1809.68 L 3058.66,1793.31 L 3058.66,1762.2 L 3060.17,1746.84 L 3064.66,1732.07 L 3071.93,1718.46 L 3081.72,1706.53 L 3152.59,1635.66 L 3165.38,1625.3 L 3180.05,1617.83 L 3195.95,1613.57 L 3212.39,1612.71 L 3228.65,1615.28 L 3244.01,1621.18 L 3257.82,1630.15 L 3269.46,1641.79 L 3278.43,1655.59 L 3284.32,1670.96 L 3286.9,1687.22 L 3286.04,1703.66 L 3281.78,1719.56 L 3274.3,1734.22 L 3263.95,1747.02 L 3215.96,1795 L 3214.42,1809.68 L 3209.33,1825.33 L 3201.1,1839.59 L 3190.09,1851.82 L 3176.77,1861.5 L 3161.73,1868.19 L 3145.63,1871.62 L 3140.64,1871.62 L 2663.54,2348.72 z " style="fill-opacity:1.000000;fill:rgb(84,17,14);stroke:rgb(0,0,0);stroke-width:2"/></g>
<g fill-rule="evenodd"><path d="M 2613.04,2857.87 L 2609.53,2865.75 L 2599.85,2879.07 L 2587.62,2890.08 L 2573.37,2898.31 L 2557.71,2903.4 L 2541.34,2905.12 L 2446.69,2905.12 L 2431.33,2903.61 L 2416.55,2899.12 L 2402.94,2891.85 L 2391.01,2882.06 L 2383.3,2874.35 L 2372.94,2861.55 L 2365.47,2846.89 L 2361.21,2830.99 L 2360.34,2814.55 L 2362.92,2798.29 L 2368.82,2782.92 L 2377.78,2769.12 L 2389.42,2757.48 L 2403.23,2748.51 L 2418.6,2742.61 L 2434.86,2740.04 L 2451.29,2740.9 L 2467.19,2745.16 L 2472.06,2747.64 L 2541.34,2747.64 L 2557.71,2749.36 L 2573.37,2754.45 L 2587.62,2762.68 L 2599.85,2773.69 L 2609.53,2787.01 L 2613.04,2794.88 L 2755.51,2794.88 L 2761.66,2795.49 L 2767.56,2797.28 L 2773.01,2800.19 L 2777.78,2804.11 L 2861.63,2887.95 L 2873.79,2884 L 2890.16,2882.28 L 3018.5,2882.28 L 3034.87,2884 L 3050.53,2889.09 L 3064.79,2897.32 L 3077.02,2908.34 L 3086.69,2921.65 L 3093.39,2936.69 L 3096.81,2952.79 L 3096.81,2969.25 L 3093.39,2985.36 L 3086.69,3000.39 L 3077.02,3013.71 L 3064.79,3024.73 L 3050.53,3032.96 L 3034.87,3038.04 L 3018.5,3039.76 L 2890.16,3039.76 L 2873.79,3038.04 L 2858.13,3032.96 L 2843.88,3024.73 L 2831.64,3013.71 L 2821.97,3000.39 L 2815.27,2985.36 L 2811.85,2969.25 L 2811.85,2952.79 L 2815.27,2936.69 L 2817.12,2932.53 L 2742.47,2857.87 L 2613.04,2857.87 z " style="fill-opacity:1.000000;fill:rgb(130,116,65);stroke:rgb(0,0,0);stroke-width:2"/></g>
<g fill-rule="evenodd"><path d="M 2613.04,2657.87 L 2609.53,2665.75 L 2599.85,2679.07 L 2587.62,2690.08 L 2573.37,2698.31 L 2557.71,2703.4 L 2541.34,2705.12 L 2456.3,2705.12 L 2439.93,2703.4 L 2424.27,2698.31 L 2410.02,2690.08 L 2397.78,2679.07 L 2388.11,2665.75 L 2381.41,2650.71 L 2377.99,2634.61 L 2377.99,2618.15 L 2381.41,2602.05 L 2388.11,2587.01 L 2397.78,2573.69 L 2410.02,2562.68 L 2424.27,2554.45 L 2439.93,2549.36 L 2456.3,2547.64 L 2541.34,2547.64 L 2557.71,2549.36 L 2573.37,2554.45 L 2587.62,2562.68 L 2599.85,2573.69 L 2609.53,2587.01 L 2613.04,2594.88 L 2883.86,2594.88 L 2890,2595.49 L 2895.91,2597.28 L 2901.36,2600.19 L 2906.13,2604.11 L 2984.31,2682.28 L 3018.5,2682.28 L 3034.87,2684 L 3050.53,2689.09 L 3064.79,2697.32 L 3077.02,2708.34 L 3086.69,2721.65 L 3093.39,2736.69 L 3096.81,2752.79 L 3096.81,2769.25 L 3093.39,2785.36 L 3086.69,2800.39 L 3077.02,2813.71 L 3064.79,2824.73 L 3050.53,2832.96 L 3034.87,2838.04 L 3018.5,2839.76 L 2918.28,2839.76 L 2902.92,2838.25 L 2888.15,2833.77 L 2874.54,2826.49 L 2862.61,2816.7 L 2855.74,2809.83 L 2845.38,2797.04 L 2837.91,2782.37 L 2833.65,2766.47 L 2832.79,2750.04 L 2835.36,2733.78 L 2841.26,2718.41 L 2850.22,2704.6 L 2861.86,2692.96 L 2875.67,2684 L 2891.04,2678.1 L 2870.81,2657.87 L 2613.04,2657.87 z " style="fill-opacity:1.000000;fill:rgb(33,61,220);stroke:rgb(0,0,0);stroke-width:2"/></g>
<g fill-rule="evenodd"><path d="M 714.567,4895.67 L 714.567,4690.94 L 827.505,4690.94 L 999.382,4519.07 L 1004.16,4515.15 L 1009.6,4512.24 L 1015.51,4510.45 L 1021.65,4509.84 L 3394.43,4509.84 L 3872.05,4032.23 L 3872.05,2192.18 L 3272.95,1593.08 L 3267.08,1591.3 L 3261.64,1588.39 L 3256.86,1584.48 L 3242.47,1570.08 L 3208.27,1570.08 L 3191.9,1568.36 L 3176.24,1563.27 L 3161.99,1555.04 L 3149.75,1544.03 L 3140.08,1530.71 L 3133.38,1515.67 L 3129.96,1499.57 L 3129.96,1483.11 L 3133.38,1467.01 L 3140.08,1451.97 L 3149.75,1438.65 L 3161.99,1427.64 L 3176.24,1419.41 L 3191.9,1414.32 L 3208.27,1412.6 L 3242.47,1412.6 L 3305.12,1349.95 L 3305.12,491.392 L 3256.64,442.913 L 2141.91,442.913 L 2120.9,466.088 L 2125.38,477.76 L 2127.95,494.019 L 2127.09,510.458 L 2122.83,526.358 L 2115.36,541.025 L 2105,553.818 L 2089.68,569.138 L 2089.22,573.458 L 2084.14,589.113 L 2075.91,603.369 L 2064.89,615.602 L 2051.57,625.278 L 2036.54,631.973 L 2020.44,635.395 L 2003.97,635.395 L 1987.87,631.973 L 1972.83,625.278 L 1959.52,615.602 L 1948.5,603.369 L 1940.27,589.113 L 1935.19,573.458 L 1933.46,557.087 L 1933.46,535.256 L 1934.98,519.895 L 1939.46,505.124 L 1946.73,491.511 L 1956.53,479.579 L 1993.64,442.462 L 2006.44,432.103 L 2021.1,424.63 L 2037,420.369 L 2053.44,419.508 L 2069.7,422.083 L 2074.2,423.81 L 2104.62,390.261 L 2109.51,385.888 L 2115.19,382.622 L 2121.43,380.604 L 2127.95,379.921 L 3269.68,379.921 L 3275.83,380.526 L 3281.74,382.319 L 3287.18,385.229 L 3291.96,389.146 L 3358.89,456.075 L 3362.8,460.848 L 3365.71,466.293 L 3367.51,472.202 L 3368.11,478.346 L 3368.11,1362.99 L 3367.51,1369.14 L 3365.71,1375.05 L 3362.8,1380.49 L 3358.89,1385.26 L 3329.04,1415.11 L 3342.26,1419.41 L 3356.52,1427.64 L 3368.75,1438.65 L 3378.43,1451.97 L 3385.12,1467.01 L 3388.55,1483.11 L 3388.55,1499.57 L 3385.12,1515.67 L 3378.43,1530.71 L 3368.75,1544.03 L 3356.52,1555.04 L 3342.26,1563.27 L 3334.68,1565.73 L 3925.81,2156.86 L 3929.73,2161.64 L 3932.64,2167.08 L 3934.43,2172.99 L 3935.04,2179.13 L 3935.04,4045.28 L 3934.43,4051.42 L 3932.64,4057.33 L 3929.73,4062.77 L 3925.81,4067.55 L 3429.75,4563.61 L 3424.98,4567.53 L 3419.53,4570.44 L 3413.62,4572.23 L 3407.48,4572.83 L 1034.7,4572.83 L 872.048,4735.49 L 872.047,5793.31 L 714.567,5793.31 L 714.567,4958.66 L 651.575,4958.66 L 645.43,4958.06 L 639.522,4956.26 L 634.077,4953.35 L 629.304,4949.44 L 330.091,4650.22 L 326.174,4645.45 L 323.264,4640.01 L 321.471,4634.1 L 320.866,4627.95 L 320.866,533.465 L 321.471,527.32 L 323.264,521.412 L 326.174,515.966 L 330.091,511.193 L 503.319,337.965 L 508.092,334.048 L 513.538,331.138 L 519.446,329.345 L 525.591,328.74 L 710.006,328.74 L 716.151,329.345 L 722.059,331.138 L 727.505,334.048 L 732.277,337.965 L 783.713,389.4 L 787.873,387.548 L 803.974,384.126 L 820.435,384.126 L 836.537,387.548 L 851.575,394.244 L 864.892,403.919 L 875.907,416.152 L 884.137,430.408 L 889.224,446.064 L 890.945,462.435 L 890.945,591.285 L 1045.17,745.507 L 1049.08,750.28 L 1051.99,755.725 L 1053.79,761.634 L 1054.39,767.778 L 1054.39,789.378 L 1303.77,1038.75 L 1307.68,1043.53 L 1310.59,1048.97 L 1312.39,1054.88 L 1312.99,1061.02 L 1312.99,2753.94 L 1312.39,2760.08 L 1310.59,2765.99 L 1307.68,2771.44 L 1303.77,2776.21 L 1124.02,2955.96 L 1124.02,3798.2 L 1123.41,3804.34 L 1121.62,3810.25 L 1118.71,3815.69 L 1114.79,3820.47 L 942.03,3993.23 L 945.119,4001.27 L 947.694,4017.53 L 946.832,4033.97 L 942.572,4049.87 L 935.099,4064.54 L 924.739,4077.33 L 920.015,4082.06 L 908.083,4091.85 L 894.47,4099.12 L 879.699,4103.61 L 864.337,4105.12 L 769.685,4105.12 L 753.314,4103.4 L 737.659,4098.31 L 723.403,4090.08 L 711.17,4079.07 L 701.494,4065.75 L 694.799,4050.71 L 691.376,4034.61 L 691.376,4018.15 L 694.799,4002.05 L 701.494,3987.01 L 711.17,3973.69 L 723.403,3962.68 L 737.659,3954.45 L 753.314,3949.36 L 769.685,3947.64 L 842.731,3947.64 L 856.744,3943.88 L 873.182,3943.02 L 889.441,3945.6 L 897.488,3948.69 L 1061.02,3785.15 L 1061.02,2942.91 L 1061.63,2936.77 L 1063.42,2930.86 L 1066.33,2925.42 L 1070.25,2920.64 L 1250,2740.89 L 1250,1074.07 L 1000.63,824.695 L 996.708,819.922 L 993.798,814.477 L 992.005,808.568 L 991.4,802.424 L 991.4,780.824 L 877.437,666.861 L 875.907,669.511 L 864.892,681.744 L 851.575,691.419 L 836.537,698.115 L 820.435,701.537 L 803.974,701.537 L 787.873,698.115 L 772.835,691.419 L 759.517,681.744 L 748.503,669.511 L 740.272,655.255 L 735.185,639.599 L 733.465,623.228 L 733.465,462.435 L 735.185,446.064 L 739.135,433.907 L 696.96,391.732 L 538.636,391.732 L 383.858,546.51 L 383.858,4614.91 L 664.621,4895.67 L 714.567,4895.67 z " style="fill-opacity:1.000000;fill:rgb(135,112,233);stroke:rgb(0,0,0);stroke-width:2"/></g>
<g fill-rule="evenodd"><path d="M 1492.98,3231.44 L 1496.38,3235.21 L 1504.61,3249.47 L 1509.7,3265.13 L 1511.42,3281.5 L 1511.42,3416.93 L 1509.7,3433.3 L 1505.75,3445.46 L 1656.75,3596.46 L 1752.31,3596.46 L 1755.5,3595.49 L 1761.65,3594.88 L 2367.28,3594.88 L 2370.79,3587.01 L 2380.46,3573.69 L 2392.69,3562.68 L 2406.95,3554.45 L 2422.61,3549.36 L 2438.98,3547.64 L 2541.34,3547.64 L 2557.71,3549.36 L 2573.37,3554.45 L 2587.62,3562.68 L 2599.85,3573.69 L 2609.53,3587.01 L 2616.22,3602.05 L 2619.65,3618.15 L 2619.65,3634.61 L 2616.22,3650.71 L 2609.53,3665.75 L 2599.85,3679.07 L 2587.62,3690.08 L 2573.37,3698.31 L 2557.71,3703.4 L 2541.34,3705.12 L 2438.98,3705.12 L 2422.61,3703.4 L 2406.95,3698.31 L 2392.69,3690.08 L 2380.46,3679.07 L 2370.79,3665.75 L 2367.28,3657.87 L 1769.41,3657.87 L 1766.22,3658.84 L 1760.07,3659.45 L 1643.7,3659.45 L 1637.56,3658.84 L 1631.65,3657.05 L 1626.2,3654.14 L 1621.43,3650.22 L 1461.17,3489.96 L 1457.01,3491.82 L 1440.91,3495.24 L 1424.45,3495.24 L 1408.35,3491.82 L 1393.31,3485.12 L 1379.99,3475.44 L 1368.98,3463.21 L 1360.74,3448.96 L 1355.66,3433.3 L 1353.94,3416.93 L 1353.94,3281.5 L 1355.66,3265.13 L 1360.74,3249.47 L 1368.98,3235.21 L 1372.38,3231.44 L 1371.53,3229.98 L 1367.21,3216.67 L 1365.75,3202.76 L 1367.21,3188.84 L 1371.53,3175.53 L 1378.53,3163.42 L 1387.89,3153.02 L 1399.21,3144.79 L 1411.99,3139.1 L 1425.68,3136.19 L 1439.67,3136.19 L 1453.36,3139.1 L 1466.14,3144.79 L 1477.46,3153.02 L 1486.82,3163.42 L 1493.82,3175.53 L 1498.14,3188.84 L 1499.61,3202.76 L 1498.14,3216.67 L 1493.82,3229.98 L 1492.98,3231.44 z " style="fill-opacity:1.000000;fill:rgb(62,161,65);stroke:rgb(0,0,0);stroke-width:2"/></g>
<g fill-rule="evenodd"><path d="M 1765.75,3243.45 L 1760.74,3234.78 L 1755.66,3219.13 L 1753.94,3202.76 L 1753.94,3072.83 L 1755.66,3056.46 L 1759.29,3045.28 L 1465.72,3045.28 L 1265.75,3245.25 L 1265.75,3410.18 L 1650.45,3794.88 L 2390.9,3794.88 L 2394.41,3787.01 L 2404.08,3773.69 L 2416.32,3762.68 L 2430.57,3754.45 L 2446.23,3749.36 L 2462.6,3747.64 L 2635.83,3747.64 L 2652.2,3749.36 L 2667.85,3754.45 L 2682.11,3762.68 L 2694.34,3773.69 L 2704.02,3787.01 L 2707.52,3794.88 L 3196.01,3794.88 L 3446.85,3544.04 L 3446.85,2908.72 L 3433.8,2895.67 L 3389.02,2895.67 L 3386.91,2900.39 L 3377.24,2913.71 L 3365.01,2924.73 L 3350.75,2932.96 L 3335.09,2938.04 L 3318.72,2939.76 L 3218.5,2939.76 L 3202.13,2938.04 L 3186.48,2932.96 L 3172.22,2924.73 L 3159.99,2913.71 L 3150.31,2900.39 L 3143.62,2885.36 L 3140.2,2869.25 L 3140.2,2852.79 L 3143.62,2836.69 L 3150.31,2821.65 L 3159.99,2808.34 L 3172.22,2797.32 L 3186.48,2789.09 L 3202.13,2784 L 3218.5,2782.28 L 3318.72,2782.28 L 3335.09,2784 L 3350.75,2789.09 L 3365.01,2797.32 L 3377.24,2808.34 L 3386.91,2821.65 L 3391.82,2832.68 L 3446.85,2832.68 L 3452.99,2833.28 L 3458.9,2835.07 L 3464.35,2837.99 L 3469.12,2841.9 L 3500.62,2873.4 L 3504.53,2878.17 L 3507.45,2883.62 L 3509.24,2889.52 L 3509.84,2895.67 L 3509.84,3557.09 L 3509.24,3563.23 L 3507.45,3569.14 L 3504.53,3574.58 L 3500.62,3579.36 L 3231.33,3848.65 L 3226.55,3852.57 L 3221.11,3855.48 L 3215.2,3857.27 L 3209.06,3857.87 L 2707.52,3857.87 L 2704.02,3865.75 L 2694.34,3879.07 L 2682.11,3890.08 L 2667.85,3898.31 L 2652.2,3903.4 L 2635.83,3905.12 L 2462.6,3905.12 L 2446.23,3903.4 L 2430.57,3898.31 L 2416.32,3890.08 L 2404.08,3879.07 L 2394.41,3865.75 L 2390.9,3857.87 L 1637.4,3857.87 L 1631.26,3857.27 L 1625.35,3855.48 L 1619.9,3852.57 L 1615.13,3848.65 L 1211.98,3445.5 L 1208.06,3440.73 L 1205.15,3435.28 L 1203.36,3429.37 L 1202.76,3423.23 L 1202.76,3232.2 L 1203.36,3226.06 L 1205.15,3220.15 L 1208.06,3214.71 L 1211.98,3209.93 L 1430.41,2991.51 L 1435.18,2987.59 L 1440.62,2984.68 L 1446.53,2982.89 L 1452.68,2982.28 L 1773.62,2982.28 L 1779.77,2982.89 L 1785.68,2984.68 L 1791.12,2987.59 L 1795.89,2991.51 L 1804.19,2999.8 L 1808.35,2997.95 L 1824.45,2994.53 L 1840.91,2994.53 L 1857.01,2997.95 L 1872.05,3004.64 L 1885.36,3014.32 L 1896.38,3026.55 L 1904.61,3040.81 L 1909.7,3056.46 L 1911.42,3072.83 L 1911.42,3202.76 L 1909.7,3219.13 L 1904.61,3234.78 L 1899.61,3243.45 L 1899.61,3269.69 L 1873.78,3269.68 L 1872.05,3270.95 L 1857.01,3277.64 L 1840.91,3281.06 L 1824.45,3281.06 L 1808.35,3277.64 L 1793.31,3270.95 L 1791.57,3269.68 L 1765.75,3269.69 L 1765.75,3243.45 z " style="fill-opacity:1.000000;fill:rgb(225,252,103);stroke:rgb(0,0,0);stroke-width:2"/></g>
<g fill-rule="evenodd"><path d="M 1187.01,5687.01 L 1187.01,5793.31 L 1029.53,5793.31 L 1029.53,4690.94 L 1187.01,4690.94 L 1187.01,5624.02 L 2910.18,5624.02 L 3982.28,4551.91 L 3982.28,1057.2 L 3245.95,320.866 L 2092.97,320.866 L 1890.94,522.889 L 1890.94,557.087 L 1889.22,573.458 L 1884.14,589.113 L 1875.91,603.369 L 1864.89,615.602 L 1851.57,625.278 L 1836.54,631.973 L 1820.44,635.395 L 1803.97,635.395 L 1787.87,631.973 L 1772.83,625.278 L 1759.52,615.602 L 1748.5,603.369 L 1740.27,589.113 L 1735.19,573.458 L 1733.46,557.087 L 1733.46,462.435 L 1734.98,447.073 L 1739.46,432.302 L 1746.73,418.689 L 1756.53,406.757 L 1761.25,402.032 L 1774.04,391.673 L 1788.71,384.2 L 1804.61,379.939 L 1821.05,379.078 L 1837.31,381.653 L 1852.68,387.552 L 1866.48,396.518 L 1878.12,408.157 L 1887.09,421.963 L 1891.44,433.307 L 2057.65,267.099 L 2062.42,263.182 L 2067.87,260.272 L 2073.78,258.479 L 2079.92,257.874 L 3258.99,257.874 L 3265.14,258.479 L 3271.05,260.272 L 3276.49,263.182 L 3281.27,267.099 L 4036.05,1021.88 L 4039.97,1026.66 L 4042.88,1032.1 L 4044.67,1038.01 L 4045.28,1044.16 L 4045.28,4564.96 L 4044.67,4571.11 L 4042.88,4577.01 L 4039.97,4582.46 L 4036.05,4587.23 L 2945.5,5677.78 L 2940.73,5681.7 L 2935.28,5684.61 L 2929.37,5686.4 L 2923.23,5687.01 L 1187.01,5687.01 z " style="fill-opacity:1.000000;fill:rgb(62,1,126);stroke:rgb(0,0,0);stroke-width:2"/></g>
<g fill-rule="evenodd"><path d="M 2521.95,1962.45 L 2534.34,1959.82 L 2548.33,1959.82 L 2562.02,1962.72 L 2574.8,1968.42 L 2586.12,1976.64 L 2595.49,1987.04 L 2602.48,1999.16 L 2606.81,2012.46 L 2608.27,2026.38 L 2606.81,2040.29 L 2602.48,2053.6 L 2595.49,2065.72 L 2586.12,2076.12 L 2574.8,2084.34 L 2562.02,2090.03 L 2548.33,2092.94 L 2534.34,2092.94 L 2520.66,2090.03 L 2507.87,2084.34 L 2496.55,2076.12 L 2487.19,2065.72 L 2480.2,2053.6 L 2475.87,2040.29 L 2474.41,2026.38 L 2475.87,2012.46 L 2477.59,2007.17 L 1191.51,721.09 L 1187.59,716.317 L 1184.68,710.872 L 1182.89,704.963 L 1182.28,698.819 L 1182.28,629.484 L 1172.83,625.278 L 1159.52,615.602 L 1148.5,603.369 L 1140.27,589.113 L 1135.19,573.458 L 1133.46,557.087 L 1133.46,500.394 L 1135.19,484.023 L 1140.27,468.367 L 1148.5,454.111 L 1159.52,441.878 L 1172.83,432.203 L 1187.87,425.507 L 1203.97,422.085 L 1220.44,422.085 L 1236.54,425.507 L 1251.57,432.203 L 1264.89,441.878 L 1275.91,454.111 L 1284.14,468.367 L 1289.22,484.023 L 1290.94,500.394 L 1290.94,557.087 L 1289.22,573.458 L 1284.14,589.113 L 1275.91,603.369 L 1264.89,615.602 L 1251.57,625.278 L 1245.28,628.082 L 1245.28,685.772 L 2521.95,1962.45 z " style="fill-opacity:1.000000;fill:rgb(151,234,220);stroke:rgb(0,0,0);stroke-width:2"/></g>
<g fill-rule="evenodd"><path d="M 833.433,1807.17 L 835.152,1812.46 L 836.614,1826.38 L 835.152,1840.29 L 830.828,1853.6 L 823.832,1865.72 L 814.469,1876.12 L 803.15,1884.34 L 790.367,1890.03 L 776.681,1892.94 L 762.689,1892.94 L 749.003,1890.03 L 736.22,1884.34 L 724.901,1876.12 L 715.538,1865.72 L 708.542,1853.6 L 704.218,1840.29 L 702.756,1826.38 L 704.218,1812.46 L 708.542,1799.16 L 715.538,1787.04 L 724.901,1776.64 L 736.22,1768.42 L 749.003,1762.72 L 762.689,1759.82 L 776.681,1759.82 L 789.072,1762.45 L 927.165,1624.36 L 927.165,1058.32 L 882.623,1013.78 L 530.762,1013.78 L 501.969,1042.57 L 501.969,4244.83 L 578.007,4320.87 L 3260.58,4320.87 L 3753.94,3827.51 L 3753.94,2672.49 L 3603.1,2521.65 L 3161.21,2521.65 L 3155.41,2533.04 L 3145.05,2545.84 L 3074.18,2616.7 L 3061.39,2627.06 L 3046.72,2634.53 L 3030.82,2638.79 L 3014.38,2639.66 L 2998.12,2637.08 L 2982.76,2631.18 L 2968.95,2622.22 L 2957.31,2610.58 L 2948.35,2596.77 L 2942.45,2581.4 L 2939.87,2565.14 L 2940.73,2548.71 L 2944.99,2532.81 L 2952.47,2518.14 L 2962.83,2505.35 L 3033.69,2434.48 L 3046.49,2424.12 L 3061.15,2416.65 L 3077.05,2412.39 L 3093.49,2411.53 L 3109.75,2414.1 L 3125.12,2420 L 3138.92,2428.96 L 3150.56,2440.6 L 3159.53,2454.41 L 3161.16,2458.66 L 3616.14,2458.66 L 3622.29,2459.27 L 3628.19,2461.06 L 3633.64,2463.97 L 3638.41,2467.89 L 3807.7,2637.18 L 3811.62,2641.95 L 3814.53,2647.4 L 3816.32,2653.3 L 3816.93,2659.45 L 3816.93,3840.55 L 3816.32,3846.7 L 3814.53,3852.6 L 3811.62,3858.05 L 3807.7,3862.82 L 3295.89,4374.63 L 3291.12,4378.55 L 3285.68,4381.46 L 3279.77,4383.25 L 3273.62,4383.86 L 564.961,4383.86 L 558.816,4383.25 L 552.908,4381.46 L 547.462,4378.55 L 542.69,4374.63 L 448.201,4280.15 L 444.284,4275.37 L 441.374,4269.93 L 439.582,4264.02 L 438.976,4257.87 L 438.976,1029.53 L 439.582,1023.38 L 441.374,1017.47 L 444.284,1012.03 L 448.201,1007.26 L 495.445,960.012 L 500.218,956.095 L 505.664,953.185 L 511.572,951.393 L 517.717,950.787 L 895.669,950.787 L 901.814,951.393 L 907.722,953.185 L 913.168,956.095 L 917.94,960.012 L 980.932,1023 L 984.849,1027.78 L 987.76,1033.22 L 989.552,1039.13 L 990.157,1045.28 L 990.157,1637.4 L 989.552,1643.55 L 987.76,1649.45 L 984.849,1654.9 L 980.932,1659.67 L 833.433,1807.17 z " style="fill-opacity:1.000000;fill:rgb(107,150,143);stroke:rgb(0,0,0);stroke-width:2"/></g>
<g fill-rule="evenodd"><path d="M 833.433,2007.17 L 835.152,2012.46 L 836.614,2026.38 L 835.152,2040.29 L 830.828,2053.6 L 823.832,2065.72 L 814.469,2076.12 L 803.15,2084.34 L 790.367,2090.03 L 776.681,2092.94 L 762.689,2092.94 L 749.003,2090.03 L 736.22,2084.34 L 724.901,2076.12 L 715.538,2065.72 L 708.542,2053.6 L 704.218,2040.29 L 702.756,2026.38 L 704.218,2012.46 L 708.542,1999.16 L 715.538,1987.04 L 724.901,1976.64 L 736.22,1968.42 L 749.003,1962.72 L 762.689,1959.82 L 776.681,1959.82 L 789.072,1962.45 L 1100.39,1651.13 L 1100.39,1076.77 L 1100.64,1074.31 L 921.993,895.669 L 789.37,895.669 L 783.226,895.064 L 777.317,893.272 L 771.872,890.361 L 767.099,886.444 L 589.934,709.279 L 586.017,704.506 L 583.106,699.061 L 581.314,693.152 L 580.709,687.008 L 580.709,628.783 L 572.835,625.278 L 571.098,624.016 L 545.276,624.016 L 545.275,597.779 L 540.272,589.113 L 535.185,573.458 L 533.465,557.087 L 533.465,501.969 L 535.185,485.598 L 540.272,469.942 L 548.503,455.686 L 559.517,443.453 L 572.835,433.778 L 587.873,427.082 L 603.974,423.66 L 620.435,423.66 L 636.537,427.082 L 651.575,433.778 L 664.892,443.453 L 675.907,455.686 L 684.137,469.942 L 689.224,485.598 L 690.945,501.969 L 690.945,557.087 L 689.224,573.458 L 684.137,589.113 L 679.134,597.779 L 679.134,624.016 L 653.312,624.016 L 651.575,625.278 L 643.7,628.784 L 643.701,673.962 L 802.416,832.677 L 935.039,832.677 L 941.184,833.282 L 947.092,835.075 L 952.538,837.985 L 957.31,841.902 L 1162.03,1046.63 L 1165.95,1051.4 L 1168.86,1056.84 L 1170.65,1062.75 L 1171.26,1068.9 L 1170.65,1075.04 L 1168.86,1080.95 L 1165.95,1086.4 L 1163.39,1089.52 L 1163.39,1664.17 L 1162.78,1670.32 L 1160.99,1676.23 L 1158.08,1681.67 L 1154.16,1686.44 L 833.433,2007.17 z " style="fill-opacity:1.000000;fill:rgb(56,92,42);stroke:rgb(0,0,0);stroke-width:2"/></g>
<g fill-rule="evenodd"><path d="M 702.756,1194.88 L 702.756,1159.45 L 836.614,1159.45 L 836.614,1293.31 L 702.756,1293.31 L 702.756,1257.87 L 652.81,1257.87 L 616.142,1294.54 L 616.142,1348.43 L 615.537,1354.57 L 613.744,1360.48 L 610.834,1365.92 L 606.917,1370.7 L 604.331,1373.28 L 604.331,4126.72 L 640.999,4163.39 L 3126.72,4163.39 L 3604.33,3685.77 L 3604.33,2908.72 L 3391.2,2695.58 L 3389.06,2700.39 L 3379.38,2713.71 L 3367.15,2724.73 L 3352.89,2732.96 L 3337.24,2738.04 L 3320.87,2739.76 L 3218.5,2739.76 L 3202.13,2738.04 L 3186.48,2732.96 L 3172.22,2724.73 L 3159.99,2713.71 L 3150.31,2700.39 L 3143.62,2685.36 L 3140.2,2669.25 L 3140.2,2652.79 L 3143.62,2636.69 L 3150.31,2621.65 L 3159.99,2608.34 L 3172.22,2597.32 L 3186.48,2589.09 L 3202.13,2584 L 3218.5,2582.28 L 3320.87,2582.28 L 3337.24,2584 L 3352.89,2589.09 L 3367.15,2597.32 L 3379.38,2608.34 L 3389.06,2621.65 L 3392.56,2629.53 L 3401.18,2629.53 L 3407.33,2630.13 L 3413.23,2631.93 L 3418.68,2634.84 L 3423.45,2638.75 L 3658.1,2873.4 L 3662.01,2878.17 L 3664.93,2883.62 L 3666.72,2889.52 L 3667.32,2895.67 L 3667.32,3698.82 L 3666.72,3704.96 L 3664.93,3710.87 L 3662.01,3716.32 L 3658.1,3721.09 L 3162.03,4217.15 L 3157.26,4221.07 L 3151.82,4223.98 L 3145.91,4225.77 L 3139.76,4226.38 L 627.953,4226.38 L 621.808,4225.77 L 615.9,4223.98 L 610.454,4221.07 L 605.682,4217.15 L 550.564,4162.03 L 546.647,4157.26 L 543.736,4151.82 L 541.944,4145.91 L 541.339,4139.76 L 541.339,1360.24 L 541.944,1354.09 L 543.736,1348.18 L 546.647,1342.74 L 550.564,1337.97 L 553.149,1335.38 L 553.15,1281.5 L 553.755,1275.35 L 555.547,1269.44 L 558.458,1264 L 562.375,1259.22 L 617.493,1204.11 L 622.266,1200.19 L 627.711,1197.28 L 633.619,1195.49 L 639.764,1194.88 L 702.756,1194.88 z " style="fill-opacity:1.000000;fill:rgb(236,176,59);stroke:rgb(0,0,0);stroke-width:2"/></g>
<g fill-rule="evenodd"><path d="M 2608.27,1292.08 L 2608.27,1293.31 L 2605.98,1293.31 L 2595.09,1299.12 L 2580.32,1303.61 L 2564.96,1305.12 L 2541.34,1305.12 L 2524.97,1303.4 L 2509.31,1298.31 L 2500.65,1293.31 L 2474.41,1293.31 L 2474.41,1267.49 L 2473.15,1265.75 L 2469.64,1257.87 L 2411.42,1257.87 L 2405.27,1257.27 L 2399.36,1255.48 L 2393.92,1252.57 L 2389.15,1248.65 L 2191.51,1051.01 L 2187.59,1046.24 L 2184.68,1040.79 L 2182.89,1034.88 L 2182.28,1028.74 L 2182.28,857.13 L 2174.41,853.624 L 2161.09,843.948 L 2150.08,831.715 L 2141.85,817.46 L 2136.76,801.804 L 2135.04,785.433 L 2135.04,578.664 L 2136.55,563.303 L 2141.03,548.532 L 2146.03,539.191 L 2150.62,525.06 L 2158.85,510.804 L 2169.86,498.571 L 2183.18,488.896 L 2198.22,482.2 L 2214.32,478.778 L 2230.78,478.778 L 2246.88,482.2 L 2261.92,488.896 L 2275.24,498.571 L 2286.25,510.804 L 2294.48,525.06 L 2299.57,540.716 L 2301.29,557.087 L 2301.29,569.894 L 2299.78,585.255 L 2295.3,600.026 L 2292.52,605.221 L 2292.52,785.433 L 2290.8,801.804 L 2285.71,817.46 L 2277.48,831.715 L 2266.47,843.948 L 2253.15,853.624 L 2245.28,857.13 L 2245.28,1015.69 L 2424.46,1194.88 L 2469.64,1194.88 L 2473.15,1187.01 L 2474.41,1185.27 L 2474.41,1159.45 L 2500.65,1159.45 L 2509.31,1154.45 L 2524.97,1149.36 L 2531.29,1148.69 L 2548.65,1131.33 L 2561.45,1120.97 L 2576.11,1113.5 L 2592.01,1109.24 L 2608.45,1108.38 L 2624.71,1110.95 L 2640.08,1116.85 L 2653.88,1125.82 L 2665.52,1137.46 L 2674.49,1151.26 L 2680.39,1166.63 L 2682.96,1182.89 L 2682.1,1199.33 L 2677.84,1215.23 L 2670.37,1229.89 L 2660.01,1242.69 L 2620.64,1282.06 L 2608.27,1292.08 z " style="fill-opacity:1.000000;fill:rgb(251,50,175);stroke:rgb(0,0,0);stroke-width:2"/></g>
<g fill-rule="evenodd"><path d="M 2937.4,1322.05 L 2937.4,1320.47 L 2940.14,1320.47 L 2941.99,1319.41 L 2957.64,1314.32 L 2974.02,1312.6 L 3008.27,1312.6 L 3024.64,1314.32 L 3040.29,1319.41 L 3042.14,1320.47 L 3079.13,1320.47 L 3079.13,1357.98 L 3083.15,1367.01 L 3086.58,1383.11 L 3086.58,1399.57 L 3083.15,1415.67 L 3079.13,1424.7 L 3079.13,1462.2 L 3042.14,1462.2 L 3040.29,1463.27 L 3024.64,1468.36 L 3008.27,1470.08 L 2974.02,1470.08 L 2957.64,1468.36 L 2941.99,1463.27 L 2940.14,1462.2 L 2937.4,1462.2 L 2937.4,1460.62 L 2932.64,1457.87 L 2676.03,1457.87 L 2672.52,1465.75 L 2662.85,1479.07 L 2650.61,1490.08 L 2636.36,1498.31 L 2620.7,1503.4 L 2604.33,1505.12 L 2541.34,1505.12 L 2524.97,1503.4 L 2509.31,1498.31 L 2495.06,1490.08 L 2482.82,1479.07 L 2473.15,1465.75 L 2466.45,1450.71 L 2463.03,1434.61 L 2463.03,1418.15 L 2466.45,1402.05 L 2468.3,1397.89 L 2461.36,1390.94 L 2433.13,1390.94 L 2426.99,1390.34 L 2421.08,1388.55 L 2415.63,1385.64 L 2410.86,1381.72 L 2023,993.864 L 2019.09,989.091 L 2016.18,983.646 L 2014.38,977.737 L 2013.78,971.593 L 2013.78,841.733 L 2014.47,835.185 L 2016.5,828.922 L 2019.79,823.22 L 2024.2,818.327 L 2029.53,814.457 L 2035.54,811.779 L 2041.98,810.41 L 2048.57,810.41 L 2055.01,811.779 L 2061.02,814.457 L 2066.35,818.327 L 2070.76,823.22 L 2074.05,828.922 L 2076.08,835.185 L 2076.77,841.733 L 2076.77,958.547 L 2446.18,1327.95 L 2474.41,1327.95 L 2480.55,1328.56 L 2486.46,1330.35 L 2491.91,1333.26 L 2496.68,1337.18 L 2512.81,1353.31 L 2524.97,1349.36 L 2541.34,1347.64 L 2604.33,1347.64 L 2620.7,1349.36 L 2636.36,1354.45 L 2650.61,1362.68 L 2662.85,1373.69 L 2672.52,1387.01 L 2676.03,1394.88 L 2895.71,1394.88 L 2895.71,1383.11 L 2899.13,1367.01 L 2905.82,1351.97 L 2915.5,1338.65 L 2927.73,1327.64 L 2937.4,1322.05 z " style="fill-opacity:1.000000;fill:rgb(60,84,236);stroke:rgb(0,0,0);stroke-width:2"/></g>
<g fill-rule="evenodd"><path d="M 3187.01,3131.89 L 3147.64,3131.89 L 3147.64,2990.16 L 3289.37,2990.16 L 3289.37,3131.89 L 3250,3131.89 L 3250,3194.88 L 3249.39,3201.03 L 3247.6,3206.93 L 3244.69,3212.38 L 3240.78,3217.15 L 3158.09,3299.83 L 3153.32,3303.75 L 3147.88,3306.66 L 3141.97,3308.45 L 3135.82,3309.06 L 2887.18,3309.06 L 2881.03,3308.45 L 2875.12,3306.66 L 2869.68,3303.75 L 2864.9,3299.83 L 2622.94,3057.87 L 2613.04,3057.87 L 2609.53,3065.75 L 2599.85,3079.07 L 2587.62,3090.08 L 2573.37,3098.31 L 2557.71,3103.4 L 2541.34,3105.12 L 2472.06,3105.12 L 2467.19,3107.6 L 2451.29,3111.86 L 2434.86,3112.72 L 2418.6,3110.15 L 2403.23,3104.25 L 2389.42,3095.28 L 2377.78,3083.64 L 2368.82,3069.84 L 2362.92,3054.47 L 2360.34,3038.21 L 2361.21,3021.77 L 2365.47,3005.87 L 2372.94,2991.2 L 2383.3,2978.41 L 2391.01,2970.7 L 2402.94,2960.91 L 2416.55,2953.63 L 2431.33,2949.15 L 2446.69,2947.64 L 2541.34,2947.64 L 2557.71,2949.36 L 2573.37,2954.45 L 2587.62,2962.68 L 2599.85,2973.69 L 2609.53,2987.01 L 2613.04,2994.88 L 2635.99,2994.88 L 2642.14,2995.49 L 2648.04,2997.28 L 2653.49,3000.19 L 2658.26,3004.11 L 2900.22,3246.07 L 3122.78,3246.07 L 3187.01,3181.84 L 3187.01,3131.89 z " style="fill-opacity:1.000000;fill:rgb(24,219,92);stroke:rgb(0,0,0);stroke-width:2"/></g>
</svg>
