<?xml version="1.0" standalone="no"?>
<!DOCTYPE svg PUBLIC "-//W3C//DTD SVG 1.1//EN"
"http://www.w3.org/Graphics/SVG/1.1/DTD/svg11.dtd">
<svg width="204.661" height="299.15" viewBox="0 0 4263.78 6232.28" version="1.1"
xmlns="http://www.w3.org/2000/svg"
xmlns:xlink="http://www.w3.org/1999/xlink">
<polyline points="84.6458,6068.9 84.6458,163.386 86.1598,148.026 90.6398,133.254 97.9158,119.642 107.71,107.71 119.642,97.9158 133.254,90.6398 148.026,86.1598 163.386,84.6458 4100.39,84.6458 4115.75,86.1598 4130.53,90.6398 4144.14,97.9158 4156.07,107.71 4165.86,119.642 4173.14,133.254 4177.62,148.026 4179.13,163.386 4179.13,6068.9 4177.62,6084.26 4173.14,6099.03 4165.86,6112.64 4156.07,6124.57 4144.14,6134.37 4130.53,6141.64 4115.75,6146.12 4100.39,6147.64 163.386,6147.64 148.026,6146.12 133.254,6141.64 119.642,6134.37 107.71,6124.57 97.9158,6112.64 90.6398,6099.03 86.1598,6084.26 84.6458,6068.9" style="stroke:rgb(103,198,105);stroke-width:157.480315;fill:none;stroke-opacity:0.5;stroke-linecap:round;stroke-linejoin:round;;fill:none"/>
<polyline points="84.6458,6068.9 84.6458,163.386 86.1598,148.026 90.6398,133.254 97.9158,119.642 107.71,107.71 119.642,97.9158 133.254,90.6398 148.026,86.1598 163.386,84.6458 4100.39,84.6458 4115.75,86.1598 4130.53,90.6398 4144.14,97.9158 4156.07,107.71 4165.86,119.642 4173.14,133.254 4177.62,148.026 4179.13,163.386 4179.13,6068.9 4177.62,6084.26 4173.14,6099.03 4165.86,6112.64 4156.07,6124.57 4144.14,6134.37 4130.53,6141.64 4115.75,6146.12 4100.39,6147.64 163.386,6147.64 148.026,6146.12 133.254,6141.64 119.642,6134.37 107.71,6124.57 97.9158,6112.64 90.6398,6099.03 86.1598,6084.26 84.6458,6068.9" style="stroke:rgb(0,0,0);stroke-width:1px;fill:none;stroke-opacity:1;stroke-linecap:round;stroke-linejoin:round;;fill:none"/>
</svg>
