<?xml version="1.0" standalone="no"?>
<!DOCTYPE svg PUBLIC "-//W3C//DTD SVG 1.1//EN"
"http://www.w3.org/Graphics/SVG/1.1/DTD/svg11.dtd">
<svg width="204.661" height="299.15" viewBox="0 0 4263.78 6232.28" version="1.1"
xmlns="http://www.w3.org/2000/svg"
xmlns:xlink="http://www.w3.org/1999/xlink">
<polyline points="702.756,1426.38 704.218,1440.29 708.542,1453.6 715.538,1465.72 724.9,1476.12 736.22,1484.34 749.002,1490.03 762.688,1492.94 776.68,1492.94 790.366,1490.03 803.148,1484.34 814.468,1476.12 823.832,1465.72 830.828,1453.6 835.15,1440.29 836.614,1426.38 835.15,1412.46 830.828,1399.15 823.832,1387.04 814.468,1376.64 803.148,1368.41 790.366,1362.72 776.68,1359.81 762.688,1359.81 749.002,1362.72 736.22,1368.41 724.9,1376.64 715.538,1387.04 708.542,1399.15 704.218,1412.46 702.756,1426.38" style="stroke:rgb(103,198,105);stroke-width:0.000000;fill:none;stroke-opacity:0.5;stroke-linecap:round;stroke-linejoin:round;;fill:none"/>
<polyline points="702.756,1426.38 704.218,1440.29 708.542,1453.6 715.538,1465.72 724.9,1476.12 736.22,1484.34 749.002,1490.03 762.688,1492.94 776.68,1492.94 790.366,1490.03 803.148,1484.34 814.468,1476.12 823.832,1465.72 830.828,1453.6 835.15,1440.29 836.614,1426.38 835.15,1412.46 830.828,1399.15 823.832,1387.04 814.468,1376.64 803.148,1368.41 790.366,1362.72 776.68,1359.81 762.688,1359.81 749.002,1362.72 736.22,1368.41 724.9,1376.64 715.538,1387.04 708.542,1399.15 704.218,1412.46 702.756,1426.38" style="stroke:rgb(0,0,0);stroke-width:1px;fill:none;stroke-opacity:1;stroke-linecap:round;stroke-linejoin:round;;fill:none"/>
<polyline points="702.756,1626.38 704.218,1640.29 708.542,1653.6 715.538,1665.72 724.9,1676.12 736.22,1684.34 749.002,1690.03 762.688,1692.94 776.68,1692.94 790.366,1690.03 803.148,1684.34 814.468,1676.12 823.832,1665.72 830.828,1653.6 835.15,1640.29 836.614,1626.38 835.15,1612.46 830.828,1599.15 823.832,1587.04 814.468,1576.64 803.148,1568.41 790.366,1562.72 776.68,1559.81 762.688,1559.81 749.002,1562.72 736.22,1568.41 724.9,1576.64 715.538,1587.04 708.542,1599.15 704.218,1612.46 702.756,1626.38" style="stroke:rgb(115,81,255);stroke-width:0.000000;fill:none;stroke-opacity:0.5;stroke-linecap:round;stroke-linejoin:round;;fill:none"/>
<polyline points="702.756,1626.38 704.218,1640.29 708.542,1653.6 715.538,1665.72 724.9,1676.12 736.22,1684.34 749.002,1690.03 762.688,1692.94 776.68,1692.94 790.366,1690.03 803.148,1684.34 814.468,1676.12 823.832,1665.72 830.828,1653.6 835.15,1640.29 836.614,1626.38 835.15,1612.46 830.828,1599.15 823.832,1587.04 814.468,1576.64 803.148,1568.41 790.366,1562.72 776.68,1559.81 762.688,1559.81 749.002,1562.72 736.22,1568.41 724.9,1576.64 715.538,1587.04 708.542,1599.15 704.218,1612.46 702.756,1626.38" style="stroke:rgb(0,0,0);stroke-width:1px;fill:none;stroke-opacity:1;stroke-linecap:round;stroke-linejoin:round;;fill:none"/>
<polyline points="2474.41,3226.38 2475.87,3240.29 2480.19,3253.6 2487.19,3265.72 2496.55,3276.12 2507.87,3284.34 2520.66,3290.03 2534.34,3292.94 2548.33,3292.94 2562.02,3290.03 2574.8,3284.34 2586.12,3276.12 2595.48,3265.72 2602.48,3253.6 2606.8,3240.29 2608.27,3226.38 2606.8,3212.46 2602.48,3199.15 2595.48,3187.04 2586.12,3176.64 2574.8,3168.41 2562.02,3162.72 2548.33,3159.81 2534.34,3159.81 2520.66,3162.72 2507.87,3168.41 2496.55,3176.64 2487.19,3187.04 2480.19,3199.15 2475.87,3212.46 2474.41,3226.38" style="stroke:rgb(74,236,41);stroke-width:0.000000;fill:none;stroke-opacity:0.5;stroke-linecap:round;stroke-linejoin:round;;fill:none"/>
<polyline points="2474.41,3226.38 2475.87,3240.29 2480.19,3253.6 2487.19,3265.72 2496.55,3276.12 2507.87,3284.34 2520.66,3290.03 2534.34,3292.94 2548.33,3292.94 2562.02,3290.03 2574.8,3284.34 2586.12,3276.12 2595.48,3265.72 2602.48,3253.6 2606.8,3240.29 2608.27,3226.38 2606.8,3212.46 2602.48,3199.15 2595.48,3187.04 2586.12,3176.64 2574.8,3168.41 2562.02,3162.72 2548.33,3159.81 2534.34,3159.81 2520.66,3162.72 2507.87,3168.41 2496.55,3176.64 2487.19,3187.04 2480.19,3199.15 2475.87,3212.46 2474.41,3226.38" style="stroke:rgb(0,0,0);stroke-width:1px;fill:none;stroke-opacity:1;stroke-linecap:round;stroke-linejoin:round;;fill:none"/>
<polyline points="691.376,3834.61 691.376,3818.15 694.798,3802.05 701.494,3787.01 711.168,3773.69 723.402,3762.68 737.658,3754.44 753.314,3749.36 769.684,3747.64 846.85,3747.64 863.22,3749.36 878.876,3754.44 893.132,3762.68 905.364,3773.69 915.04,3787.01 921.736,3802.05 925.158,3818.15 925.158,3834.61 921.736,3850.71 915.04,3865.75 905.364,3879.06 893.132,3890.08 878.876,3898.31 863.22,3903.4 846.85,3905.12 769.684,3905.12 753.314,3903.4 737.658,3898.31 723.402,3890.08 711.168,3879.06 701.494,3865.75 694.798,3850.71 691.376,3834.61" style="stroke:rgb(205,186,171);stroke-width:0.000000;fill:none;stroke-opacity:0.5;stroke-linecap:round;stroke-linejoin:round;;fill:none"/>
<polyline points="691.376,3834.61 691.376,3818.15 694.798,3802.05 701.494,3787.01 711.168,3773.69 723.402,3762.68 737.658,3754.44 753.314,3749.36 769.684,3747.64 846.85,3747.64 863.22,3749.36 878.876,3754.44 893.132,3762.68 905.364,3773.69 915.04,3787.01 921.736,3802.05 925.158,3818.15 925.158,3834.61 921.736,3850.71 915.04,3865.75 905.364,3879.06 893.132,3890.08 878.876,3898.31 863.22,3903.4 846.85,3905.12 769.684,3905.12 753.314,3903.4 737.658,3898.31 723.402,3890.08 711.168,3879.06 701.494,3865.75 694.798,3850.71 691.376,3834.61" style="stroke:rgb(0,0,0);stroke-width:1px;fill:none;stroke-opacity:1;stroke-linecap:round;stroke-linejoin:round;;fill:none"/>
<polyline points="691.376,3634.61 691.376,3618.15 694.798,3602.05 701.494,3587.01 711.168,3573.69 723.402,3562.68 737.658,3554.44 753.314,3549.36 769.684,3547.64 842.126,3547.64 858.496,3549.36 874.152,3554.44 888.408,3562.68 900.64,3573.69 910.316,3587.01 917.012,3602.05 920.434,3618.15 920.434,3634.61 917.012,3650.71 910.316,3665.75 900.64,3679.06 888.408,3690.08 874.152,3698.31 858.496,3703.4 842.126,3705.12 769.684,3705.12 753.314,3703.4 737.658,3698.31 723.402,3690.08 711.168,3679.06 701.494,3665.75 694.798,3650.71 691.376,3634.61" style="stroke:rgb(242,251,227);stroke-width:0.000000;fill:none;stroke-opacity:0.5;stroke-linecap:round;stroke-linejoin:round;;fill:none"/>
<polyline points="691.376,3634.61 691.376,3618.15 694.798,3602.05 701.494,3587.01 711.168,3573.69 723.402,3562.68 737.658,3554.44 753.314,3549.36 769.684,3547.64 842.126,3547.64 858.496,3549.36 874.152,3554.44 888.408,3562.68 900.64,3573.69 910.316,3587.01 917.012,3602.05 920.434,3618.15 920.434,3634.61 917.012,3650.71 910.316,3665.75 900.64,3679.06 888.408,3690.08 874.152,3698.31 858.496,3703.4 842.126,3705.12 769.684,3705.12 753.314,3703.4 737.658,3698.31 723.402,3690.08 711.168,3679.06 701.494,3665.75 694.798,3650.71 691.376,3634.61" style="stroke:rgb(0,0,0);stroke-width:1px;fill:none;stroke-opacity:1;stroke-linecap:round;stroke-linejoin:round;;fill:none"/>
<polyline points="691.376,3434.61 691.376,3418.15 694.798,3402.05 701.494,3387.01 711.168,3373.69 723.402,3362.68 737.658,3354.44 753.314,3349.36 769.684,3347.64 883.07,3347.64 899.442,3349.36 915.096,3354.44 929.352,3362.68 941.586,3373.69 951.262,3387.01 957.956,3402.05 961.378,3418.15 961.378,3434.61 957.956,3450.71 951.262,3465.75 941.586,3479.06 929.352,3490.08 915.096,3498.31 899.442,3503.4 883.07,3505.12 769.684,3505.12 753.314,3503.4 737.658,3498.31 723.402,3490.08 711.168,3479.06 701.494,3465.75 694.798,3450.71 691.376,3434.61" style="stroke:rgb(70,124,194);stroke-width:0.000000;fill:none;stroke-opacity:0.5;stroke-linecap:round;stroke-linejoin:round;;fill:none"/>
<polyline points="691.376,3434.61 691.376,3418.15 694.798,3402.05 701.494,3387.01 711.168,3373.69 723.402,3362.68 737.658,3354.44 753.314,3349.36 769.684,3347.64 883.07,3347.64 899.442,3349.36 915.096,3354.44 929.352,3362.68 941.586,3373.69 951.262,3387.01 957.956,3402.05 961.378,3418.15 961.378,3434.61 957.956,3450.71 951.262,3465.75 941.586,3479.06 929.352,3490.08 915.096,3498.31 899.442,3503.4 883.07,3505.12 769.684,3505.12 753.314,3503.4 737.658,3498.31 723.402,3490.08 711.168,3479.06 701.494,3465.75 694.798,3450.71 691.376,3434.61" style="stroke:rgb(0,0,0);stroke-width:1px;fill:none;stroke-opacity:1;stroke-linecap:round;stroke-linejoin:round;;fill:none"/>
<polyline points="691.376,3034.61 691.376,3018.15 694.798,3002.05 701.494,2987.01 711.168,2973.69 723.402,2962.68 737.658,2954.44 753.314,2949.36 769.684,2947.64 883.07,2947.64 899.442,2949.36 915.096,2954.44 929.352,2962.68 941.586,2973.69 951.262,2987.01 957.956,3002.05 961.378,3018.15 961.378,3034.61 957.956,3050.71 951.262,3065.75 941.586,3079.06 929.352,3090.08 915.096,3098.31 899.442,3103.4 883.07,3105.12 769.684,3105.12 753.314,3103.4 737.658,3098.31 723.402,3090.08 711.168,3079.06 701.494,3065.75 694.798,3050.71 691.376,3034.61" style="stroke:rgb(84,248,27);stroke-width:0.000000;fill:none;stroke-opacity:0.5;stroke-linecap:round;stroke-linejoin:round;;fill:none"/>
<polyline points="691.376,3034.61 691.376,3018.15 694.798,3002.05 701.494,2987.01 711.168,2973.69 723.402,2962.68 737.658,2954.44 753.314,2949.36 769.684,2947.64 883.07,2947.64 899.442,2949.36 915.096,2954.44 929.352,2962.68 941.586,2973.69 951.262,2987.01 957.956,3002.05 961.378,3018.15 961.378,3034.61 957.956,3050.71 951.262,3065.75 941.586,3079.06 929.352,3090.08 915.096,3098.31 899.442,3103.4 883.07,3105.12 769.684,3105.12 753.314,3103.4 737.658,3098.31 723.402,3090.08 711.168,3079.06 701.494,3065.75 694.798,3050.71 691.376,3034.61" style="stroke:rgb(0,0,0);stroke-width:1px;fill:none;stroke-opacity:1;stroke-linecap:round;stroke-linejoin:round;;fill:none"/>
<polyline points="691.376,2834.61 691.376,2818.15 694.798,2802.05 701.494,2787.01 711.168,2773.69 723.402,2762.68 737.658,2754.44 753.314,2749.36 769.684,2747.64 886.22,2747.64 902.59,2749.36 918.246,2754.44 932.502,2762.68 944.734,2773.69 954.41,2787.01 961.106,2802.05 964.528,2818.15 964.528,2834.61 961.106,2850.71 954.41,2865.75 944.734,2879.06 932.502,2890.08 918.246,2898.31 902.59,2903.4 886.22,2905.12 769.684,2905.12 753.314,2903.4 737.658,2898.31 723.402,2890.08 711.168,2879.06 701.494,2865.75 694.798,2850.71 691.376,2834.61" style="stroke:rgb(232,231,141);stroke-width:0.000000;fill:none;stroke-opacity:0.5;stroke-linecap:round;stroke-linejoin:round;;fill:none"/>
<polyline points="691.376,2834.61 691.376,2818.15 694.798,2802.05 701.494,2787.01 711.168,2773.69 723.402,2762.68 737.658,2754.44 753.314,2749.36 769.684,2747.64 886.22,2747.64 902.59,2749.36 918.246,2754.44 932.502,2762.68 944.734,2773.69 954.41,2787.01 961.106,2802.05 964.528,2818.15 964.528,2834.61 961.106,2850.71 954.41,2865.75 944.734,2879.06 932.502,2890.08 918.246,2898.31 902.59,2903.4 886.22,2905.12 769.684,2905.12 753.314,2903.4 737.658,2898.31 723.402,2890.08 711.168,2879.06 701.494,2865.75 694.798,2850.71 691.376,2834.61" style="stroke:rgb(0,0,0);stroke-width:1px;fill:none;stroke-opacity:1;stroke-linecap:round;stroke-linejoin:round;;fill:none"/>
<polyline points="691.376,2634.61 691.376,2618.15 694.798,2602.05 701.494,2587.01 711.168,2573.69 723.402,2562.68 737.658,2554.44 753.314,2549.36 769.684,2547.64 894.094,2547.64 910.464,2549.36 926.12,2554.44 940.376,2562.68 952.61,2573.69 962.284,2587.01 968.98,2602.05 972.402,2618.15 972.402,2634.61 968.98,2650.71 962.284,2665.75 952.61,2679.06 940.376,2690.08 926.12,2698.31 910.464,2703.4 894.094,2705.12 769.684,2705.12 753.314,2703.4 737.658,2698.31 723.402,2690.08 711.168,2679.06 701.494,2665.75 694.798,2650.71 691.376,2634.61" style="stroke:rgb(118,90,46);stroke-width:0.000000;fill:none;stroke-opacity:0.5;stroke-linecap:round;stroke-linejoin:round;;fill:none"/>
<polyline points="691.376,2634.61 691.376,2618.15 694.798,2602.05 701.494,2587.01 711.168,2573.69 723.402,2562.68 737.658,2554.44 753.314,2549.36 769.684,2547.64 894.094,2547.64 910.464,2549.36 926.12,2554.44 940.376,2562.68 952.61,2573.69 962.284,2587.01 968.98,2602.05 972.402,2618.15 972.402,2634.61 968.98,2650.71 962.284,2665.75 952.61,2679.06 940.376,2690.08 926.12,2698.31 910.464,2703.4 894.094,2705.12 769.684,2705.12 753.314,2703.4 737.658,2698.31 723.402,2690.08 711.168,2679.06 701.494,2665.75 694.798,2650.71 691.376,2634.61" style="stroke:rgb(0,0,0);stroke-width:1px;fill:none;stroke-opacity:1;stroke-linecap:round;stroke-linejoin:round;;fill:none"/>
<polyline points="691.376,2234.61 691.376,2218.15 694.798,2202.05 701.494,2187.01 711.168,2173.69 723.402,2162.68 737.658,2154.44 753.314,2149.36 769.684,2147.64 864.336,2147.64 880.708,2149.36 896.362,2154.44 910.618,2162.68 922.852,2173.69 932.528,2187.01 939.222,2202.05 942.646,2218.15 942.646,2234.61 939.222,2250.71 932.528,2265.75 922.852,2279.06 910.618,2290.08 896.362,2298.31 880.708,2303.4 864.336,2305.12 769.684,2305.12 753.314,2303.4 737.658,2298.31 723.402,2290.08 711.168,2279.06 701.494,2265.75 694.798,2250.71 691.376,2234.61" style="stroke:rgb(99,51,159);stroke-width:0.000000;fill:none;stroke-opacity:0.5;stroke-linecap:round;stroke-linejoin:round;;fill:none"/>
<polyline points="691.376,2234.61 691.376,2218.15 694.798,2202.05 701.494,2187.01 711.168,2173.69 723.402,2162.68 737.658,2154.44 753.314,2149.36 769.684,2147.64 864.336,2147.64 880.708,2149.36 896.362,2154.44 910.618,2162.68 922.852,2173.69 932.528,2187.01 939.222,2202.05 942.646,2218.15 942.646,2234.61 939.222,2250.71 932.528,2265.75 922.852,2279.06 910.618,2290.08 896.362,2298.31 880.708,2303.4 864.336,2305.12 769.684,2305.12 753.314,2303.4 737.658,2298.31 723.402,2290.08 711.168,2279.06 701.494,2265.75 694.798,2250.71 691.376,2234.61" style="stroke:rgb(0,0,0);stroke-width:1px;fill:none;stroke-opacity:1;stroke-linecap:round;stroke-linejoin:round;;fill:none"/>
<polyline points="2396.89,4034.61 2396.89,4018.15 2400.31,4002.05 2407.01,3987.01 2416.68,3973.69 2428.91,3962.68 2443.17,3954.44 2458.83,3949.36 2475.2,3947.64 2541.34,3947.64 2557.71,3949.36 2573.36,3954.44 2587.62,3962.68 2599.85,3973.69 2609.53,3987.01 2616.22,4002.05 2619.65,4018.15 2619.65,4034.61 2616.22,4050.71 2609.53,4065.75 2599.85,4079.06 2587.62,4090.08 2573.36,4098.31 2557.71,4103.4 2541.34,4105.12 2475.2,4105.12 2458.83,4103.4 2443.17,4098.31 2428.91,4090.08 2416.68,4079.06 2407.01,4065.75 2400.31,4050.71 2396.89,4034.61" style="stroke:rgb(201,154,102);stroke-width:0.000000;fill:none;stroke-opacity:0.5;stroke-linecap:round;stroke-linejoin:round;;fill:none"/>
<polyline points="2396.89,4034.61 2396.89,4018.15 2400.31,4002.05 2407.01,3987.01 2416.68,3973.69 2428.91,3962.68 2443.17,3954.44 2458.83,3949.36 2475.2,3947.64 2541.34,3947.64 2557.71,3949.36 2573.36,3954.44 2587.62,3962.68 2599.85,3973.69 2609.53,3987.01 2616.22,4002.05 2619.65,4018.15 2619.65,4034.61 2616.22,4050.71 2609.53,4065.75 2599.85,4079.06 2587.62,4090.08 2573.36,4098.31 2557.71,4103.4 2541.34,4105.12 2475.2,4105.12 2458.83,4103.4 2443.17,4098.31 2428.91,4090.08 2416.68,4079.06 2407.01,4065.75 2400.31,4050.71 2396.89,4034.61" style="stroke:rgb(0,0,0);stroke-width:1px;fill:none;stroke-opacity:1;stroke-linecap:round;stroke-linejoin:round;;fill:none"/>
<polyline points="691.376,3234.61 691.376,3218.15 694.798,3202.05 701.494,3187.01 711.168,3173.69 723.402,3162.68 737.658,3154.44 753.314,3149.36 769.684,3147.64 864.336,3147.64 879.698,3149.15 894.468,3153.63 908.082,3160.91 920.014,3170.7 935.598,3186.28 945.958,3199.08 953.43,3213.74 957.692,3229.64 958.552,3246.08 955.978,3262.34 950.078,3277.71 941.114,3291.51 929.474,3303.15 915.668,3312.12 900.3,3318.02 884.042,3320.59 867.602,3319.73 851.702,3315.47 833.478,3305.12 769.684,3305.12 753.314,3303.4 737.658,3298.31 723.402,3290.08 711.168,3279.06 701.494,3265.75 694.798,3250.71 691.376,3234.61" style="stroke:rgb(50,13,183);stroke-width:0.000000;fill:none;stroke-opacity:0.5;stroke-linecap:round;stroke-linejoin:round;;fill:none"/>
<polyline points="691.376,3234.61 691.376,3218.15 694.798,3202.05 701.494,3187.01 711.168,3173.69 723.402,3162.68 737.658,3154.44 753.314,3149.36 769.684,3147.64 864.336,3147.64 879.698,3149.15 894.468,3153.63 908.082,3160.91 920.014,3170.7 935.598,3186.28 945.958,3199.08 953.43,3213.74 957.692,3229.64 958.552,3246.08 955.978,3262.34 950.078,3277.71 941.114,3291.51 929.474,3303.15 915.668,3312.12 900.3,3318.02 884.042,3320.59 867.602,3319.73 851.702,3315.47 833.478,3305.12 769.684,3305.12 753.314,3303.4 737.658,3298.31 723.402,3290.08 711.168,3279.06 701.494,3265.75 694.798,3250.71 691.376,3234.61" style="stroke:rgb(0,0,0);stroke-width:1px;fill:none;stroke-opacity:1;stroke-linecap:round;stroke-linejoin:round;;fill:none"/>
<polyline points="691.376,2434.61 691.376,2418.15 694.798,2402.05 701.494,2387.01 711.168,2373.69 723.402,2362.68 737.658,2354.44 753.314,2349.36 769.684,2347.64 847.032,2347.64 855.168,2345.46 871.606,2344.6 887.866,2347.17 903.234,2353.07 917.038,2362.03 928.678,2373.67 937.644,2387.48 943.544,2402.85 946.118,2419.11 945.256,2435.55 940.996,2451.45 933.522,2466.11 923.164,2478.91 908.082,2491.85 894.468,2499.12 879.698,2503.6 864.336,2505.12 769.684,2505.12 753.314,2503.4 737.658,2498.31 723.402,2490.08 711.168,2479.06 701.494,2465.75 694.798,2450.71 691.376,2434.61" style="stroke:rgb(49,88,163);stroke-width:0.000000;fill:none;stroke-opacity:0.5;stroke-linecap:round;stroke-linejoin:round;;fill:none"/>
<polyline points="691.376,2434.61 691.376,2418.15 694.798,2402.05 701.494,2387.01 711.168,2373.69 723.402,2362.68 737.658,2354.44 753.314,2349.36 769.684,2347.64 847.032,2347.64 855.168,2345.46 871.606,2344.6 887.866,2347.17 903.234,2353.07 917.038,2362.03 928.678,2373.67 937.644,2387.48 943.544,2402.85 946.118,2419.11 945.256,2435.55 940.996,2451.45 933.522,2466.11 923.164,2478.91 908.082,2491.85 894.468,2499.12 879.698,2503.6 864.336,2505.12 769.684,2505.12 753.314,2503.4 737.658,2498.31 723.402,2490.08 711.168,2479.06 701.494,2465.75 694.798,2450.71 691.376,2434.61" style="stroke:rgb(0,0,0);stroke-width:1px;fill:none;stroke-opacity:1;stroke-linecap:round;stroke-linejoin:round;;fill:none"/>
<polyline points="1553.94,3336.61 1553.94,3202.76 1555.66,3186.38 1560.74,3170.73 1568.97,3156.47 1579.99,3144.24 1593.31,3134.56 1608.34,3127.87 1624.45,3124.45 1640.91,3124.45 1657.01,3127.87 1672.05,3134.56 1685.36,3144.24 1696.38,3156.47 1704.61,3170.73 1709.7,3186.38 1711.42,3202.76 1711.42,3336.61 1709.7,3352.98 1704.61,3368.64 1696.38,3382.9 1692.07,3387.68 1699.27,3394.88 2367.28,3394.88 2370.78,3387.01 2380.46,3373.69 2392.69,3362.68 2406.95,3354.44 2422.6,3349.36 2438.98,3347.64 2541.34,3347.64 2557.71,3349.36 2573.36,3354.44 2587.62,3362.68 2599.85,3373.69 2609.53,3387.01 2616.22,3402.05 2619.65,3418.15 2619.65,3434.61 2616.22,3450.71 2609.53,3465.75 2599.85,3479.06 2587.62,3490.08 2573.36,3498.31 2557.71,3503.4 2541.34,3505.12 2438.98,3505.12 2422.6,3503.4 2406.95,3498.31 2392.69,3490.08 2380.46,3479.06 2370.78,3465.75 2367.28,3457.87 1686.22,3457.87 1674.17,3455.48 1668.72,3452.57 1630.22,3414.92 1624.45,3414.92 1608.34,3411.5 1593.31,3404.8 1579.99,3395.13 1568.97,3382.9 1560.74,3368.64 1555.66,3352.98 1553.94,3336.61" style="stroke:rgb(90,37,93);stroke-width:0.000000;fill:none;stroke-opacity:0.5;stroke-linecap:round;stroke-linejoin:round;;fill:none"/>
<polyline points="1553.94,3336.61 1553.94,3202.76 1555.66,3186.38 1560.74,3170.73 1568.97,3156.47 1579.99,3144.24 1593.31,3134.56 1608.34,3127.87 1624.45,3124.45 1640.91,3124.45 1657.01,3127.87 1672.05,3134.56 1685.36,3144.24 1696.38,3156.47 1704.61,3170.73 1709.7,3186.38 1711.42,3202.76 1711.42,3336.61 1709.7,3352.98 1704.61,3368.64 1696.38,3382.9 1692.07,3387.68 1699.27,3394.88 2367.28,3394.88 2370.78,3387.01 2380.46,3373.69 2392.69,3362.68 2406.95,3354.44 2422.6,3349.36 2438.98,3347.64 2541.34,3347.64 2557.71,3349.36 2573.36,3354.44 2587.62,3362.68 2599.85,3373.69 2609.53,3387.01 2616.22,3402.05 2619.65,3418.15 2619.65,3434.61 2616.22,3450.71 2609.53,3465.75 2599.85,3479.06 2587.62,3490.08 2573.36,3498.31 2557.71,3503.4 2541.34,3505.12 2438.98,3505.12 2422.6,3503.4 2406.95,3498.31 2392.69,3490.08 2380.46,3479.06 2370.78,3465.75 2367.28,3457.87 1686.22,3457.87 1674.17,3455.48 1668.72,3452.57 1630.22,3414.92 1624.45,3414.92 1608.34,3411.5 1593.31,3404.8 1579.99,3395.13 1568.97,3382.9 1560.74,3368.64 1555.66,3352.98 1553.94,3336.61" style="stroke:rgb(0,0,0);stroke-width:1px;fill:none;stroke-opacity:1;stroke-linecap:round;stroke-linejoin:round;;fill:none"/>
<polyline points="1328.85,453.588 1329.71,470.028 1333.46,484.04 1333.46,557.086 1335.18,573.456 1340.27,589.112 1348.5,603.368 1359.52,615.602 1372.83,625.276 1382.28,629.484 1382.28,698.818 1384.68,710.872 1387.59,716.316 2468.3,1797.89 2463.03,1818.15 2463.03,1834.61 2466.45,1850.71 2473.15,1865.75 2482.82,1879.06 2495.06,1890.08 2509.31,1898.31 2524.97,1903.4 2541.34,1905.12 2626.38,1905.12 2642.75,1903.4 2658.4,1898.31 2672.66,1890.08 2684.89,1879.06 2694.57,1865.75 2701.26,1850.71 2704.69,1834.61 2704.69,1818.15 2701.26,1802.05 2694.57,1787.01 2684.89,1773.69 2672.66,1762.68 2658.4,1754.44 2642.75,1749.36 2626.38,1747.64 2541.34,1747.64 2524.97,1749.36 2512.81,1753.31 1445.27,685.772 1445.27,628.082 1451.57,625.276 1464.89,615.602 1475.91,603.368 1484.14,589.112 1489.22,573.456 1490.94,557.086 1490.94,462.434 1489.43,447.072 1484.95,432.302 1477.67,418.688 1467.88,406.756 1450.36,391.672 1435.7,384.2 1419.8,379.938 1403.36,379.078 1387.1,381.652 1371.73,387.552 1357.93,396.516 1346.29,408.156 1337.32,421.962 1331.42,437.33 1328.85,453.588" style="stroke:rgb(5,23,88);stroke-width:0.000000;fill:none;stroke-opacity:0.5;stroke-linecap:round;stroke-linejoin:round;;fill:none"/>
<polyline points="1328.85,453.588 1329.71,470.028 1333.46,484.04 1333.46,557.086 1335.18,573.456 1340.27,589.112 1348.5,603.368 1359.52,615.602 1372.83,625.276 1382.28,629.484 1382.28,698.818 1384.68,710.872 1387.59,716.316 2468.3,1797.89 2463.03,1818.15 2463.03,1834.61 2466.45,1850.71 2473.15,1865.75 2482.82,1879.06 2495.06,1890.08 2509.31,1898.31 2524.97,1903.4 2541.34,1905.12 2626.38,1905.12 2642.75,1903.4 2658.4,1898.31 2672.66,1890.08 2684.89,1879.06 2694.57,1865.75 2701.26,1850.71 2704.69,1834.61 2704.69,1818.15 2701.26,1802.05 2694.57,1787.01 2684.89,1773.69 2672.66,1762.68 2658.4,1754.44 2642.75,1749.36 2626.38,1747.64 2541.34,1747.64 2524.97,1749.36 2512.81,1753.31 1445.27,685.772 1445.27,628.082 1451.57,625.276 1464.89,615.602 1475.91,603.368 1484.14,589.112 1489.22,573.456 1490.94,557.086 1490.94,462.434 1489.43,447.072 1484.95,432.302 1477.67,418.688 1467.88,406.756 1450.36,391.672 1435.7,384.2 1419.8,379.938 1403.36,379.078 1387.1,381.652 1371.73,387.552 1357.93,396.516 1346.29,408.156 1337.32,421.962 1331.42,437.33 1328.85,453.588" style="stroke:rgb(0,0,0);stroke-width:1px;fill:none;stroke-opacity:1;stroke-linecap:round;stroke-linejoin:round;;fill:none"/>
<polyline points="1714.74,845.024 1714.74,838.44 1718.79,825.984 1722.66,820.658 1733.25,812.96 1746.06,810.236 1762.84,810.842 1774.19,815.544 1778.96,819.462 2512.81,1553.31 2524.97,1549.36 2541.34,1547.64 2604.33,1547.64 2620.7,1549.36 2636.36,1554.44 2650.61,1562.68 2662.85,1573.69 2672.52,1587.01 2676.03,1594.88 2839.58,1594.88 2845.38,1583.49 2855.74,1570.7 2890.78,1535.66 2902.71,1525.87 2916.32,1518.59 2931.09,1514.11 2946.46,1512.6 3008.27,1512.6 3024.64,1514.32 3040.29,1519.41 3054.55,1527.64 3066.78,1538.65 3076.46,1551.97 3083.15,1567.01 3086.58,1583.11 3086.58,1599.57 3083.15,1615.67 3076.46,1630.71 3066.78,1644.03 3054.55,1655.04 3040.29,1663.27 3024.64,1668.36 3008.27,1670.08 2979.07,1670.08 2967.09,1682.05 2954.3,1692.41 2939.63,1699.89 2923.73,1704.15 2907.3,1705.01 2891.04,1702.43 2875.67,1696.54 2861.86,1687.57 2850.22,1675.93 2839.63,1657.87 2676.03,1657.87 2672.52,1665.75 2662.85,1679.06 2650.61,1690.08 2636.36,1698.31 2620.7,1703.4 2604.33,1705.12 2541.34,1705.12 2524.97,1703.4 2509.31,1698.31 2495.06,1690.08 2482.82,1679.06 2473.15,1665.75 2466.45,1650.71 2463.03,1634.61 2463.03,1618.15 2468.3,1597.89 1743.36,872.944 1733.25,870.506 1722.66,862.808 1716.11,851.466 1714.74,845.024" style="stroke:rgb(233,94,212);stroke-width:0.000000;fill:none;stroke-opacity:0.5;stroke-linecap:round;stroke-linejoin:round;;fill:none"/>
<polyline points="1714.74,845.024 1714.74,838.44 1718.79,825.984 1722.66,820.658 1733.25,812.96 1746.06,810.236 1762.84,810.842 1774.19,815.544 1778.96,819.462 2512.81,1553.31 2524.97,1549.36 2541.34,1547.64 2604.33,1547.64 2620.7,1549.36 2636.36,1554.44 2650.61,1562.68 2662.85,1573.69 2672.52,1587.01 2676.03,1594.88 2839.58,1594.88 2845.38,1583.49 2855.74,1570.7 2890.78,1535.66 2902.71,1525.87 2916.32,1518.59 2931.09,1514.11 2946.46,1512.6 3008.27,1512.6 3024.64,1514.32 3040.29,1519.41 3054.55,1527.64 3066.78,1538.65 3076.46,1551.97 3083.15,1567.01 3086.58,1583.11 3086.58,1599.57 3083.15,1615.67 3076.46,1630.71 3066.78,1644.03 3054.55,1655.04 3040.29,1663.27 3024.64,1668.36 3008.27,1670.08 2979.07,1670.08 2967.09,1682.05 2954.3,1692.41 2939.63,1699.89 2923.73,1704.15 2907.3,1705.01 2891.04,1702.43 2875.67,1696.54 2861.86,1687.57 2850.22,1675.93 2839.63,1657.87 2676.03,1657.87 2672.52,1665.75 2662.85,1679.06 2650.61,1690.08 2636.36,1698.31 2620.7,1703.4 2604.33,1705.12 2541.34,1705.12 2524.97,1703.4 2509.31,1698.31 2495.06,1690.08 2482.82,1679.06 2473.15,1665.75 2466.45,1650.71 2463.03,1634.61 2463.03,1618.15 2468.3,1597.89 1743.36,872.944 1733.25,870.506 1722.66,862.808 1716.11,851.466 1714.74,845.024" style="stroke:rgb(0,0,0);stroke-width:1px;fill:none;stroke-opacity:1;stroke-linecap:round;stroke-linejoin:round;;fill:none"/>
<polyline points="933.464,557.086 933.464,462.434 934.976,447.072 939.458,432.302 946.734,418.688 956.526,406.756 973.85,389.434 986.642,379.074 1001.31,371.6 1017.21,367.34 1033.65,366.478 1049.91,369.054 1065.27,374.952 1079.08,383.918 1090.72,395.558 1099.68,409.364 1105.58,424.732 1108.16,440.99 1107.3,457.428 1103.04,473.328 1095.56,487.996 1090.94,493.7 1090.94,557.086 1088.75,574.916 1095.87,582.894 1100.58,594.248 1101.18,675.99 2449.44,2024.25 2456.26,2034.46 2458.06,2040.37 2458.66,2099.16 2507.14,2147.64 2541.34,2147.64 2557.71,2149.36 2573.36,2154.44 2587.62,2162.68 2599.85,2173.69 2609.53,2187.01 2616.22,2202.05 2619.65,2218.15 2619.65,2234.61 2616.22,2250.71 2609.53,2265.75 2599.85,2279.06 2587.62,2290.08 2573.36,2298.31 2557.71,2303.4 2541.34,2305.12 2446.69,2305.12 2431.32,2303.6 2416.55,2299.12 2402.94,2291.85 2383.3,2274.34 2372.94,2261.55 2365.47,2246.88 2361.2,2230.98 2360.34,2214.55 2362.92,2198.29 2368.82,2182.92 2377.78,2169.11 2389.42,2157.47 2403.23,2148.51 2414.57,2144.15 2400.98,2129.7 2396.27,2118.35 2395.67,2059.56 1047.41,711.308 1040.59,701.09 1038.79,695.18 1038.19,631.236 1020.43,635.394 1003.97,635.394 987.872,631.972 972.834,625.276 959.516,615.602 948.502,603.368 940.272,589.112 935.184,573.456 933.464,557.086" style="stroke:rgb(171,178,205);stroke-width:0.000000;fill:none;stroke-opacity:0.5;stroke-linecap:round;stroke-linejoin:round;;fill:none"/>
<polyline points="933.464,557.086 933.464,462.434 934.976,447.072 939.458,432.302 946.734,418.688 956.526,406.756 973.85,389.434 986.642,379.074 1001.31,371.6 1017.21,367.34 1033.65,366.478 1049.91,369.054 1065.27,374.952 1079.08,383.918 1090.72,395.558 1099.68,409.364 1105.58,424.732 1108.16,440.99 1107.3,457.428 1103.04,473.328 1095.56,487.996 1090.94,493.7 1090.94,557.086 1088.75,574.916 1095.87,582.894 1100.58,594.248 1101.18,675.99 2449.44,2024.25 2456.26,2034.46 2458.06,2040.37 2458.66,2099.16 2507.14,2147.64 2541.34,2147.64 2557.71,2149.36 2573.36,2154.44 2587.62,2162.68 2599.85,2173.69 2609.53,2187.01 2616.22,2202.05 2619.65,2218.15 2619.65,2234.61 2616.22,2250.71 2609.53,2265.75 2599.85,2279.06 2587.62,2290.08 2573.36,2298.31 2557.71,2303.4 2541.34,2305.12 2446.69,2305.12 2431.32,2303.6 2416.55,2299.12 2402.94,2291.85 2383.3,2274.34 2372.94,2261.55 2365.47,2246.88 2361.2,2230.98 2360.34,2214.55 2362.92,2198.29 2368.82,2182.92 2377.78,2169.11 2389.42,2157.47 2403.23,2148.51 2414.57,2144.15 2400.98,2129.7 2396.27,2118.35 2395.67,2059.56 1047.41,711.308 1040.59,701.09 1038.79,695.18 1038.19,631.236 1020.43,635.394 1003.97,635.394 987.872,631.972 972.834,625.276 959.516,615.602 948.502,603.368 940.272,589.112 935.184,573.456 933.464,557.086" style="stroke:rgb(0,0,0);stroke-width:1px;fill:none;stroke-opacity:1;stroke-linecap:round;stroke-linejoin:round;;fill:none"/>
<polyline points="1525.86,450.602 1526.72,467.042 1530.98,482.942 1533.46,487.808 1533.46,557.086 1535.18,573.456 1540.27,589.112 1548.5,603.368 1559.52,615.602 1571.73,624.476 1573.66,631.738 1580.48,641.956 1728.56,789.18 1734.01,792.09 1746.06,794.488 2045.27,794.488 2058.09,791.764 2063.79,788.472 2072.55,778.74 2076.6,766.284 2075.23,753.258 2072.55,747.244 2063.79,737.51 2051.82,732.184 1759.11,731.496 1652.34,624.722 1664.89,615.602 1675.91,603.368 1684.14,589.112 1689.22,573.456 1690.94,557.086 1690.94,462.434 1689.43,447.072 1684.95,432.302 1677.67,418.688 1667.88,406.756 1647.38,388.686 1632.71,381.214 1616.81,376.952 1600.37,376.092 1584.11,378.666 1568.75,384.566 1554.94,393.53 1543.3,405.17 1534.34,418.976 1528.44,434.344 1525.86,450.602" style="stroke:rgb(198,155,180);stroke-width:0.000000;fill:none;stroke-opacity:0.5;stroke-linecap:round;stroke-linejoin:round;;fill:none"/>
<polyline points="1525.86,450.602 1526.72,467.042 1530.98,482.942 1533.46,487.808 1533.46,557.086 1535.18,573.456 1540.27,589.112 1548.5,603.368 1559.52,615.602 1571.73,624.476 1573.66,631.738 1580.48,641.956 1728.56,789.18 1734.01,792.09 1746.06,794.488 2045.27,794.488 2058.09,791.764 2063.79,788.472 2072.55,778.74 2076.6,766.284 2075.23,753.258 2072.55,747.244 2063.79,737.51 2051.82,732.184 1759.11,731.496 1652.34,624.722 1664.89,615.602 1675.91,603.368 1684.14,589.112 1689.22,573.456 1690.94,557.086 1690.94,462.434 1689.43,447.072 1684.95,432.302 1677.67,418.688 1667.88,406.756 1647.38,388.686 1632.71,381.214 1616.81,376.952 1600.37,376.092 1584.11,378.666 1568.75,384.566 1554.94,393.53 1543.3,405.17 1534.34,418.976 1528.44,434.344 1525.86,450.602" style="stroke:rgb(0,0,0);stroke-width:1px;fill:none;stroke-opacity:1;stroke-linecap:round;stroke-linejoin:round;;fill:none"/>
<polyline points="2463.03,2434.61 2463.03,2418.15 2466.45,2402.05 2473.15,2387.01 2482.82,2373.69 2495.06,2362.68 2509.31,2354.44 2524.97,2349.36 2541.34,2347.64 2575.54,2347.64 3078.38,1844.79 3073.7,1839.59 3065.47,1825.33 3060.38,1809.68 3058.66,1793.31 3058.66,1762.2 3060.17,1746.84 3064.65,1732.07 3071.93,1718.46 3081.72,1706.53 3152.59,1635.66 3165.38,1625.3 3180.05,1617.83 3195.95,1613.57 3212.39,1612.71 3228.65,1615.28 3244.01,1621.18 3257.82,1630.15 3269.46,1641.78 3278.42,1655.59 3284.32,1670.96 3286.9,1687.22 3286.04,1703.66 3281.78,1719.56 3274.3,1734.22 3263.94,1747.02 3215.96,1795 3214.42,1809.68 3209.33,1825.33 3201.1,1839.59 3190.09,1851.82 3176.77,1861.5 3161.73,1868.19 3140.64,1871.62 2663.54,2348.71 2674.89,2353.07 2688.69,2362.03 2700.33,2373.67 2709.3,2387.48 2715.2,2402.85 2717.77,2419.11 2716.91,2435.55 2712.65,2451.45 2705.18,2466.11 2691.67,2482.05 2679.74,2491.85 2666.12,2499.12 2651.35,2503.6 2635.99,2505.12 2541.34,2505.12 2524.97,2503.4 2509.31,2498.31 2495.06,2490.08 2482.82,2479.06 2473.15,2465.75 2466.45,2450.71 2463.03,2434.61" style="stroke:rgb(84,17,14);stroke-width:0.000000;fill:none;stroke-opacity:0.5;stroke-linecap:round;stroke-linejoin:round;;fill:none"/>
<polyline points="2463.03,2434.61 2463.03,2418.15 2466.45,2402.05 2473.15,2387.01 2482.82,2373.69 2495.06,2362.68 2509.31,2354.44 2524.97,2349.36 2541.34,2347.64 2575.54,2347.64 3078.38,1844.79 3073.7,1839.59 3065.47,1825.33 3060.38,1809.68 3058.66,1793.31 3058.66,1762.2 3060.17,1746.84 3064.65,1732.07 3071.93,1718.46 3081.72,1706.53 3152.59,1635.66 3165.38,1625.3 3180.05,1617.83 3195.95,1613.57 3212.39,1612.71 3228.65,1615.28 3244.01,1621.18 3257.82,1630.15 3269.46,1641.78 3278.42,1655.59 3284.32,1670.96 3286.9,1687.22 3286.04,1703.66 3281.78,1719.56 3274.3,1734.22 3263.94,1747.02 3215.96,1795 3214.42,1809.68 3209.33,1825.33 3201.1,1839.59 3190.09,1851.82 3176.77,1861.5 3161.73,1868.19 3140.64,1871.62 2663.54,2348.71 2674.89,2353.07 2688.69,2362.03 2700.33,2373.67 2709.3,2387.48 2715.2,2402.85 2717.77,2419.11 2716.91,2435.55 2712.65,2451.45 2705.18,2466.11 2691.67,2482.05 2679.74,2491.85 2666.12,2499.12 2651.35,2503.6 2635.99,2505.12 2541.34,2505.12 2524.97,2503.4 2509.31,2498.31 2495.06,2490.08 2482.82,2479.06 2473.15,2465.75 2466.45,2450.71 2463.03,2434.61" style="stroke:rgb(0,0,0);stroke-width:1px;fill:none;stroke-opacity:1;stroke-linecap:round;stroke-linejoin:round;;fill:none"/>
<polyline points="2360.34,2814.55 2361.2,2830.98 2365.47,2846.88 2372.94,2861.55 2383.3,2874.34 2402.94,2891.85 2416.55,2899.12 2431.32,2903.6 2446.69,2905.12 2541.34,2905.12 2557.71,2903.4 2573.36,2898.31 2587.62,2890.08 2599.85,2879.06 2609.53,2865.75 2613.03,2857.87 2742.46,2857.87 2817.12,2932.53 2811.85,2952.79 2811.85,2969.25 2815.27,2985.35 2821.97,3000.39 2831.64,3013.71 2843.87,3024.72 2858.13,3032.96 2873.79,3038.04 2890.16,3039.76 3018.5,3039.76 3034.87,3038.04 3050.53,3032.96 3064.79,3024.72 3077.02,3013.71 3086.69,3000.39 3093.39,2985.35 3096.81,2969.25 3096.81,2952.79 3093.39,2936.69 3086.69,2921.65 3077.02,2908.34 3064.79,2897.32 3050.53,2889.09 3034.87,2884 3018.5,2882.28 2890.16,2882.28 2873.79,2884 2861.63,2887.95 2777.78,2804.11 2767.56,2797.28 2761.66,2795.49 2613.03,2794.88 2609.53,2787.01 2599.85,2773.69 2587.62,2762.68 2573.36,2754.44 2557.71,2749.36 2541.34,2747.64 2472.06,2747.64 2467.19,2745.16 2451.29,2740.9 2434.85,2740.03 2418.6,2742.61 2403.23,2748.51 2389.42,2757.47 2377.78,2769.11 2368.82,2782.92 2362.92,2798.29 2360.34,2814.55" style="stroke:rgb(130,116,65);stroke-width:0.000000;fill:none;stroke-opacity:0.5;stroke-linecap:round;stroke-linejoin:round;;fill:none"/>
<polyline points="2360.34,2814.55 2361.2,2830.98 2365.47,2846.88 2372.94,2861.55 2383.3,2874.34 2402.94,2891.85 2416.55,2899.12 2431.32,2903.6 2446.69,2905.12 2541.34,2905.12 2557.71,2903.4 2573.36,2898.31 2587.62,2890.08 2599.85,2879.06 2609.53,2865.75 2613.03,2857.87 2742.46,2857.87 2817.12,2932.53 2811.85,2952.79 2811.85,2969.25 2815.27,2985.35 2821.97,3000.39 2831.64,3013.71 2843.87,3024.72 2858.13,3032.96 2873.79,3038.04 2890.16,3039.76 3018.5,3039.76 3034.87,3038.04 3050.53,3032.96 3064.79,3024.72 3077.02,3013.71 3086.69,3000.39 3093.39,2985.35 3096.81,2969.25 3096.81,2952.79 3093.39,2936.69 3086.69,2921.65 3077.02,2908.34 3064.79,2897.32 3050.53,2889.09 3034.87,2884 3018.5,2882.28 2890.16,2882.28 2873.79,2884 2861.63,2887.95 2777.78,2804.11 2767.56,2797.28 2761.66,2795.49 2613.03,2794.88 2609.53,2787.01 2599.85,2773.69 2587.62,2762.68 2573.36,2754.44 2557.71,2749.36 2541.34,2747.64 2472.06,2747.64 2467.19,2745.16 2451.29,2740.9 2434.85,2740.03 2418.6,2742.61 2403.23,2748.51 2389.42,2757.47 2377.78,2769.11 2368.82,2782.92 2362.92,2798.29 2360.34,2814.55" style="stroke:rgb(0,0,0);stroke-width:1px;fill:none;stroke-opacity:1;stroke-linecap:round;stroke-linejoin:round;;fill:none"/>
<polyline points="2377.99,2634.61 2377.99,2618.15 2381.41,2602.05 2388.11,2587.01 2397.78,2573.69 2410.02,2562.68 2424.27,2554.44 2439.93,2549.36 2456.3,2547.64 2541.34,2547.64 2557.71,2549.36 2573.36,2554.44 2587.62,2562.68 2599.85,2573.69 2609.53,2587.01 2613.03,2594.88 2890,2595.49 2895.91,2597.28 2906.13,2604.11 2984.31,2682.28 3018.5,2682.28 3034.87,2684 3050.53,2689.09 3064.79,2697.32 3077.02,2708.34 3086.69,2721.65 3093.39,2736.69 3096.81,2752.79 3096.81,2769.25 3093.39,2785.35 3086.69,2800.39 3077.02,2813.71 3064.79,2824.72 3050.53,2832.96 3034.87,2838.04 3018.5,2839.76 2918.28,2839.76 2902.92,2838.25 2888.15,2833.77 2874.54,2826.49 2855.74,2809.83 2845.38,2797.04 2837.91,2782.37 2833.65,2766.47 2832.78,2750.04 2835.36,2733.78 2841.26,2718.41 2850.22,2704.6 2861.86,2692.96 2875.67,2684 2891.04,2678.1 2870.81,2657.87 2613.03,2657.87 2609.53,2665.75 2599.85,2679.06 2587.62,2690.08 2573.36,2698.31 2557.71,2703.4 2541.34,2705.12 2456.3,2705.12 2439.93,2703.4 2424.27,2698.31 2410.02,2690.08 2397.78,2679.06 2388.11,2665.75 2381.41,2650.71 2377.99,2634.61" style="stroke:rgb(33,61,220);stroke-width:0.000000;fill:none;stroke-opacity:0.5;stroke-linecap:round;stroke-linejoin:round;;fill:none"/>
<polyline points="2377.99,2634.61 2377.99,2618.15 2381.41,2602.05 2388.11,2587.01 2397.78,2573.69 2410.02,2562.68 2424.27,2554.44 2439.93,2549.36 2456.3,2547.64 2541.34,2547.64 2557.71,2549.36 2573.36,2554.44 2587.62,2562.68 2599.85,2573.69 2609.53,2587.01 2613.03,2594.88 2890,2595.49 2895.91,2597.28 2906.13,2604.11 2984.31,2682.28 3018.5,2682.28 3034.87,2684 3050.53,2689.09 3064.79,2697.32 3077.02,2708.34 3086.69,2721.65 3093.39,2736.69 3096.81,2752.79 3096.81,2769.25 3093.39,2785.35 3086.69,2800.39 3077.02,2813.71 3064.79,2824.72 3050.53,2832.96 3034.87,2838.04 3018.5,2839.76 2918.28,2839.76 2902.92,2838.25 2888.15,2833.77 2874.54,2826.49 2855.74,2809.83 2845.38,2797.04 2837.91,2782.37 2833.65,2766.47 2832.78,2750.04 2835.36,2733.78 2841.26,2718.41 2850.22,2704.6 2861.86,2692.96 2875.67,2684 2891.04,2678.1 2870.81,2657.87 2613.03,2657.87 2609.53,2665.75 2599.85,2679.06 2587.62,2690.08 2573.36,2698.31 2557.71,2703.4 2541.34,2705.12 2456.3,2705.12 2439.93,2703.4 2424.27,2698.31 2410.02,2690.08 2397.78,2679.06 2388.11,2665.75 2381.41,2650.71 2377.99,2634.61" style="stroke:rgb(0,0,0);stroke-width:1px;fill:none;stroke-opacity:1;stroke-linecap:round;stroke-linejoin:round;;fill:none"/>
<polyline points="320.866,4627.95 320.866,533.464 323.262,521.41 330.09,511.192 503.318,337.964 513.536,331.136 519.446,329.344 716.15,329.344 722.058,331.136 732.276,337.964 783.712,389.4 803.974,384.124 820.434,384.124 836.536,387.548 851.574,394.242 864.892,403.918 875.906,416.152 884.136,430.408 889.224,446.062 890.944,462.434 890.944,591.284 1045.17,745.506 1049.08,750.28 1053.79,761.632 1054.39,789.376 1303.77,1038.75 1310.59,1048.97 1312.99,1061.02 1312.99,2753.94 1310.59,2765.99 1303.77,2776.21 1124.02,2955.96 1124.01,3798.19 1121.62,3810.25 1114.79,3820.47 942.03,3993.23 945.118,4001.27 947.692,4017.53 946.832,4033.97 942.57,4049.87 935.098,4064.54 924.738,4077.33 908.082,4091.85 894.468,4099.12 879.698,4103.6 864.336,4105.12 769.684,4105.12 753.314,4103.4 737.658,4098.31 723.402,4090.08 711.168,4079.06 701.494,4065.75 694.798,4050.71 691.376,4034.61 691.376,4018.15 694.798,4002.05 701.494,3987.01 711.168,3973.69 723.402,3962.68 737.658,3954.44 753.314,3949.36 769.684,3947.64 842.73,3947.64 856.742,3943.88 873.182,3943.02 889.44,3945.6 897.486,3948.68 1061.02,3785.15 1061.63,2936.77 1066.33,2925.41 1070.25,2920.64 1250,2740.89 1250,1074.07 1000.62,824.694 993.796,814.476 992.004,808.568 991.4,780.824 877.436,666.86 864.892,681.742 851.574,691.418 836.536,698.114 820.434,701.536 803.974,701.536 787.872,698.114 772.834,691.418 759.516,681.742 748.502,669.51 740.272,655.254 735.184,639.598 733.464,623.228 733.464,462.434 735.184,446.062 739.134,433.906 696.96,391.732 538.636,391.732 383.858,546.51 383.858,4614.91 664.62,4895.67 714.566,4895.67 714.566,4690.94 827.504,4690.94 999.382,4519.07 1004.15,4515.15 1015.51,4510.45 3394.43,4509.84 3872.05,4032.23 3872.05,2192.18 3272.95,1593.08 3261.63,1588.39 3242.47,1570.08 3208.27,1570.08 3191.9,1568.36 3176.24,1563.27 3161.98,1555.04 3149.75,1544.03 3140.08,1530.71 3133.38,1515.67 3129.96,1499.57 3129.96,1483.11 3133.38,1467.01 3140.08,1451.97 3149.75,1438.65 3161.98,1427.64 3176.24,1419.41 3191.9,1414.32 3208.27,1412.6 3242.47,1412.6 3305.12,1349.95 3305.12,491.392 3256.64,442.912 2141.91,442.912 2120.9,466.088 2125.38,477.76 2127.95,494.018 2127.09,510.456 2122.83,526.358 2115.36,541.024 2105,553.816 2089.68,569.138 2084.14,589.112 2075.91,603.368 2064.89,615.602 2051.57,625.276 2036.54,631.972 2020.43,635.394 2003.97,635.394 1987.87,631.972 1972.83,625.276 1959.52,615.602 1948.5,603.368 1940.27,589.112 1935.18,573.456 1933.46,557.086 1933.46,535.256 1934.98,519.894 1939.46,505.122 1946.73,491.51 1956.53,479.578 1993.64,442.462 2006.44,432.102 2021.1,424.628 2037,420.368 2053.44,419.506 2074.2,423.81 2104.62,390.26 2109.51,385.888 2121.43,380.602 3269.68,379.92 3281.74,382.318 3287.18,385.228 3358.88,456.074 3365.71,466.292 3368.11,478.346 3368.11,1362.99 3365.71,1375.04 3362.8,1380.49 3329.04,1415.11 3342.26,1419.41 3356.52,1427.64 3368.75,1438.65 3378.43,1451.97 3385.12,1467.01 3388.54,1483.11 3388.54,1499.57 3385.12,1515.67 3378.43,1530.71 3368.75,1544.03 3356.52,1555.04 3342.26,1563.27 3334.68,1565.73 3925.81,2156.86 3932.64,2167.08 3934.43,2172.99 3935.04,4045.27 3934.43,4051.42 3929.73,4062.77 3429.75,4563.61 3424.98,4567.53 3413.62,4572.23 1034.7,4572.83 872.046,4735.49 872.046,5793.31 714.566,5793.31 714.566,4958.66 645.43,4958.06 639.52,4956.26 629.302,4949.44 330.09,4650.22 323.262,4640 320.866,4627.95" style="stroke:rgb(135,112,233);stroke-width:0.000000;fill:none;stroke-opacity:0.5;stroke-linecap:round;stroke-linejoin:round;;fill:none"/>
<polyline points="320.866,4627.95 320.866,533.464 323.262,521.41 330.09,511.192 503.318,337.964 513.536,331.136 519.446,329.344 716.15,329.344 722.058,331.136 732.276,337.964 783.712,389.4 803.974,384.124 820.434,384.124 836.536,387.548 851.574,394.242 864.892,403.918 875.906,416.152 884.136,430.408 889.224,446.062 890.944,462.434 890.944,591.284 1045.17,745.506 1049.08,750.28 1053.79,761.632 1054.39,789.376 1303.77,1038.75 1310.59,1048.97 1312.99,1061.02 1312.99,2753.94 1310.59,2765.99 1303.77,2776.21 1124.02,2955.96 1124.01,3798.19 1121.62,3810.25 1114.79,3820.47 942.03,3993.23 945.118,4001.27 947.692,4017.53 946.832,4033.97 942.57,4049.87 935.098,4064.54 924.738,4077.33 908.082,4091.85 894.468,4099.12 879.698,4103.6 864.336,4105.12 769.684,4105.12 753.314,4103.4 737.658,4098.31 723.402,4090.08 711.168,4079.06 701.494,4065.75 694.798,4050.71 691.376,4034.61 691.376,4018.15 694.798,4002.05 701.494,3987.01 711.168,3973.69 723.402,3962.68 737.658,3954.44 753.314,3949.36 769.684,3947.64 842.73,3947.64 856.742,3943.88 873.182,3943.02 889.44,3945.6 897.486,3948.68 1061.02,3785.15 1061.63,2936.77 1066.33,2925.41 1070.25,2920.64 1250,2740.89 1250,1074.07 1000.62,824.694 993.796,814.476 992.004,808.568 991.4,780.824 877.436,666.86 864.892,681.742 851.574,691.418 836.536,698.114 820.434,701.536 803.974,701.536 787.872,698.114 772.834,691.418 759.516,681.742 748.502,669.51 740.272,655.254 735.184,639.598 733.464,623.228 733.464,462.434 735.184,446.062 739.134,433.906 696.96,391.732 538.636,391.732 383.858,546.51 383.858,4614.91 664.62,4895.67 714.566,4895.67 714.566,4690.94 827.504,4690.94 999.382,4519.07 1004.15,4515.15 1015.51,4510.45 3394.43,4509.84 3872.05,4032.23 3872.05,2192.18 3272.95,1593.08 3261.63,1588.39 3242.47,1570.08 3208.27,1570.08 3191.9,1568.36 3176.24,1563.27 3161.98,1555.04 3149.75,1544.03 3140.08,1530.71 3133.38,1515.67 3129.96,1499.57 3129.96,1483.11 3133.38,1467.01 3140.08,1451.97 3149.75,1438.65 3161.98,1427.64 3176.24,1419.41 3191.9,1414.32 3208.27,1412.6 3242.47,1412.6 3305.12,1349.95 3305.12,491.392 3256.64,442.912 2141.91,442.912 2120.9,466.088 2125.38,477.76 2127.95,494.018 2127.09,510.456 2122.83,526.358 2115.36,541.024 2105,553.816 2089.68,569.138 2084.14,589.112 2075.91,603.368 2064.89,615.602 2051.57,625.276 2036.54,631.972 2020.43,635.394 2003.97,635.394 1987.87,631.972 1972.83,625.276 1959.52,615.602 1948.5,603.368 1940.27,589.112 1935.18,573.456 1933.46,557.086 1933.46,535.256 1934.98,519.894 1939.46,505.122 1946.73,491.51 1956.53,479.578 1993.64,442.462 2006.44,432.102 2021.1,424.628 2037,420.368 2053.44,419.506 2074.2,423.81 2104.62,390.26 2109.51,385.888 2121.43,380.602 3269.68,379.92 3281.74,382.318 3287.18,385.228 3358.88,456.074 3365.71,466.292 3368.11,478.346 3368.11,1362.99 3365.71,1375.04 3362.8,1380.49 3329.04,1415.11 3342.26,1419.41 3356.52,1427.64 3368.75,1438.65 3378.43,1451.97 3385.12,1467.01 3388.54,1483.11 3388.54,1499.57 3385.12,1515.67 3378.43,1530.71 3368.75,1544.03 3356.52,1555.04 3342.26,1563.27 3334.68,1565.73 3925.81,2156.86 3932.64,2167.08 3934.43,2172.99 3935.04,4045.27 3934.43,4051.42 3929.73,4062.77 3429.75,4563.61 3424.98,4567.53 3413.62,4572.23 1034.7,4572.83 872.046,4735.49 872.046,5793.31 714.566,5793.31 714.566,4958.66 645.43,4958.06 639.52,4956.26 629.302,4949.44 330.09,4650.22 323.262,4640 320.866,4627.95" style="stroke:rgb(0,0,0);stroke-width:1px;fill:none;stroke-opacity:1;stroke-linecap:round;stroke-linejoin:round;;fill:none"/>
<polyline points="1353.94,3416.93 1353.94,3281.5 1355.66,3265.12 1360.74,3249.47 1368.97,3235.21 1372.38,3231.44 1367.21,3216.67 1365.75,3202.76 1367.21,3188.84 1371.53,3175.53 1378.53,3163.42 1387.89,3153.02 1399.21,3144.79 1411.99,3139.1 1425.68,3136.19 1439.67,3136.19 1453.36,3139.1 1466.14,3144.79 1477.46,3153.02 1486.82,3163.42 1493.82,3175.53 1498.14,3188.84 1499.61,3202.76 1498.14,3216.67 1492.98,3231.44 1496.38,3235.21 1504.61,3249.47 1509.7,3265.12 1511.42,3281.5 1511.42,3416.93 1509.7,3433.3 1505.75,3445.46 1656.75,3596.46 1752.31,3596.46 1761.65,3594.88 2367.28,3594.88 2370.78,3587.01 2380.46,3573.69 2392.69,3562.68 2406.95,3554.44 2422.6,3549.36 2438.98,3547.64 2541.34,3547.64 2557.71,3549.36 2573.36,3554.44 2587.62,3562.68 2599.85,3573.69 2609.53,3587.01 2616.22,3602.05 2619.65,3618.15 2619.65,3634.61 2616.22,3650.71 2609.53,3665.75 2599.85,3679.06 2587.62,3690.08 2573.36,3698.31 2557.71,3703.4 2541.34,3705.12 2438.98,3705.12 2422.6,3703.4 2406.95,3698.31 2392.69,3690.08 2380.46,3679.06 2370.78,3665.75 2367.28,3657.87 1637.56,3658.84 1631.65,3657.05 1621.43,3650.22 1461.17,3489.96 1440.91,3495.24 1424.45,3495.24 1408.34,3491.81 1393.31,3485.12 1379.99,3475.44 1368.97,3463.21 1360.74,3448.95 1355.66,3433.3 1353.94,3416.93" style="stroke:rgb(62,161,65);stroke-width:0.000000;fill:none;stroke-opacity:0.5;stroke-linecap:round;stroke-linejoin:round;;fill:none"/>
<polyline points="1353.94,3416.93 1353.94,3281.5 1355.66,3265.12 1360.74,3249.47 1368.97,3235.21 1372.38,3231.44 1367.21,3216.67 1365.75,3202.76 1367.21,3188.84 1371.53,3175.53 1378.53,3163.42 1387.89,3153.02 1399.21,3144.79 1411.99,3139.1 1425.68,3136.19 1439.67,3136.19 1453.36,3139.1 1466.14,3144.79 1477.46,3153.02 1486.82,3163.42 1493.82,3175.53 1498.14,3188.84 1499.61,3202.76 1498.14,3216.67 1492.98,3231.44 1496.38,3235.21 1504.61,3249.47 1509.7,3265.12 1511.42,3281.5 1511.42,3416.93 1509.7,3433.3 1505.75,3445.46 1656.75,3596.46 1752.31,3596.46 1761.65,3594.88 2367.28,3594.88 2370.78,3587.01 2380.46,3573.69 2392.69,3562.68 2406.95,3554.44 2422.6,3549.36 2438.98,3547.64 2541.34,3547.64 2557.71,3549.36 2573.36,3554.44 2587.62,3562.68 2599.85,3573.69 2609.53,3587.01 2616.22,3602.05 2619.65,3618.15 2619.65,3634.61 2616.22,3650.71 2609.53,3665.75 2599.85,3679.06 2587.62,3690.08 2573.36,3698.31 2557.71,3703.4 2541.34,3705.12 2438.98,3705.12 2422.6,3703.4 2406.95,3698.31 2392.69,3690.08 2380.46,3679.06 2370.78,3665.75 2367.28,3657.87 1637.56,3658.84 1631.65,3657.05 1621.43,3650.22 1461.17,3489.96 1440.91,3495.24 1424.45,3495.24 1408.34,3491.81 1393.31,3485.12 1379.99,3475.44 1368.97,3463.21 1360.74,3448.95 1355.66,3433.3 1353.94,3416.93" style="stroke:rgb(0,0,0);stroke-width:1px;fill:none;stroke-opacity:1;stroke-linecap:round;stroke-linejoin:round;;fill:none"/>
<polyline points="1202.76,3423.23 1202.76,3232.2 1205.15,3220.15 1211.98,3209.93 1435.18,2987.59 1440.62,2984.68 1452.68,2982.28 1779.77,2982.89 1791.12,2987.59 1804.18,2999.8 1824.45,2994.53 1840.91,2994.53 1857.01,2997.95 1872.05,3004.64 1885.36,3014.32 1896.38,3026.55 1904.61,3040.81 1909.7,3056.46 1911.42,3072.83 1911.42,3202.76 1909.7,3219.13 1904.61,3234.78 1899.61,3243.45 1899.61,3269.68 1873.78,3269.68 1857.01,3277.64 1840.91,3281.06 1824.45,3281.06 1808.34,3277.64 1791.57,3269.68 1765.75,3269.68 1765.75,3243.45 1760.74,3234.78 1755.66,3219.13 1753.94,3202.76 1753.94,3072.83 1755.66,3056.46 1759.29,3045.27 1465.72,3045.27 1265.75,3245.25 1265.75,3410.18 1650.45,3794.88 2390.9,3794.88 2394.41,3787.01 2404.08,3773.69 2416.32,3762.68 2430.57,3754.44 2446.23,3749.36 2462.6,3747.64 2635.83,3747.64 2652.2,3749.36 2667.85,3754.44 2682.11,3762.68 2694.34,3773.69 2704.02,3787.01 2707.52,3794.88 3196.01,3794.88 3446.85,3544.04 3446.85,2908.71 3433.8,2895.67 3389.02,2895.67 3386.91,2900.39 3377.24,2913.71 3365.01,2924.72 3350.75,2932.96 3335.09,2938.04 3318.72,2939.76 3218.5,2939.76 3202.13,2938.04 3186.48,2932.96 3172.22,2924.72 3159.99,2913.71 3150.31,2900.39 3143.62,2885.35 3140.19,2869.25 3140.19,2852.79 3143.62,2836.69 3150.31,2821.65 3159.99,2808.34 3172.22,2797.32 3186.48,2789.09 3202.13,2784 3218.5,2782.28 3318.72,2782.28 3335.09,2784 3350.75,2789.09 3365.01,2797.32 3377.24,2808.34 3386.91,2821.65 3391.82,2832.68 3446.85,2832.68 3458.9,2835.07 3464.35,2837.98 3500.62,2873.4 3504.53,2878.17 3509.24,2889.52 3509.84,3557.09 3507.44,3569.14 3500.62,3579.36 3231.33,3848.65 3221.11,3855.48 3215.2,3857.27 2707.52,3857.87 2704.02,3865.75 2694.34,3879.06 2682.11,3890.08 2667.85,3898.31 2652.2,3903.4 2635.83,3905.12 2462.6,3905.12 2446.23,3903.4 2430.57,3898.31 2416.32,3890.08 2404.08,3879.06 2394.41,3865.75 2390.9,3857.87 1631.26,3857.27 1619.9,3852.57 1615.13,3848.65 1211.98,3445.5 1205.15,3435.28 1202.76,3423.23" style="stroke:rgb(225,252,103);stroke-width:0.000000;fill:none;stroke-opacity:0.5;stroke-linecap:round;stroke-linejoin:round;;fill:none"/>
<polyline points="1202.76,3423.23 1202.76,3232.2 1205.15,3220.15 1211.98,3209.93 1435.18,2987.59 1440.62,2984.68 1452.68,2982.28 1779.77,2982.89 1791.12,2987.59 1804.18,2999.8 1824.45,2994.53 1840.91,2994.53 1857.01,2997.95 1872.05,3004.64 1885.36,3014.32 1896.38,3026.55 1904.61,3040.81 1909.7,3056.46 1911.42,3072.83 1911.42,3202.76 1909.7,3219.13 1904.61,3234.78 1899.61,3243.45 1899.61,3269.68 1873.78,3269.68 1857.01,3277.64 1840.91,3281.06 1824.45,3281.06 1808.34,3277.64 1791.57,3269.68 1765.75,3269.68 1765.75,3243.45 1760.74,3234.78 1755.66,3219.13 1753.94,3202.76 1753.94,3072.83 1755.66,3056.46 1759.29,3045.27 1465.72,3045.27 1265.75,3245.25 1265.75,3410.18 1650.45,3794.88 2390.9,3794.88 2394.41,3787.01 2404.08,3773.69 2416.32,3762.68 2430.57,3754.44 2446.23,3749.36 2462.6,3747.64 2635.83,3747.64 2652.2,3749.36 2667.85,3754.44 2682.11,3762.68 2694.34,3773.69 2704.02,3787.01 2707.52,3794.88 3196.01,3794.88 3446.85,3544.04 3446.85,2908.71 3433.8,2895.67 3389.02,2895.67 3386.91,2900.39 3377.24,2913.71 3365.01,2924.72 3350.75,2932.96 3335.09,2938.04 3318.72,2939.76 3218.5,2939.76 3202.13,2938.04 3186.48,2932.96 3172.22,2924.72 3159.99,2913.71 3150.31,2900.39 3143.62,2885.35 3140.19,2869.25 3140.19,2852.79 3143.62,2836.69 3150.31,2821.65 3159.99,2808.34 3172.22,2797.32 3186.48,2789.09 3202.13,2784 3218.5,2782.28 3318.72,2782.28 3335.09,2784 3350.75,2789.09 3365.01,2797.32 3377.24,2808.34 3386.91,2821.65 3391.82,2832.68 3446.85,2832.68 3458.9,2835.07 3464.35,2837.98 3500.62,2873.4 3504.53,2878.17 3509.24,2889.52 3509.84,3557.09 3507.44,3569.14 3500.62,3579.36 3231.33,3848.65 3221.11,3855.48 3215.2,3857.27 2707.52,3857.87 2704.02,3865.75 2694.34,3879.06 2682.11,3890.08 2667.85,3898.31 2652.2,3903.4 2635.83,3905.12 2462.6,3905.12 2446.23,3903.4 2430.57,3898.31 2416.32,3890.08 2404.08,3879.06 2394.41,3865.75 2390.9,3857.87 1631.26,3857.27 1619.9,3852.57 1615.13,3848.65 1211.98,3445.5 1205.15,3435.28 1202.76,3423.23" style="stroke:rgb(0,0,0);stroke-width:1px;fill:none;stroke-opacity:1;stroke-linecap:round;stroke-linejoin:round;;fill:none"/>
<polyline points="1029.53,5793.31 1029.53,4690.94 1187.01,4690.94 1187.01,5624.01 2910.18,5624.01 3982.28,4551.91 3982.28,1057.2 3245.95,320.866 2092.97,320.866 1890.94,522.888 1890.94,557.086 1889.22,573.456 1884.14,589.112 1875.91,603.368 1864.89,615.602 1851.57,625.276 1836.54,631.972 1820.43,635.394 1803.97,635.394 1787.87,631.972 1772.83,625.276 1759.52,615.602 1748.5,603.368 1740.27,589.112 1735.18,573.456 1733.46,557.086 1733.46,462.434 1734.98,447.072 1739.46,432.302 1746.73,418.688 1761.25,402.032 1774.04,391.672 1788.71,384.2 1804.61,379.938 1821.05,379.078 1837.31,381.652 1852.68,387.552 1866.48,396.516 1878.12,408.156 1887.09,421.962 1891.44,433.306 2057.65,267.098 2067.87,260.27 2073.78,258.478 3258.99,257.874 3271.05,260.27 3281.26,267.098 4036.05,1021.88 4042.88,1032.1 4044.67,1038.01 4045.27,4564.96 4042.88,4577.01 4036.05,4587.23 2945.5,5677.78 2935.28,5684.61 2923.23,5687.01 1187.01,5687.01 1187.01,5793.31 1029.53,5793.31" style="stroke:rgb(62,1,126);stroke-width:0.000000;fill:none;stroke-opacity:0.5;stroke-linecap:round;stroke-linejoin:round;;fill:none"/>
<polyline points="1029.53,5793.31 1029.53,4690.94 1187.01,4690.94 1187.01,5624.01 2910.18,5624.01 3982.28,4551.91 3982.28,1057.2 3245.95,320.866 2092.97,320.866 1890.94,522.888 1890.94,557.086 1889.22,573.456 1884.14,589.112 1875.91,603.368 1864.89,615.602 1851.57,625.276 1836.54,631.972 1820.43,635.394 1803.97,635.394 1787.87,631.972 1772.83,625.276 1759.52,615.602 1748.5,603.368 1740.27,589.112 1735.18,573.456 1733.46,557.086 1733.46,462.434 1734.98,447.072 1739.46,432.302 1746.73,418.688 1761.25,402.032 1774.04,391.672 1788.71,384.2 1804.61,379.938 1821.05,379.078 1837.31,381.652 1852.68,387.552 1866.48,396.516 1878.12,408.156 1887.09,421.962 1891.44,433.306 2057.65,267.098 2067.87,260.27 2073.78,258.478 3258.99,257.874 3271.05,260.27 3281.26,267.098 4036.05,1021.88 4042.88,1032.1 4044.67,1038.01 4045.27,4564.96 4042.88,4577.01 4036.05,4587.23 2945.5,5677.78 2935.28,5684.61 2923.23,5687.01 1187.01,5687.01 1187.01,5793.31 1029.53,5793.31" style="stroke:rgb(0,0,0);stroke-width:1px;fill:none;stroke-opacity:1;stroke-linecap:round;stroke-linejoin:round;;fill:none"/>
<polyline points="1133.46,557.086 1133.46,500.392 1135.18,484.022 1140.27,468.366 1148.5,454.11 1159.52,441.878 1172.83,432.202 1187.87,425.506 1203.97,422.084 1220.43,422.084 1236.54,425.506 1251.57,432.202 1264.89,441.878 1275.91,454.11 1284.14,468.366 1289.22,484.022 1290.94,500.392 1290.94,557.086 1289.22,573.456 1284.14,589.112 1275.91,603.368 1264.89,615.602 1251.57,625.276 1245.27,628.082 1245.27,685.772 2521.95,1962.45 2534.34,1959.81 2548.33,1959.81 2562.02,1962.72 2574.8,1968.41 2586.12,1976.64 2595.48,1987.04 2602.48,1999.15 2606.8,2012.46 2608.27,2026.38 2606.8,2040.29 2602.48,2053.6 2595.48,2065.72 2586.12,2076.12 2574.8,2084.34 2562.02,2090.03 2548.33,2092.94 2534.34,2092.94 2520.66,2090.03 2507.87,2084.34 2496.55,2076.12 2487.19,2065.72 2480.19,2053.6 2475.87,2040.29 2474.41,2026.38 2475.87,2012.46 2477.59,2007.17 1191.51,721.09 1184.68,710.872 1182.89,704.962 1182.28,629.484 1172.83,625.276 1159.52,615.602 1148.5,603.368 1140.27,589.112 1135.18,573.456 1133.46,557.086" style="stroke:rgb(151,234,220);stroke-width:0.000000;fill:none;stroke-opacity:0.5;stroke-linecap:round;stroke-linejoin:round;;fill:none"/>
<polyline points="1133.46,557.086 1133.46,500.392 1135.18,484.022 1140.27,468.366 1148.5,454.11 1159.52,441.878 1172.83,432.202 1187.87,425.506 1203.97,422.084 1220.43,422.084 1236.54,425.506 1251.57,432.202 1264.89,441.878 1275.91,454.11 1284.14,468.366 1289.22,484.022 1290.94,500.392 1290.94,557.086 1289.22,573.456 1284.14,589.112 1275.91,603.368 1264.89,615.602 1251.57,625.276 1245.27,628.082 1245.27,685.772 2521.95,1962.45 2534.34,1959.81 2548.33,1959.81 2562.02,1962.72 2574.8,1968.41 2586.12,1976.64 2595.48,1987.04 2602.48,1999.15 2606.8,2012.46 2608.27,2026.38 2606.8,2040.29 2602.48,2053.6 2595.48,2065.72 2586.12,2076.12 2574.8,2084.34 2562.02,2090.03 2548.33,2092.94 2534.34,2092.94 2520.66,2090.03 2507.87,2084.34 2496.55,2076.12 2487.19,2065.72 2480.19,2053.6 2475.87,2040.29 2474.41,2026.38 2475.87,2012.46 2477.59,2007.17 1191.51,721.09 1184.68,710.872 1182.89,704.962 1182.28,629.484 1172.83,625.276 1159.52,615.602 1148.5,603.368 1140.27,589.112 1135.18,573.456 1133.46,557.086" style="stroke:rgb(0,0,0);stroke-width:1px;fill:none;stroke-opacity:1;stroke-linecap:round;stroke-linejoin:round;;fill:none"/>
<polyline points="438.976,4257.87 438.976,1029.53 441.374,1017.47 448.2,1007.26 495.444,960.012 505.662,953.184 517.716,950.786 901.814,951.392 913.166,956.094 917.94,960.012 980.932,1023 987.76,1033.22 990.156,1045.27 989.552,1643.55 987.76,1649.45 980.932,1659.67 833.432,1807.17 835.15,1812.46 836.614,1826.38 835.15,1840.29 830.828,1853.6 823.832,1865.72 814.468,1876.12 803.148,1884.34 790.366,1890.03 776.68,1892.94 762.688,1892.94 749.002,1890.03 736.22,1884.34 724.9,1876.12 715.538,1865.72 708.542,1853.6 704.218,1840.29 702.756,1826.38 704.218,1812.46 708.542,1799.15 715.538,1787.04 724.9,1776.64 736.22,1768.41 749.002,1762.72 762.688,1759.81 776.68,1759.81 789.07,1762.45 927.164,1624.35 927.164,1058.32 882.622,1013.78 530.762,1013.78 501.968,1042.57 501.968,4244.83 578.006,4320.87 3260.57,4320.87 3753.94,3827.5 3753.94,2672.49 3603.1,2521.65 3161.21,2521.65 3155.41,2533.04 3145.05,2545.83 3074.18,2616.7 3061.39,2627.06 3046.72,2634.53 3030.82,2638.79 3014.38,2639.66 2998.12,2637.08 2982.76,2631.18 2968.95,2622.22 2957.31,2610.58 2948.35,2596.77 2942.45,2581.4 2939.87,2565.14 2940.73,2548.71 2944.99,2532.8 2952.47,2518.14 2962.83,2505.35 3033.69,2434.48 3046.48,2424.12 3061.15,2416.65 3077.05,2412.39 3093.49,2411.52 3109.75,2414.1 3125.12,2420 3138.92,2428.96 3150.56,2440.6 3161.16,2458.66 3622.29,2459.27 3633.64,2463.97 3638.41,2467.89 3807.7,2637.18 3814.53,2647.39 3816.93,2659.45 3816.93,3840.55 3814.53,3852.6 3807.7,3862.82 3295.89,4374.63 3285.67,4381.46 3273.62,4383.86 564.96,4383.86 552.906,4381.46 542.688,4374.63 448.2,4280.14 441.374,4269.93 438.976,4257.87" style="stroke:rgb(107,150,143);stroke-width:0.000000;fill:none;stroke-opacity:0.5;stroke-linecap:round;stroke-linejoin:round;;fill:none"/>
<polyline points="438.976,4257.87 438.976,1029.53 441.374,1017.47 448.2,1007.26 495.444,960.012 505.662,953.184 517.716,950.786 901.814,951.392 913.166,956.094 917.94,960.012 980.932,1023 987.76,1033.22 990.156,1045.27 989.552,1643.55 987.76,1649.45 980.932,1659.67 833.432,1807.17 835.15,1812.46 836.614,1826.38 835.15,1840.29 830.828,1853.6 823.832,1865.72 814.468,1876.12 803.148,1884.34 790.366,1890.03 776.68,1892.94 762.688,1892.94 749.002,1890.03 736.22,1884.34 724.9,1876.12 715.538,1865.72 708.542,1853.6 704.218,1840.29 702.756,1826.38 704.218,1812.46 708.542,1799.15 715.538,1787.04 724.9,1776.64 736.22,1768.41 749.002,1762.72 762.688,1759.81 776.68,1759.81 789.07,1762.45 927.164,1624.35 927.164,1058.32 882.622,1013.78 530.762,1013.78 501.968,1042.57 501.968,4244.83 578.006,4320.87 3260.57,4320.87 3753.94,3827.5 3753.94,2672.49 3603.1,2521.65 3161.21,2521.65 3155.41,2533.04 3145.05,2545.83 3074.18,2616.7 3061.39,2627.06 3046.72,2634.53 3030.82,2638.79 3014.38,2639.66 2998.12,2637.08 2982.76,2631.18 2968.95,2622.22 2957.31,2610.58 2948.35,2596.77 2942.45,2581.4 2939.87,2565.14 2940.73,2548.71 2944.99,2532.8 2952.47,2518.14 2962.83,2505.35 3033.69,2434.48 3046.48,2424.12 3061.15,2416.65 3077.05,2412.39 3093.49,2411.52 3109.75,2414.1 3125.12,2420 3138.92,2428.96 3150.56,2440.6 3161.16,2458.66 3622.29,2459.27 3633.64,2463.97 3638.41,2467.89 3807.7,2637.18 3814.53,2647.39 3816.93,2659.45 3816.93,3840.55 3814.53,3852.6 3807.7,3862.82 3295.89,4374.63 3285.67,4381.46 3273.62,4383.86 564.96,4383.86 552.906,4381.46 542.688,4374.63 448.2,4280.14 441.374,4269.93 438.976,4257.87" style="stroke:rgb(0,0,0);stroke-width:1px;fill:none;stroke-opacity:1;stroke-linecap:round;stroke-linejoin:round;;fill:none"/>
<polyline points="533.464,557.086 533.464,501.968 535.184,485.596 540.272,469.942 548.502,455.686 559.516,443.452 572.834,433.776 587.872,427.082 603.974,423.658 620.434,423.658 636.536,427.082 651.574,433.776 664.892,443.452 675.906,455.686 684.136,469.942 689.224,485.596 690.944,501.968 690.944,557.086 689.224,573.456 684.136,589.112 679.134,597.778 679.134,624.014 653.312,624.014 643.7,628.782 643.7,673.962 802.416,832.676 935.038,832.676 947.092,835.074 952.536,837.984 1162.03,1046.63 1168.86,1056.84 1170.65,1062.75 1170.65,1075.04 1168.86,1080.95 1163.38,1089.52 1163.39,1664.17 1160.99,1676.23 1154.16,1686.44 833.432,2007.17 835.15,2012.46 836.614,2026.38 835.15,2040.29 830.828,2053.6 823.832,2065.72 814.468,2076.12 803.148,2084.34 790.366,2090.03 776.68,2092.94 762.688,2092.94 749.002,2090.03 736.22,2084.34 724.9,2076.12 715.538,2065.72 708.542,2053.6 704.218,2040.29 702.756,2026.38 704.218,2012.46 708.542,1999.15 715.538,1987.04 724.9,1976.64 736.22,1968.41 749.002,1962.72 762.688,1959.81 776.68,1959.81 789.07,1962.45 1100.39,1651.13 1100.64,1074.31 921.992,895.668 789.37,895.668 777.316,893.27 767.098,886.444 586.016,704.506 583.106,699.06 580.708,687.008 580.708,628.782 571.096,624.014 545.274,624.014 545.274,597.778 540.272,589.112 535.184,573.456 533.464,557.086" style="stroke:rgb(56,92,42);stroke-width:0.000000;fill:none;stroke-opacity:0.5;stroke-linecap:round;stroke-linejoin:round;;fill:none"/>
<polyline points="533.464,557.086 533.464,501.968 535.184,485.596 540.272,469.942 548.502,455.686 559.516,443.452 572.834,433.776 587.872,427.082 603.974,423.658 620.434,423.658 636.536,427.082 651.574,433.776 664.892,443.452 675.906,455.686 684.136,469.942 689.224,485.596 690.944,501.968 690.944,557.086 689.224,573.456 684.136,589.112 679.134,597.778 679.134,624.014 653.312,624.014 643.7,628.782 643.7,673.962 802.416,832.676 935.038,832.676 947.092,835.074 952.536,837.984 1162.03,1046.63 1168.86,1056.84 1170.65,1062.75 1170.65,1075.04 1168.86,1080.95 1163.38,1089.52 1163.39,1664.17 1160.99,1676.23 1154.16,1686.44 833.432,2007.17 835.15,2012.46 836.614,2026.38 835.15,2040.29 830.828,2053.6 823.832,2065.72 814.468,2076.12 803.148,2084.34 790.366,2090.03 776.68,2092.94 762.688,2092.94 749.002,2090.03 736.22,2084.34 724.9,2076.12 715.538,2065.72 708.542,2053.6 704.218,2040.29 702.756,2026.38 704.218,2012.46 708.542,1999.15 715.538,1987.04 724.9,1976.64 736.22,1968.41 749.002,1962.72 762.688,1959.81 776.68,1959.81 789.07,1962.45 1100.39,1651.13 1100.64,1074.31 921.992,895.668 789.37,895.668 777.316,893.27 767.098,886.444 586.016,704.506 583.106,699.06 580.708,687.008 580.708,628.782 571.096,624.014 545.274,624.014 545.274,597.778 540.272,589.112 535.184,573.456 533.464,557.086" style="stroke:rgb(0,0,0);stroke-width:1px;fill:none;stroke-opacity:1;stroke-linecap:round;stroke-linejoin:round;;fill:none"/>
<polyline points="541.338,4139.76 541.338,1360.24 543.736,1348.18 546.646,1342.74 553.148,1335.38 553.148,1281.5 553.754,1275.35 558.456,1264 617.492,1204.11 627.71,1197.28 639.762,1194.88 702.754,1194.88 702.756,1159.45 836.614,1159.45 836.614,1293.31 702.756,1293.31 702.754,1257.87 652.808,1257.87 616.14,1294.54 615.536,1354.57 610.832,1365.92 604.33,1373.28 604.33,4126.72 640.998,4163.39 3126.72,4163.39 3604.33,3685.77 3604.33,2908.71 3391.2,2695.58 3389.06,2700.39 3379.38,2713.71 3367.15,2724.72 3352.89,2732.96 3337.24,2738.04 3320.87,2739.76 3218.5,2739.76 3202.13,2738.04 3186.48,2732.96 3172.22,2724.72 3159.99,2713.71 3150.31,2700.39 3143.62,2685.35 3140.19,2669.25 3140.19,2652.79 3143.62,2636.69 3150.31,2621.65 3159.99,2608.34 3172.22,2597.32 3186.48,2589.09 3202.13,2584 3218.5,2582.28 3320.87,2582.28 3337.24,2584 3352.89,2589.09 3367.15,2597.32 3379.38,2608.34 3389.06,2621.65 3392.56,2629.53 3407.32,2630.13 3413.23,2631.92 3423.45,2638.75 3658.1,2873.4 3664.92,2883.62 3667.32,2895.67 3667.32,3698.82 3664.92,3710.87 3658.1,3721.09 3162.03,4217.15 3151.82,4223.98 3139.76,4226.38 627.952,4226.38 615.898,4223.98 605.68,4217.15 550.562,4162.03 543.736,4151.82 541.338,4139.76" style="stroke:rgb(236,176,59);stroke-width:0.000000;fill:none;stroke-opacity:0.5;stroke-linecap:round;stroke-linejoin:round;;fill:none"/>
<polyline points="541.338,4139.76 541.338,1360.24 543.736,1348.18 546.646,1342.74 553.148,1335.38 553.148,1281.5 553.754,1275.35 558.456,1264 617.492,1204.11 627.71,1197.28 639.762,1194.88 702.754,1194.88 702.756,1159.45 836.614,1159.45 836.614,1293.31 702.756,1293.31 702.754,1257.87 652.808,1257.87 616.14,1294.54 615.536,1354.57 610.832,1365.92 604.33,1373.28 604.33,4126.72 640.998,4163.39 3126.72,4163.39 3604.33,3685.77 3604.33,2908.71 3391.2,2695.58 3389.06,2700.39 3379.38,2713.71 3367.15,2724.72 3352.89,2732.96 3337.24,2738.04 3320.87,2739.76 3218.5,2739.76 3202.13,2738.04 3186.48,2732.96 3172.22,2724.72 3159.99,2713.71 3150.31,2700.39 3143.62,2685.35 3140.19,2669.25 3140.19,2652.79 3143.62,2636.69 3150.31,2621.65 3159.99,2608.34 3172.22,2597.32 3186.48,2589.09 3202.13,2584 3218.5,2582.28 3320.87,2582.28 3337.24,2584 3352.89,2589.09 3367.15,2597.32 3379.38,2608.34 3389.06,2621.65 3392.56,2629.53 3407.32,2630.13 3413.23,2631.92 3423.45,2638.75 3658.1,2873.4 3664.92,2883.62 3667.32,2895.67 3667.32,3698.82 3664.92,3710.87 3658.1,3721.09 3162.03,4217.15 3151.82,4223.98 3139.76,4226.38 627.952,4226.38 615.898,4223.98 605.68,4217.15 550.562,4162.03 543.736,4151.82 541.338,4139.76" style="stroke:rgb(0,0,0);stroke-width:1px;fill:none;stroke-opacity:1;stroke-linecap:round;stroke-linejoin:round;;fill:none"/>
<polyline points="2135.04,785.432 2135.04,578.664 2136.55,563.302 2141.03,548.53 2146.02,539.19 2150.62,525.06 2158.85,510.804 2169.86,498.57 2183.18,488.894 2198.22,482.2 2214.32,478.776 2230.78,478.776 2246.88,482.2 2261.92,488.894 2275.24,498.57 2286.25,510.804 2294.48,525.06 2299.57,540.714 2301.29,569.892 2299.78,585.254 2295.3,600.026 2292.52,605.22 2292.52,785.432 2290.8,801.804 2285.71,817.458 2277.48,831.714 2266.47,843.948 2253.15,853.624 2245.27,857.128 2245.27,1015.69 2424.46,1194.88 2469.64,1194.88 2474.41,1185.27 2474.41,1159.45 2500.65,1159.45 2509.31,1154.44 2524.97,1149.36 2531.29,1148.69 2548.65,1131.33 2561.44,1120.97 2576.11,1113.5 2592.01,1109.24 2608.45,1108.37 2624.71,1110.95 2640.08,1116.85 2653.88,1125.81 2665.52,1137.45 2674.49,1151.26 2680.39,1166.63 2682.96,1182.89 2682.1,1199.32 2677.84,1215.22 2670.37,1229.89 2660.01,1242.68 2620.64,1282.05 2608.27,1292.08 2608.27,1293.31 2605.98,1293.31 2595.09,1299.12 2580.32,1303.6 2564.96,1305.12 2541.34,1305.12 2524.97,1303.4 2509.31,1298.31 2500.64,1293.31 2474.41,1293.31 2474.41,1267.48 2469.64,1257.87 2405.27,1257.27 2393.92,1252.57 2389.15,1248.65 2187.59,1046.24 2184.68,1040.79 2182.28,1028.74 2182.28,857.13 2174.41,853.624 2161.09,843.948 2150.08,831.714 2141.85,817.458 2136.76,801.804 2135.04,785.432" style="stroke:rgb(251,50,175);stroke-width:0.000000;fill:none;stroke-opacity:0.5;stroke-linecap:round;stroke-linejoin:round;;fill:none"/>
<polyline points="2135.04,785.432 2135.04,578.664 2136.55,563.302 2141.03,548.53 2146.02,539.19 2150.62,525.06 2158.85,510.804 2169.86,498.57 2183.18,488.894 2198.22,482.2 2214.32,478.776 2230.78,478.776 2246.88,482.2 2261.92,488.894 2275.24,498.57 2286.25,510.804 2294.48,525.06 2299.57,540.714 2301.29,569.892 2299.78,585.254 2295.3,600.026 2292.52,605.22 2292.52,785.432 2290.8,801.804 2285.71,817.458 2277.48,831.714 2266.47,843.948 2253.15,853.624 2245.27,857.128 2245.27,1015.69 2424.46,1194.88 2469.64,1194.88 2474.41,1185.27 2474.41,1159.45 2500.65,1159.45 2509.31,1154.44 2524.97,1149.36 2531.29,1148.69 2548.65,1131.33 2561.44,1120.97 2576.11,1113.5 2592.01,1109.24 2608.45,1108.37 2624.71,1110.95 2640.08,1116.85 2653.88,1125.81 2665.52,1137.45 2674.49,1151.26 2680.39,1166.63 2682.96,1182.89 2682.1,1199.32 2677.84,1215.22 2670.37,1229.89 2660.01,1242.68 2620.64,1282.05 2608.27,1292.08 2608.27,1293.31 2605.98,1293.31 2595.09,1299.12 2580.32,1303.6 2564.96,1305.12 2541.34,1305.12 2524.97,1303.4 2509.31,1298.31 2500.64,1293.31 2474.41,1293.31 2474.41,1267.48 2469.64,1257.87 2405.27,1257.27 2393.92,1252.57 2389.15,1248.65 2187.59,1046.24 2184.68,1040.79 2182.28,1028.74 2182.28,857.13 2174.41,853.624 2161.09,843.948 2150.08,831.714 2141.85,817.458 2136.76,801.804 2135.04,785.432" style="stroke:rgb(0,0,0);stroke-width:1px;fill:none;stroke-opacity:1;stroke-linecap:round;stroke-linejoin:round;;fill:none"/>
<polyline points="2013.78,971.592 2014.47,835.184 2019.79,823.22 2029.53,814.456 2041.98,810.408 2055.01,811.778 2066.35,818.326 2074.05,828.922 2076.08,835.184 2076.77,958.546 2446.18,1327.95 2474.41,1327.95 2486.46,1330.35 2496.68,1337.18 2512.81,1353.31 2524.97,1349.36 2541.34,1347.64 2604.33,1347.64 2620.7,1349.36 2636.36,1354.44 2650.61,1362.68 2662.85,1373.69 2672.52,1387.01 2676.03,1394.88 2895.71,1394.88 2895.71,1383.11 2899.13,1367.01 2905.82,1351.97 2915.5,1338.65 2927.73,1327.64 2937.4,1322.05 2937.4,1320.47 2957.64,1314.32 2974.01,1312.6 3008.27,1312.6 3024.64,1314.32 3042.14,1320.47 3079.13,1320.47 3079.13,1357.98 3083.15,1367.01 3086.58,1383.11 3086.58,1399.57 3083.15,1415.67 3079.13,1424.7 3079.13,1462.2 3042.14,1462.2 3024.64,1468.36 3008.27,1470.08 2974.01,1470.08 2957.64,1468.36 2937.4,1462.2 2937.4,1460.62 2932.64,1457.87 2676.03,1457.87 2672.52,1465.75 2662.85,1479.06 2650.61,1490.08 2636.36,1498.31 2620.7,1503.4 2604.33,1505.12 2541.34,1505.12 2524.97,1503.4 2509.31,1498.31 2495.06,1490.08 2482.82,1479.06 2473.15,1465.75 2466.45,1450.71 2463.03,1434.61 2463.03,1418.15 2468.3,1397.89 2461.36,1390.94 2426.99,1390.34 2415.63,1385.64 2410.86,1381.72 2023,993.862 2016.18,983.644 2013.78,971.592" style="stroke:rgb(60,84,236);stroke-width:0.000000;fill:none;stroke-opacity:0.5;stroke-linecap:round;stroke-linejoin:round;;fill:none"/>
<polyline points="2013.78,971.592 2014.47,835.184 2019.79,823.22 2029.53,814.456 2041.98,810.408 2055.01,811.778 2066.35,818.326 2074.05,828.922 2076.08,835.184 2076.77,958.546 2446.18,1327.95 2474.41,1327.95 2486.46,1330.35 2496.68,1337.18 2512.81,1353.31 2524.97,1349.36 2541.34,1347.64 2604.33,1347.64 2620.7,1349.36 2636.36,1354.44 2650.61,1362.68 2662.85,1373.69 2672.52,1387.01 2676.03,1394.88 2895.71,1394.88 2895.71,1383.11 2899.13,1367.01 2905.82,1351.97 2915.5,1338.65 2927.73,1327.64 2937.4,1322.05 2937.4,1320.47 2957.64,1314.32 2974.01,1312.6 3008.27,1312.6 3024.64,1314.32 3042.14,1320.47 3079.13,1320.47 3079.13,1357.98 3083.15,1367.01 3086.58,1383.11 3086.58,1399.57 3083.15,1415.67 3079.13,1424.7 3079.13,1462.2 3042.14,1462.2 3024.64,1468.36 3008.27,1470.08 2974.01,1470.08 2957.64,1468.36 2937.4,1462.2 2937.4,1460.62 2932.64,1457.87 2676.03,1457.87 2672.52,1465.75 2662.85,1479.06 2650.61,1490.08 2636.36,1498.31 2620.7,1503.4 2604.33,1505.12 2541.34,1505.12 2524.97,1503.4 2509.31,1498.31 2495.06,1490.08 2482.82,1479.06 2473.15,1465.75 2466.45,1450.71 2463.03,1434.61 2463.03,1418.15 2468.3,1397.89 2461.36,1390.94 2426.99,1390.34 2415.63,1385.64 2410.86,1381.72 2023,993.862 2016.18,983.644 2013.78,971.592" style="stroke:rgb(0,0,0);stroke-width:1px;fill:none;stroke-opacity:1;stroke-linecap:round;stroke-linejoin:round;;fill:none"/>
<polyline points="2360.34,3038.21 2361.2,3021.77 2365.47,3005.87 2372.94,2991.2 2391.01,2970.7 2402.94,2960.91 2416.55,2953.63 2431.32,2949.15 2446.69,2947.64 2541.34,2947.64 2557.71,2949.36 2573.36,2954.44 2587.62,2962.68 2599.85,2973.69 2609.53,2987.01 2613.03,2994.88 2642.13,2995.49 2648.04,2997.28 2658.26,3004.11 2900.22,3246.07 3122.78,3246.07 3187.01,3181.84 3187.01,3131.89 3147.64,3131.89 3147.64,2990.16 3289.37,2990.16 3289.37,3131.89 3250,3131.89 3250,3194.88 3247.6,3206.93 3244.69,3212.38 3158.09,3299.83 3147.87,3306.66 3135.82,3309.06 2881.03,3308.45 2869.68,3303.75 2864.9,3299.83 2622.94,3057.87 2613.03,3057.87 2609.53,3065.75 2599.85,3079.06 2587.62,3090.08 2573.36,3098.31 2557.71,3103.4 2541.34,3105.12 2472.06,3105.12 2467.19,3107.6 2451.29,3111.86 2434.85,3112.72 2418.6,3110.14 2403.23,3104.25 2389.42,3095.28 2377.78,3083.64 2368.82,3069.83 2362.92,3054.47 2360.34,3038.21" style="stroke:rgb(24,219,92);stroke-width:0.000000;fill:none;stroke-opacity:0.5;stroke-linecap:round;stroke-linejoin:round;;fill:none"/>
<polyline points="2360.34,3038.21 2361.2,3021.77 2365.47,3005.87 2372.94,2991.2 2391.01,2970.7 2402.94,2960.91 2416.55,2953.63 2431.32,2949.15 2446.69,2947.64 2541.34,2947.64 2557.71,2949.36 2573.36,2954.44 2587.62,2962.68 2599.85,2973.69 2609.53,2987.01 2613.03,2994.88 2642.13,2995.49 2648.04,2997.28 2658.26,3004.11 2900.22,3246.07 3122.78,3246.07 3187.01,3181.84 3187.01,3131.89 3147.64,3131.89 3147.64,2990.16 3289.37,2990.16 3289.37,3131.89 3250,3131.89 3250,3194.88 3247.6,3206.93 3244.69,3212.38 3158.09,3299.83 3147.87,3306.66 3135.82,3309.06 2881.03,3308.45 2869.68,3303.75 2864.9,3299.83 2622.94,3057.87 2613.03,3057.87 2609.53,3065.75 2599.85,3079.06 2587.62,3090.08 2573.36,3098.31 2557.71,3103.4 2541.34,3105.12 2472.06,3105.12 2467.19,3107.6 2451.29,3111.86 2434.85,3112.72 2418.6,3110.14 2403.23,3104.25 2389.42,3095.28 2377.78,3083.64 2368.82,3069.83 2362.92,3054.47 2360.34,3038.21" style="stroke:rgb(0,0,0);stroke-width:1px;fill:none;stroke-opacity:1;stroke-linecap:round;stroke-linejoin:round;;fill:none"/>
</svg>
